<svg xmlns="http://www.w3.org/2000/svg" xml:space="preserve" viewBox="0 0 1024 1024">
    <path fill="currentColor" d="M290.977 548.912c-2.769 6.213-5.517 12.436-8.313 18.636-1.641 3.638-3.044 7.433-5.104 10.823-5.861 9.641-16.63 9.72-21.769-.343-3.273-6.41-5.696-13.642-6.686-20.758-2.843-20.44-4.565-41.032-7.116-61.516-1.665-13.365-3.77-26.69-6.182-39.941-.763-4.191-3.153-8.086-4.798-12.117l-2.022-.023c-1.322 2.496-3.271 4.854-3.859 7.512a862 862 0 0 0-7.042 35.206c-1.34 7.535-2.068 15.178-3.332 22.816-.22-1.582-.298-3.22-.114-4.83 1.068-9.35 2.334-18.682 3.166-28.053.129-1.45-1.637-3.07-2.526-4.61-1.072 1.43-2.517 2.716-3.134 4.321-1.098 2.856-1.695 5.905-2.501 8.874 2.194-11.749 4.34-23.507 6.63-35.237.377-1.926 1.251-3.798 2.135-5.575 2.279-4.58 4.935-8.972 10.873-8.946 5.737.024 9.824 3.712 11.21 8.53 3.383 11.756 6.679 23.678 8.329 35.762 3.328 24.372 5.335 48.922 8.347 73.342.783 6.354 3.031 12.576 5.091 18.695.656 1.947 2.879 3.366 4.384 5.027 1.46-1.484 3.41-2.727 4.284-4.5 2.27-4.609 3.662-9.675 6.148-14.146 3.754-6.751 8.14-13.151 12.716-19.519 1.425 2.736 2.391 5.29 3.357 7.844 0 0-.07-.105-.223.051-.387.448-.62.74-.854 1.032 0 0 .008-.222-.105-.029z"/>
    <path fill="currentColor" d="M331.969 414.493c12.877.118 25.754.235 39.048.435.416.082.363.081.363.081 27.888 2.442 52.932 24.517 61.07 53.832 11.507 41.456-14.54 84.085-57.203 92.466-1.083-2.9-1.63-5.527-2.178-8.155 26.017-5.908 43.223-21.698 50.606-47.17 11.006-37.97-14.09-76.191-53.873-82.303-1.213-.256-1.77-.309-2.329-.362-9.564-.035-19.128-.07-29.485-.374a70 70 0 0 0-5.686-.939c-3.142-.39-4.984-2.026-5.413-5.07 1.892-.91 3.486-1.675 5.08-2.44"/>
    <path fill="currentColor" d="M209.486 485.246c.965-3.306 1.562-6.355 2.66-9.211.617-1.605 2.062-2.891 3.134-4.321.89 1.54 2.655 3.16 2.526 4.61-.832 9.37-2.098 18.702-3.166 28.053-.184 1.61-.105 3.248.003 5.212.11 1.137.069 1.934-.38 3.354-.674 2.626-.939 4.63-1.203 6.632.052.616.105 1.232-.089 2.315-.23.997-.214 1.525-.198 2.053-1.932 7.707-3.622 15.487-5.9 23.09-1.146 3.831-4.09 6.51-8.405 6.873-4.405.37-7.685-2.021-9.132-5.71-2.534-6.464-4.774-13.13-6.239-19.906-2.672-12.36-4.568-24.888-7.059-37.292-.652-3.248-2.299-6.296-3.489-9.436l-1.541.096c-1.04 2-2.295 3.919-3.074 6.015-1.447 3.897-2.502 7.94-3.924 11.847-4.576 12.568-11.852 17.717-25.197 17.886-6.496.082-12.994.066-19.49.057-3.201-.004-6.925.272-6.961-4.313-.035-4.378 3.353-4.647 6.759-4.629 6.996.038 13.996.095 20.988-.096 8.397-.228 12.31-3.153 15.223-11.147 1.31-3.595 2.195-7.352 3.615-10.899 1.29-3.22 2.65-6.543 4.674-9.312 4.648-6.357 11.885-6.363 16.063.276 2.511 3.99 4.3 8.705 5.284 13.334 2.974 14 5.288 28.137 8.103 42.173.787 3.923 2.416 7.679 4.484 11.436 7.296-14.5 7.622-30.254 10.44-46.113.293-1.43.28-2.27.266-3.112.007-.473.015-.946.394-1.956.45-2.373.527-4.208.605-6.043a9.4 9.4 0 0 1 .226-1.816m280.029 34.179c-.02-2.877-.02-5.333-.02-8.47 7.611 0 14.554.05 21.496-.01 11.288-.098 17.137-8.547 12.475-18.881-1.192-2.642-4.95-5.532-7.753-5.78-8.592-.76-17.293-.34-25.951-.278-4.503.033-5.342 3.08-5.339 6.81.012 13.322-.017 26.644-.058 39.966-.019 6.053-4.917 9.184-10.319 6.443-.857-.436-1.529-2.114-1.534-3.22-.074-15.82-.276-31.644.11-47.454.204-8.405 6.212-13.791 14.611-13.966 9.155-.19 18.323-.311 27.474-.058 14.093.39 21.785 8.807 21.996 23.59.204 14.198-7.982 23.447-21.706 24.098-7.145.339-14.32.247-21.472.035-1.353-.04-2.662-1.565-4.01-2.825"/>
    <path fill="currentColor" d="M803.113 506v-35.362H814.7c.082 1.725.238 3.479.24 5.233.013 14.494-.025 28.987.003 43.481.014 7.11 1.758 8.843 8.833 8.917 4.497.047 8.998.107 13.493-.006 5.461-.138 7.385-2.128 7.517-7.699a201 201 0 0 0-.057-10.994c-.171-5.515-2.138-7.523-7.614-7.632-5.484-.11-10.973-.024-16.936-.024v-10.91c7.746 0 15.553-.465 23.276.139 6.82.533 12.01 6.322 12.644 13.494.555 6.287.763 12.665.388 18.96-.558 9.38-6.25 15.141-15.604 15.687a171 171 0 0 1-22.458-.17c-9.232-.681-15.023-7.287-15.272-16.622-.142-5.327-.035-10.661-.04-16.492"/>
    <path fill="currentColor" d="M606.893 502.7c-7.19-.385-14-.822-20.793-.644-4.116.108-5.373 3.21-5.358 7.025.051 12.822.03 25.644.01 38.466-.013 8.522-.034 8.532-8.518 8.183-.962-.04-1.916-.265-3.036-.428-.146-1.126-.378-2.092-.38-3.06-.03-14.82-.158-29.641.005-44.46.117-10.652 6.077-16.658 16.72-17.08 6.32-.25 12.658-.314 18.979-.132 10.542.303 17.085 6.745 17.564 17.202.229 4.986.24 9.994.065 14.982-.33 9.404-6.075 15.738-15.395 16.523-5.955.502-11.98.372-17.966.242-5.233-.114-2.675-4.328-3.11-6.799-.43-2.438-.076-4.655 3.48-4.488 4.32.203 8.658.139 12.985.044 6.288-.137 8.083-1.895 8.23-8.024.092-3.828.35-7.704-.136-11.471-.264-2.051-1.927-3.922-3.346-6.081"/>
    <path fill="currentColor" d="M332.028 455.885c13.269-12.705 28.736-15.612 45.519-8.903 16.722 6.684 25.872 19.721 27.966 37.58 2.905 24.776-17.422 48.163-42.389 48.713-8.975.198-17.96-.03-27.712-.342-2.161-1.38-3.548-2.481-4.936-3.583 1.545-1.094 3.048-2.252 4.648-3.257.926-.58 2.006-.915 3.017-1.36 8.691-.125 17.383-.25 26.609-.308.8.102 1.039.036 1.251-.132 16.506-3.53 27.353-13.965 30.023-28.88 2.665-14.886-3.512-29.329-15.9-37.18-12.624-8.001-28.112-7.028-41.62 2.875-.874.55-1.189.804-1.504 1.06 0 0 .035-.177-.09.023a18 18 0 0 1-.874 1.03s-.013-.184-.132-.007a23 23 0 0 1-.866 1.01s-.003-.195-.115-.003c-.355.48-.598.77-.841 1.06 0 0 .144-.105-.208-.11-5.788-.4-4.561-4.133-4.098-7.484 0 0 .126.15.267.024.396-.41.65-.696.905-.981 0 0-.005.21.124.054.404-.404.68-.651.956-.899"/>
    <path fill="currentColor" d="M677.391 519.482c-9.03 5.215-18.515 2.696-27.711 2.798-.75.009-1.976-1.965-2.183-3.156-.362-2.071-.1-4.251-.1-7.182 5.184 0 9.932.01 14.68-.004 1.83-.006 4.012.55 5.405-.25 1.883-1.08 4.311-3.185 4.36-4.91.044-1.605-2.61-4.56-4.277-4.71-6.438-.586-12.961-.44-19.444-.253-3.24.093-5.19 2.162-5.311 5.5-.126 3.492-.074 6.99-.07 10.486.015 10.172.42 10.563 10.82 10.577 3.33.004 6.66-.033 9.99.015 1.626.024 3.249.201 5.12.325v11.194c-8.527-.417-16.89-.089-24.976-1.429-8.022-1.33-12.583-8.111-12.701-16.286-.07-4.828-.111-9.66.02-14.484.277-10.145 6.391-16.644 16.42-17.084 6.978-.306 13.989-.285 20.969-.008 6.92.275 12.103 3.63 14.524 10.3 2.447 6.742.338 13.613-5.535 18.56"/>
    <path fill="currentColor" d="M746.77 536.284c-5.506-3.642-7.56-8.674-7.581-14.699-.017-4.66-.104-9.325.096-13.977.413-9.58 6.278-16.038 15.837-16.693 7.45-.51 14.984-.522 22.436-.057 9.098.567 15.142 7.303 15.455 16.505.175 5.153.191 10.32.034 15.473-.226 7.393-3.621 13.408-10.81 15.104-11.69 2.757-23.633 3.46-35.467-1.656m34.62-19.84c-.012-2.327.024-4.655-.047-6.98-.169-5.498-2.026-7.406-7.61-7.533a313 313 0 0 0-15.454.01c-5.304.142-7.213 2.103-7.325 7.265-.08 3.654-.086 7.313-.017 10.968.11 5.874 2.21 7.97 8.22 8.138 3.819.106 7.643.03 11.465.042 9.728.028 10.843-1.104 10.769-11.91m120.461 22.571c-12.032.066-23.654.066-35.629.066v-10.837c4.47 0 8.898.007 13.326-.001 5.826-.011 11.684.3 17.459-.25 1.791-.17 4.38-2.446 4.804-4.194.75-3.095-1.67-4.794-4.788-4.92-6.483-.263-13.016-.022-19.442-.754-9.15-1.044-13.634-7.861-11.688-16.76 1.244-5.689 5.6-10.054 11.938-10.344 9.936-.455 19.907-.12 30.24-.12v11.042c-8.575 0-16.867-.168-25.143.132-1.809.066-3.557 1.805-5.334 2.773 1.725.903 3.4 2.446 5.185 2.588 5.297.421 10.663-.012 15.955.442 9.105.78 14.041 5.32 15.059 13.201 1.128 8.736-2.705 14.675-11.942 17.936"/>
    <path fill="currentColor" d="M331.511 414.407c-1.136.852-2.73 1.618-4.622 2.527.429 3.044 2.271 4.68 5.413 5.07 1.633.203 3.262.447 5.212.861-5.498.28-11.317.356-17.134.462-17.181.313-29.19 12.161-29.32 29.394-.169 22.301-.351 44.613.189 66.903.17 7.027-2.672 10.713-8.853 13.604-.115-1.842-.296-3.41-.298-4.977-.032-24.466-.077-48.933-.045-73.399.033-24.889 15.615-40.471 40.514-40.603 2.829-.015 5.658.046 8.944.158"/>
    <path fill="currentColor" d="M303.19 572.1c-7.877 8.168-11.834 17.892-11.788 30.276 2.972-.658 5.783-.81 8.172-1.893 9.454-4.288 15.134-11.76 17.147-21.903 1.29-6.5 2.061-7.237 9.112-7.105 2.982 16.482-12.366 36.764-29.94 39.567-13.022 2.077-14.731.501-13.602-12.618 1.13-13.125 5.948-24.49 16.639-33.358 4.032 1.207 5.203 3.578 4.26 7.034"/>
    <path fill="currentColor" d="M710.507 501.914c-4.825.197-6.563 2.647-6.54 6.837.056 9.958.018 19.917.018 29.784-.766.352-1.19.685-1.646.736-9.947 1.1-9.956 1.093-9.968-8.783-.01-7.647-.095-15.295.038-22.94.185-10.678 5.645-16.369 16.253-16.735 7.14-.247 14.294-.064 21.442-.035.814.003 1.628.256 2.67.43v10.698c-7.317 0-14.565 0-22.267.008"/>
    <path fill="currentColor" d="M303.5 571.975c.633-3.331-.538-5.702-4.262-7.046 6.813-6.638 15.24-9.825 24.889-10.124 16.017-.495 32.03-1.128 48.494-1.678.995 2.653 1.543 5.28 2.241 8.2-6.623.744-13.391 1.403-20.172 1.6-8.636.25-17.284.032-25.924.189-9.247.168-17.618 3.02-25.266 8.859"/>
    <path fill="currentColor" d="M263.208 497.347c.166-1.932-.096-3.67.608-4.817.743-1.211 2.464-2.643 3.652-2.554 1.467.11 3.143 1.443 4.119 2.716.677.883.42 2.555.421 3.875.027 17.458.03 34.916.025 52.374 0 1.16.316 2.63-.256 3.416-1.056 1.452-2.627 3.41-4.048 3.464-1.37.052-3.19-1.798-4.118-3.255-.701-1.102-.391-2.9-.393-4.388-.02-16.792-.013-33.585-.01-50.831"/>
    <path fill="currentColor" d="M545.843 514c-.015-6.312.264-12.144-.137-17.93-.314-4.518 1.339-6.026 5.63-5.473 1.768.228 3.589.038 6.194.038v8.292c.004 11.292.014 22.584.01 33.875-.001 6.893-.01 6.909-6.746 6.708-1.46-.043-2.915-.247-4.95-.429z"/>
    <path fill="currentColor" d="M329.484 457.854c-.171 3.184-1.398 6.917 4.442 7.39-5.79 8.433-8.079 17.876-7.767 28.172.23 7.612.045 15.236.045 23.26h-8.777c.58-14.105-2.212-28.324 2.235-41.963 1.946-5.966 6.28-11.152 9.822-16.86"/>
    <path fill="currentColor" d="M356.83 509.409c.004-14.251.021-28.066.003-41.882-.004-3.586.844-6.556 5.243-5.995 3.48.444 3.628 3.291 3.622 6.114-.03 13.982-.014 27.964 0 41.946.004 3.16-.136 6.343-4.355 6.447-4.231.103-4.644-2.932-4.512-6.63"/>
    <path fill="currentColor" d="M225.305 507.949c.01-10.295.009-20.099.043-29.902.012-3.135.298-6.484 4.42-6.434 4.078.049 4.345 3.357 4.342 6.517-.015 12.297-.019 24.593-.04 36.89-.006 2.934-.069 5.95-4.114 6.074-4.349.132-4.502-3.072-4.606-6.174-.073-2.158-.033-4.32-.045-6.971"/>
    <path fill="currentColor" d="M308.566 492.01c-.018 6.98-.024 13.461-.052 19.943-.033 7.6-.041 7.6-8.25 9.48-.21-1.091-.596-2.17-.599-3.25-.034-12.299.006-24.597-.01-36.896-.004-3.089.523-5.909 4.305-6.02 3.804-.113 4.554 2.708 4.608 5.775.062 3.489.006 6.98-.002 10.968m29.104 32.618c-.54.55-1.62.884-2.546 1.465-1.6 1.005-3.103 2.163-4.648 3.257a230 230 0 0 0 4.492 3.503c-6.767.816-13.934 1.012-20.942 2.167-7.847 1.292-14.8 4.842-20.583 11.003-1.26-2.39-2.226-4.945-3.349-7.827 7.725-8.537 17.813-11.949 28.738-13.09 6.077-.633 12.242-.417 18.838-.478"/>
    <path fill="currentColor" d="M383.035 491.389c-.01 1.602-.053 2.766-.021 3.928.083 3.076-1.132 5.79-4.34 5.238-1.673-.288-3.894-3.068-4.123-4.936-.56-4.579-.531-9.344.15-13.902.259-1.738 2.945-3.113 4.525-4.654 1.27 1.637 3.253 3.12 3.648 4.947.619 2.858.163 5.949.161 9.379m-41.153 9.448c-.99-1.773-2.123-3.368-2.208-5.016-.247-4.788-.39-9.63.116-14.378.167-1.571 2.43-2.92 3.736-4.37 1.481 1.454 4.062 2.786 4.24 4.384.563 5.071.372 10.247.192 15.372-.124 3.553-2.24 4.96-6.076 4.008"/>
    <path fill="currentColor" d="M557.577 475.11c-.028 6.984-.811 7.373-11.381 5.808v-9.998c8.142-2.114 10.821-1.207 11.381 4.19"/>
    <path fill="currentColor" d="M209.147 487.416a31 31 0 0 1-.351 5.36c-.075-1.529.082-3.267.351-5.36m4.168 31.876c.01-1.72.274-3.723.776-5.985-.016 1.728-.268 3.715-.776 5.985m-5.158-23.958c.118.568.131 1.41-.01 2.413-.133-.606-.113-1.373.01-2.413"/>
    <path fill="currentColor" d="M291.216 548.743c.053-.323.345-.816.862-1.498-.059.317-.341.823-.862 1.498M367.72 423.47c.311-.1.87-.047 1.68.108-.308.082-.87.063-1.68-.109"/>
    <path fill="currentColor" d="M212.873 523.63c-.116-.215-.132-.743-.03-1.445.123.261.127.697.03 1.445"/>
    <path fill="currentColor" d="M292.352 547.158c-.046-.18.187-.473.627-.955.021.154-.164.5-.627.955m42.022-81.974c-.049-.193.194-.482.647-.965.021.16-.167.515-.647.965m37.046-50.174h.04zm-5.665 109.261c.034.19-.205.256-.591.179-.121-.043.346-.201.591-.179m-34.035-68.358c.032.22-.244.467-.753.868-.008-.177.218-.509.753-.868m-1.068.912c.041.19-.213.476-.684.95-.015-.16.187-.507.684-.95m6.657 5.267c.006-.18.321-.435.9-.845-.021.153-.306.461-.9.845m-.989 1.031c-.034-.178.215-.456.678-.915.01.15-.192.483-.679.915m-.997 1.002c-.035-.178.214-.456.675-.917.01.15-.19.484-.675.917"/>
    <path fill="currentColor" d="M781.393 516.921c.072 10.329-1.043 11.461-10.771 11.433-3.822-.012-7.646.064-11.466-.042-6.008-.168-8.109-2.264-8.219-8.138-.069-3.655-.062-7.314.017-10.968.112-5.162 2.02-7.123 7.325-7.266a313 313 0 0 1 15.453-.009c5.585.127 7.442 2.035 7.611 7.533.071 2.325.035 4.653.05 7.457"/>
</svg>
