<?xml version="1.0" encoding="UTF-8"?>
<svg version="1.1" xmlns="http://www.w3.org/2000/svg" width="1024" height="1024">
<path d="M0 0 C337.92 0 675.84 0 1024 0 C1024 337.92 1024 675.84 1024 1024 C686.08 1024 348.16 1024 0 1024 C0 686.08 0 348.16 0 0 Z " fill="#1E2226" transform="translate(0,0)"/>
<path d="M0 0 C5.56884106 2.72759562 8.55640622 6.43587093 11 12 C17.24364109 31.66746943 18.75747364 52.44042997 20.5 72.875 C21.99048932 107.64899737 21.99048932 107.64899737 33 140 C33.99 140.33 34.98 140.66 36 141 C39.43113944 134.3157053 42.80039588 127.68302513 45.5625 120.6875 C50.31927011 109.11780753 57.83248894 99.74127201 69.25 94.125 C84.92533915 88.01521929 100.59075661 88.55573992 117.1550293 88.56420898 C120.40184954 88.56062714 123.64785682 88.53327038 126.89453125 88.50390625 C128.36669853 88.51618004 128.36669853 88.51618004 129.86860657 88.52870178 C139.8078117 88.42203923 147.69278463 84.68362369 155 78 C162.15253851 69.9371384 164.39427805 60.72704306 164.27734375 50.125 C163.49867988 41.3513226 158.59968943 31.97482596 151.9296875 26.2109375 C142.215834 19.34016307 132.82004992 17.86692332 121 19 C117.59840415 19.84287331 114.94303014 21.11646071 112 23 C111.23042969 23.474375 110.46085938 23.94875 109.66796875 24.4375 C101.01535646 30.40679803 97.00698513 38.8557073 95 49 C94.78170944 51.69570451 94.63168368 54.30484408 94.5859375 57 C94.56657135 57.7211499 94.5472052 58.4422998 94.5272522 59.18530273 C94.46814737 61.45675353 94.42135225 63.72825695 94.375 66 C94.33675634 67.55340579 94.29770104 69.10679183 94.2578125 70.66015625 C94.16250434 74.43994099 94.07822368 78.21982468 94 82 C91.03 82 88.06 82 85 82 C84.92515805 77.19860134 84.87107546 72.39755138 84.83520508 67.59570312 C84.82023234 65.96641109 84.79984679 64.33715855 84.77368164 62.70800781 C84.50046373 45.24349059 84.50046373 45.24349059 88 37 C88.42539062 35.98808594 88.85078125 34.97617187 89.2890625 33.93359375 C95.57292393 22.19269476 103.8895633 15.4472647 116 10 C127.07666094 6.76854785 139.7029085 8.02369397 149.9140625 13.10546875 C161.12050897 19.98537576 169.88092337 30.06782844 173 43 C175.73093146 55.14392926 173.33882397 66.42276056 167.3125 77.25 C160.61545368 87.57251501 152.03818513 94.24322688 140.17098999 97.57112122 C135.70312463 98.45374742 131.15484961 98.27779323 126.6171875 98.2734375 C124.3749951 98.29373661 122.13280764 98.31458757 119.890625 98.3359375 C116.38895486 98.35844684 112.88748115 98.37497904 109.38574219 98.38085938 C92.08872246 98.42973482 75.98120125 98.49665618 62.2265625 110.5546875 C56.87008906 116.23744359 54.26975572 123.59516646 51.56640625 130.796875 C45.53605833 146.73197083 45.53605833 146.73197083 39 150 C34.72163341 150.51273156 31.14192008 150.57096004 27.25 148.625 C13.60436689 132.70509471 13.70432448 106.03498297 11.9375 86.125 C11.77602196 84.35280694 11.61391368 82.5806712 11.45117188 80.80859375 C11.2085485 78.16452948 10.96599831 75.52046041 10.72462463 72.87628174 C9.00377801 52.8704793 9.00377801 52.8704793 6.1875 33 C6.01935791 32.04013184 5.85121582 31.08026367 5.67797852 30.09130859 C4.3816959 23.14285683 2.9136898 16.01162383 -1 10 C-1.99 9.67 -2.98 9.34 -4 9 C-6.80149232 17.18897756 -9.28502741 25.35035519 -10.8125 33.875 C-11.05516602 35.20567505 -11.05516602 35.20567505 -11.30273438 36.56323242 C-12.52337297 43.56107243 -13.50887295 50.58097534 -14.44921875 57.62109375 C-14.64050102 59.04998932 -14.64050102 59.04998932 -14.83564758 60.50775146 C-15.47799136 65.32808388 -16.10711357 70.14970447 -16.71801758 74.97412109 C-21.21590392 109.83029752 -21.21590392 109.83029752 -28.875 118 C-31.89423289 119.42081548 -33.69257839 119.52918746 -37 119 C-43.92559106 115.18385799 -45.86496957 108.28858339 -48 101 C-49.35133144 95.29242887 -50.1855177 89.48285479 -51.0625 83.6875 C-53.29452218 65.35218813 -53.29452218 65.35218813 -59 48 C-59.99 47.67 -60.98 47.34 -62 47 C-62.4125 48.2375 -62.825 49.475 -63.25 50.75 C-63.52457031 51.56597656 -63.79914063 52.38195312 -64.08203125 53.22265625 C-64.72300021 55.1619283 -65.34383706 57.10791943 -65.94921875 59.05859375 C-68.50820202 67.16035501 -71.43451481 73.35062903 -78 79 C-83.04936147 81.57645812 -87.14121559 82.44042069 -92.83203125 82.36328125 C-93.9087635 82.36402901 -93.9087635 82.36402901 -95.00724792 82.36479187 C-96.5106384 82.36246798 -98.01403401 82.35284005 -99.51733398 82.33618164 C-101.82375479 82.31238387 -104.12903277 82.3156581 -106.43554688 82.32226562 C-107.90104858 82.31669459 -109.36654542 82.30958834 -110.83203125 82.30078125 C-111.8663604 82.30214836 -111.8663604 82.30214836 -112.92158508 82.30354309 C-117.76888461 82.23111539 -117.76888461 82.23111539 -120 80 C-119.44444444 75.44444444 -119.44444444 75.44444444 -118 74 C-115.85258322 73.8778308 -113.70144512 73.82019222 -111.55078125 73.7890625 C-110.21418094 73.76097105 -108.87759258 73.73230646 -107.54101562 73.703125 C-105.4323794 73.66202384 -103.32396069 73.62514408 -101.21508789 73.59863281 C-99.18068037 73.57083316 -97.14729013 73.52494102 -95.11328125 73.4765625 C-93.28470581 73.4468335 -93.28470581 73.4468335 -91.41918945 73.41650391 C-86.60301104 72.82982769 -83.27337646 71.23938954 -79.8046875 67.86328125 C-77.45653843 64.1377547 -76.3526682 60.3912812 -75.125 56.1875 C-72.87420892 48.92977281 -70.48429799 43.48429799 -65 38 C-61.25857881 37.3068525 -57.62870268 37.07138555 -54.24609375 39 C-50.56508845 42.69061628 -49.03106816 47.29305945 -47.51953125 52.17578125 C-47.30285294 52.87395462 -47.08617462 53.57212799 -46.8629303 54.29145813 C-44.47844056 62.29755935 -43.19401068 70.44338884 -41.9375 78.6875 C-40.33436676 89.11745551 -38.45578471 98.99123409 -35 109 C-29.60083446 103.60083446 -29.22898905 93.26096948 -28.1875 86 C-27.94483398 84.38085693 -27.94483398 84.38085693 -27.69726562 82.72900391 C-26.73493705 76.24749014 -25.82483834 69.7593232 -24.92976379 63.26824951 C-24.41800495 59.56179432 -23.90062052 55.85612862 -23.38369751 52.15039062 C-23.00930774 49.44232549 -22.64534705 46.73300054 -22.28198242 44.0234375 C-17.77564048 11.12310922 -17.77564048 11.12310922 -8.5625 1.4375 C-5.32958123 -0.37608858 -3.65933245 -0.59744203 0 0 Z " fill="#7278C3" transform="translate(231,434)"/>
<path d="M0 0 C1.15785004 -0.00191345 2.31570007 -0.0038269 3.50863647 -0.00579834 C5.95449033 -0.00715618 8.40035149 -0.00348784 10.84619141 0.00488281 C14.55257777 0.01552918 18.25847296 0.00500378 21.96484375 -0.0078125 C24.35156355 -0.0064897 26.73828306 -0.00392481 29.125 0 C30.21712799 -0.00404846 31.30925598 -0.00809692 32.43447876 -0.01226807 C42.97284379 0.05055408 53.46636146 0.8836045 63.0859375 5.453125 C63.75842529 5.76282227 64.43091309 6.07251953 65.1237793 6.39160156 C84.88208645 15.70795133 98.32257632 30.72306273 105.9609375 51.265625 C112.5750371 70.62786818 109.59934726 91.15203644 100.9609375 109.265625 C91.76168013 127.28865984 76.54815092 139.46447598 57.74609375 146.1875 C49.27547549 148.60018384 41.066787 149.54870249 32.28125 149.5390625 C30.2799423 149.55934917 28.27864025 149.58019991 26.27734375 149.6015625 C23.18175421 149.62409726 20.08639037 149.64062414 16.99072266 149.64648438 C-4.45810415 149.50247297 -4.45810415 149.50247297 -23.1015625 159.203125 C-29.26420097 165.76335304 -32.80793271 173.76328135 -34.1640625 182.578125 C-34.41542969 184.18107422 -34.41542969 184.18107422 -34.671875 185.81640625 C-34.79304688 186.62464844 -34.91421875 187.43289063 -35.0390625 188.265625 C-26.03379262 187.05658414 -20.28463132 183.3695885 -14.6640625 176.265625 C-11.55356266 171.82325802 -10.20578688 167.93286884 -9.6640625 162.515625 C-9.0390625 159.265625 -9.0390625 159.265625 -7.3515625 157.828125 C-4.5192445 157.13918278 -1.94278229 157.13363774 0.9609375 157.265625 C0.07237375 170.5940812 -4.12510955 180.7997989 -13.7890625 190.015625 C-21.66978562 196.51350425 -29.06384755 197.71100777 -39.1328125 197.6015625 C-42.0390625 197.265625 -42.0390625 197.265625 -44.0390625 195.265625 C-45.57408705 181.46825321 -42.38605033 168.46963552 -34.0390625 157.265625 C-26.13597309 147.58709006 -16.28639767 142.28400806 -4.0390625 140.265625 C-0.3850777 139.9924722 3.25485017 139.96514771 6.91796875 139.95703125 C9.02148713 139.93187007 11.12500269 139.90647206 13.22851562 139.88085938 C16.49974828 139.85219659 19.77093205 139.82813941 23.04223633 139.80932617 C39.76324392 139.90466368 39.76324392 139.90466368 55.9609375 136.265625 C57.09789062 135.90082031 58.23484375 135.53601563 59.40625 135.16015625 C66.63695648 132.24046865 72.1867873 128.48193357 77.9609375 123.265625 C78.65960938 122.67136719 79.35828125 122.07710937 80.078125 121.46484375 C90.56248476 111.93917059 98.22989698 96.35712104 99.08569336 82.20214844 C99.43388263 72.17516526 99.25535061 62.84937224 95.9609375 53.265625 C95.69410156 52.42 95.42726563 51.574375 95.15234375 50.703125 C92.678649 43.6668377 88.54170894 38.09000432 83.9609375 32.265625 C83.00574219 30.99138672 83.00574219 30.99138672 82.03125 29.69140625 C72.19559196 18.16698428 55.85208277 11.25854589 40.95526123 10.01464844 C33.82586177 9.65036964 26.70015179 9.60924844 19.56274414 9.63427734 C15.7704935 9.64062993 11.98132347 9.59343882 8.18945312 9.54296875 C5.74479554 9.53842435 3.3001297 9.53701504 0.85546875 9.5390625 C-0.26047165 9.52064301 -1.37641205 9.50222351 -2.52616882 9.48324585 C-11.60339028 9.58874684 -19.47625593 12.14791134 -26.31486511 18.31942749 C-32.33500028 24.66639688 -34.51062213 30.91859465 -34.32861328 39.58422852 C-34.3243483 40.3851593 -34.32008331 41.18609009 -34.31568909 42.0112915 C-34.30543777 43.73877731 -34.28879249 45.46623483 -34.26636124 47.19360542 C-34.23394723 49.93065266 -34.22541046 52.66680816 -34.22409058 55.40403748 C-34.21849521 63.18179787 -34.18921211 70.95882416 -34.09765625 78.73608398 C-34.04323145 83.50377076 -34.03255582 88.26988223 -34.04980087 93.03782463 C-34.04785994 94.8499575 -34.02942031 96.66215234 -33.99399185 98.4739399 C-33.72374297 112.69341894 -33.72374297 112.69341894 -37.10931396 116.74020386 C-39.38750365 118.27751454 -41.44512288 119.37733914 -44.0390625 120.265625 C-44.1087543 108.96459701 -44.16197095 97.66362064 -44.19449902 86.36242104 C-44.2101155 81.11409507 -44.23128009 75.86591678 -44.26538086 70.61767578 C-44.29811794 65.54724055 -44.31594569 60.47694684 -44.32369423 55.40641403 C-44.32921206 53.47764231 -44.33998673 51.54887781 -44.35625267 49.62016678 C-44.48235672 34.03957237 -43.56381475 22.28489034 -32.30859375 10.4453125 C-22.83371422 1.81601719 -12.42473543 -0.04555128 0 0 Z " fill="#6392BD" transform="translate(325.0390625,412.734375)"/>
<path d="M0 0 C2.12711992 0.00852407 4.25156172 -0.02031283 6.37841797 -0.05200195 C7.74430259 -0.05361408 9.11019191 -0.0530362 10.47607422 -0.05004883 C12.31975586 -0.05282837 12.31975586 -0.05282837 14.20068359 -0.05566406 C19.4124444 0.70630011 22.47478623 3.16336769 25.94482422 7.00854492 C29.68690003 12.41376554 28.89112842 18.42602048 28.94482422 24.75854492 C28.97382812 25.88711914 29.00283203 27.01569336 29.03271484 28.1784668 C29.08176373 34.58877935 29.01510079 38.61292801 24.63232422 43.44604492 C17.90648068 49.8178967 10.69409314 49.83483121 1.88232422 49.88354492 C0.84849609 49.91641602 -0.18533203 49.94928711 -1.25048828 49.9831543 C-8.60665105 50.03411008 -14.38082551 48.90403039 -20.36767578 44.44604492 C-25.2532058 39.59898364 -26.02798098 34.34100567 -26.10009766 27.65112305 C-26.08527344 26.61407227 -26.07044922 25.57702148 -26.05517578 24.50854492 C-26.08289063 23.47536133 -26.11060547 22.44217773 -26.13916016 21.37768555 C-26.11854482 14.8673612 -24.96391996 10.63508465 -21.24194336 5.28369141 C-15.17328408 -0.66639305 -7.90844324 -0.04841158 0 0 Z " fill="#AC76DE" transform="translate(763.36767578125,489.553955078125)"/>
<path d="M0 0 C1.29269051 -0.00574036 1.29269051 -0.00574036 2.61149597 -0.01159668 C4.43119477 -0.01431257 6.25093281 -0.00697395 8.07055664 0.00976562 C10.83635028 0.03110251 13.59952326 0.00999484 16.36523438 -0.015625 C18.13932859 -0.01298013 19.91342119 -0.00785187 21.6875 0 C22.91446342 -0.01214539 22.91446342 -0.01214539 24.16621399 -0.02453613 C30.79482914 0.08205637 35.9378428 1.95963025 41.06640625 6.20703125 C46.09600564 12.29778889 47.47586669 18.13282023 47.296875 25.97265625 C46.67242079 32.26523327 44.69483301 38.1242207 40.04296875 42.53125 C32.36672304 48.6426917 24.25893467 48.12440215 14.98046875 47.84375 C13.52803342 47.81862136 12.07555595 47.79581628 10.62304688 47.77539062 C7.09546571 47.72078888 3.56949311 47.63477456 0.04296875 47.53125 C0.04296875 43.90125 0.04296875 40.27125 0.04296875 36.53125 C0.83469482 36.51666748 1.6264209 36.50208496 2.44213867 36.48706055 C6.03873418 36.41246644 9.63441318 36.31584167 13.23046875 36.21875 C15.09928711 36.18491211 15.09928711 36.18491211 17.00585938 36.15039062 C18.20791016 36.11494141 19.40996094 36.07949219 20.6484375 36.04296875 C22.30588989 36.00369263 22.30588989 36.00369263 23.99682617 35.96362305 C27.37911785 35.4835366 29.30732378 34.54615952 32.04296875 32.53125 C33.51066102 29.59586547 33.32966524 26.92347984 33.41796875 23.65625 C33.46695313 22.42132813 33.5159375 21.18640625 33.56640625 19.9140625 C33.35994133 16.4470893 33.35994133 16.4470893 30.96020508 14.34863281 C27.32777451 12.08569758 25.10271159 12.04253133 20.84375 12.0703125 C20.16749069 12.07122894 19.49123138 12.07214539 18.79447937 12.0730896 C17.37324959 12.07910432 15.95203123 12.09478637 14.53100586 12.11962891 C12.35157877 12.15631548 10.17384538 12.16064679 7.99414062 12.16015625 C0.91714958 11.64906621 0.91714958 11.64906621 -4.95703125 14.53125 C-5.2877255 16.75321327 -5.2877255 16.75321327 -5.27587891 19.34814453 C-5.2957486 20.34903107 -5.31561829 21.3499176 -5.33609009 22.38113403 C-5.3476413 23.46450043 -5.3591925 24.54786682 -5.37109375 25.6640625 C-5.3904599 26.77103485 -5.40982605 27.8780072 -5.42977905 29.01852417 C-5.48969879 32.56435369 -5.53600998 36.11021545 -5.58203125 39.65625 C-5.6201996 42.05600397 -5.65925064 44.45574408 -5.69921875 46.85546875 C-5.79541059 52.7472836 -5.87939582 58.63916259 -5.95703125 64.53125 C-9.91703125 64.53125 -13.87703125 64.53125 -17.95703125 64.53125 C-18.05619893 57.27217557 -18.1286428 50.01349894 -18.17675781 42.75390625 C-18.1968242 40.28638842 -18.22408369 37.81891785 -18.25878906 35.3515625 C-18.30752431 31.79675607 -18.33005064 28.24258056 -18.34765625 24.6875 C-18.36830139 23.59135376 -18.38894653 22.49520752 -18.41021729 21.36584473 C-18.41254362 13.35427165 -17.12110652 8.09493482 -11.7668457 2.06445312 C-7.80663763 -0.09647369 -4.44650188 -0.04369038 0 0 Z " fill="#8351CC" transform="translate(488.95703125,473.46875)"/>
<path d="M0 0 C3.96 0 7.92 0 12 0 C12.01981934 1.62010986 12.03963867 3.24021973 12.06005859 4.90942383 C12.13601369 10.90860795 12.2247467 16.90754631 12.31738281 22.90649414 C12.35571432 25.50507767 12.39055974 28.10371502 12.421875 30.70239258 C12.46743466 34.43330143 12.52544462 38.1638384 12.5859375 41.89453125 C12.59748871 43.06023148 12.60903992 44.2259317 12.62094116 45.42695618 C12.64081085 46.50785019 12.66068054 47.5887442 12.68115234 48.70239258 C12.69447601 49.65503494 12.70779968 50.60767731 12.7215271 51.58918762 C12.84459272 54.26041348 12.84459272 54.26041348 15 57 C17.48322259 57.46604974 17.48322259 57.46604974 20.375 57.3984375 C21.44234375 57.40230469 22.5096875 57.40617188 23.609375 57.41015625 C24.72828125 57.39855469 25.8471875 57.38695312 27 57.375 C28.11890625 57.38660156 29.2378125 57.39820313 30.390625 57.41015625 C31.99164062 57.40435547 31.99164062 57.40435547 33.625 57.3984375 C34.60726562 57.39505371 35.58953125 57.39166992 36.6015625 57.38818359 C37.39304687 57.26008301 38.18453125 57.13198242 39 57 C41.71382083 52.92926875 41.33127641 49.77671888 41.3125 45 C41.32861328 44.18015625 41.34472656 43.3603125 41.36132812 42.515625 C41.36197266 41.72671875 41.36261719 40.9378125 41.36328125 40.125 C41.36626221 39.40570313 41.36924316 38.68640625 41.37231445 37.9453125 C40.8788196 35.36684234 40.12772356 34.52075996 38 33 C35.68749164 32.49753325 35.68749164 32.49753325 33.11328125 32.48828125 C31.7065918 32.43510742 31.7065918 32.43510742 30.27148438 32.38085938 C29.29501953 32.35830078 28.31855469 32.33574219 27.3125 32.3125 C25.83040039 32.26125977 25.83040039 32.26125977 24.31835938 32.20898438 C21.87930601 32.12650431 19.43967061 32.06157567 17 32 C17 28.37 17 24.74 17 21 C21.16825046 20.83736595 25.330101 20.71875576 29.5 20.625 C30.67304687 20.57472656 31.84609375 20.52445312 33.0546875 20.47265625 C39.73685614 20.36003543 44.41325507 20.64722889 49.49584961 25.25292969 C54.43979699 30.99532337 54.49401158 37.18261771 54.4375 44.375 C54.4674707 45.71691406 54.4674707 45.71691406 54.49804688 47.0859375 C54.49343156 53.4366047 53.30278483 58.52635704 50 64 C43.84189534 70.00790698 37.05489758 69.31365242 28.96850586 69.4050293 C27.53987357 69.42654533 26.11137084 69.46057351 24.68334961 69.50756836 C10.46374633 69.97051686 10.46374633 69.97051686 4.48706055 64.98071289 C-0.70888925 58.05988861 -0.40198365 51.43623339 -0.29296875 43.06640625 C-0.28872391 41.83333237 -0.28447906 40.60025848 -0.28010559 39.32981873 C-0.26336737 35.40715326 -0.22572265 31.48500914 -0.1875 27.5625 C-0.17075097 24.89649189 -0.15875969 22.23048868 -0.14648438 19.56445312 C-0.11347951 13.04276911 -0.06172939 6.52147283 0 0 Z " fill="#B47BE4" transform="translate(802,469)"/>
<path d="M0 0 C0.9980365 -0.00218285 0.9980365 -0.00218285 2.01623535 -0.00440979 C3.41467698 -0.00275923 4.81313838 0.00870721 6.21142578 0.02954102 C8.33835896 0.0585203 10.46279737 0.0501301 12.58984375 0.03710938 C26.02937368 0.09849014 26.02937368 0.09849014 31.48828125 4.9609375 C36.55675048 11.35161609 36.05451878 16.98561896 36.09375 24.87109375 C36.114375 25.89976562 36.135 26.9284375 36.15625 27.98828125 C36.18502361 33.5703611 36.08460787 37.72250075 32.84375 42.49609375 C26.65946524 48.54294996 21.28017099 49.73824628 12.90039062 49.72070312 C11.95357422 49.70845703 11.00675781 49.69621094 10.03125 49.68359375 C9.06509766 49.68294922 8.09894531 49.68230469 7.10351562 49.68164062 C-0.01572998 49.63661377 -0.01572998 49.63661377 -1.15625 48.49609375 C-1.15625 44.86609375 -1.15625 41.23609375 -1.15625 37.49609375 C6.76375 37.16609375 14.68375 36.83609375 22.84375 36.49609375 C22.885 32.90734375 22.92625 29.31859375 22.96875 25.62109375 C22.98695801 24.49074707 23.00516602 23.36040039 23.02392578 22.19580078 C23.0289209 21.30747559 23.03391602 20.41915039 23.0390625 19.50390625 C23.04953613 18.5927002 23.06000977 17.68149414 23.07080078 16.74267578 C23.06245993 14.29318939 23.06245993 14.29318939 20.84375 12.49609375 C18.2221858 12.21782123 18.2221858 12.21782123 15.1796875 12.30078125 C13.49746094 12.31044922 13.49746094 12.31044922 11.78125 12.3203125 C10.605625 12.33707031 9.43 12.35382813 8.21875 12.37109375 C7.03539062 12.38011719 5.85203125 12.38914062 4.6328125 12.3984375 C1.70292477 12.42206563 -1.2265634 12.45500861 -4.15625 12.49609375 C-4.16655746 13.1453331 -4.17686493 13.79457245 -4.18748474 14.46348572 C-4.29531136 21.19508427 -4.40992781 27.92654245 -4.52856445 34.65795898 C-4.57199006 37.17322871 -4.61365929 39.68852938 -4.65356445 42.20385742 C-4.71108293 45.81047919 -4.77482967 49.41694406 -4.83984375 53.0234375 C-4.86491249 54.72185036 -4.86491249 54.72185036 -4.89048767 56.45457458 C-4.91043289 57.49557816 -4.93037811 58.53658173 -4.95092773 59.60913086 C-4.96647202 60.53068466 -4.9820163 61.45223846 -4.99803162 62.40171814 C-5.15625 64.49609375 -5.15625 64.49609375 -6.15625 65.49609375 C-8.00912502 65.56835877 -9.86458878 65.57990595 -11.71875 65.55859375 C-13.23662109 65.54505859 -13.23662109 65.54505859 -14.78515625 65.53125 C-15.56761719 65.51964844 -16.35007812 65.50804687 -17.15625 65.49609375 C-17.25787353 57.93395496 -17.32780978 50.37199305 -17.37597656 42.80932617 C-17.39606149 40.23797016 -17.42333479 37.66665966 -17.45800781 35.09545898 C-17.50666081 31.39425409 -17.52925083 27.69365442 -17.546875 23.9921875 C-17.57784271 22.27460487 -17.57784271 22.27460487 -17.60943604 20.52232361 C-17.61127329 13.95108824 -17.29300284 9.72117178 -13.15625 4.49609375 C-8.79325621 0.74992391 -5.68875903 -0.00857639 0 0 Z " fill="#8D5FCE" transform="translate(585.15625,489.50390625)"/>
<path d="M0 0 C2.23468062 -0.01716382 4.46786215 -0.06104241 6.70214844 -0.10522461 C8.13182509 -0.11535641 9.56151429 -0.12387099 10.99121094 -0.13061523 C12.93592285 -0.15248901 12.93592285 -0.15248901 14.91992188 -0.17480469 C19.66084959 0.44636914 22.79433728 2.37203918 25.96777344 5.93579102 C28.45016478 10.30649714 29.43713723 14.26003014 28.50683594 19.29516602 C26.89390137 24.53481737 24.80686407 27.84253105 19.82299805 30.51879883 C14.76269114 32.21499109 9.33991872 31.69468609 4.06933594 31.54516602 C2.86083984 31.52711914 1.65234375 31.50907227 0.40722656 31.49047852 C-2.56039591 31.44355958 -5.52636067 31.37792204 -8.49316406 31.29516602 C-8.49316406 27.99516602 -8.49316406 24.69516602 -8.49316406 21.29516602 C-6.92824219 21.23458008 -5.36332031 21.17399414 -3.75097656 21.11157227 C-1.70669587 21.02717536 0.33757445 20.94252693 2.38183594 20.85766602 C3.414375 20.81834961 4.44691406 20.7790332 5.51074219 20.73852539 C6.496875 20.69663086 7.48300781 20.65473633 8.49902344 20.61157227 C9.41022949 20.57491455 10.32143555 20.53825684 11.26025391 20.50048828 C13.54167075 20.42939537 13.54167075 20.42939537 15.50683594 19.29516602 C15.5493795 17.29561856 15.54764377 15.29474965 15.50683594 13.29516602 C13.76137989 11.54970997 11.34559376 12.16493442 8.97558594 12.16235352 C7.29529297 12.16041992 7.29529297 12.16041992 5.58105469 12.15844727 C3.81181641 12.16424805 3.81181641 12.16424805 2.00683594 12.17016602 C0.82734375 12.16629883 -0.35214844 12.16243164 -1.56738281 12.15844727 C-2.68757812 12.15973633 -3.80777344 12.16102539 -4.96191406 12.16235352 C-6.51555664 12.16404541 -6.51555664 12.16404541 -8.10058594 12.16577148 C-10.4461423 12.02551449 -10.4461423 12.02551449 -11.49316406 13.29516602 C-11.59232977 14.91774146 -11.62396183 16.54456433 -11.62597656 18.17016602 C-11.62726562 19.15500977 -11.62855469 20.13985352 -11.62988281 21.15454102 C-11.62601563 22.19094727 -11.62214844 23.22735352 -11.61816406 24.29516602 C-11.62203125 25.33157227 -11.62589844 26.36797852 -11.62988281 27.43579102 C-11.62794922 28.91305664 -11.62794922 28.91305664 -11.62597656 30.42016602 C-11.62484863 31.33024414 -11.6237207 32.24032227 -11.62255859 33.17797852 C-11.72876415 35.28045081 -11.72876415 35.28045081 -10.49316406 36.29516602 C-8.7144668 36.45281007 -6.9299793 36.54617279 -5.14550781 36.61157227 C-4.06591797 36.6534668 -2.98632812 36.69536133 -1.87402344 36.73852539 C-0.73771484 36.7778418 0.39859375 36.8171582 1.56933594 36.85766602 C2.70951172 36.90084961 3.8496875 36.9440332 5.02441406 36.98852539 C7.85173102 37.09499339 10.67926686 37.19561864 13.50683594 37.29516602 C13.50683594 40.92516602 13.50683594 44.55516602 13.50683594 48.29516602 C9.31863861 48.40340371 5.13325709 48.48261146 0.94433594 48.54516602 C-0.82780273 48.59543945 -0.82780273 48.59543945 -2.63574219 48.64672852 C-10.53234148 48.73520582 -15.09500351 48.3821729 -21.0012207 42.89379883 C-25.57051666 37.66946673 -25.17151969 31.92675259 -24.99316406 25.29516602 C-24.99703125 23.71348633 -24.99703125 23.71348633 -25.00097656 22.09985352 C-24.91717635 15.41259657 -24.5579197 9.77323475 -19.95800781 4.55297852 C-13.34196752 -0.35405904 -7.99267424 0.04277425 0 0 Z " fill="#9568CF" transform="translate(654.4931640625,489.704833984375)"/>
<path d="M0 0 C0.72680969 0.0028299 1.45361938 0.00565979 2.20245361 0.00857544 C4.51534751 0.01973727 6.82784888 0.04483399 9.140625 0.0703125 C10.71223398 0.08034749 12.28384904 0.08947244 13.85546875 0.09765625 C17.70067122 0.11966346 21.54558164 0.15416535 25.390625 0.1953125 C25.390625 3.8253125 25.390625 7.4553125 25.390625 11.1953125 C15.820625 11.5253125 6.250625 11.8553125 -3.609375 12.1953125 C-3.609375 13.5153125 -3.609375 14.8353125 -3.609375 16.1953125 C-2.62710938 16.20933105 -2.62710938 16.20933105 -1.625 16.22363281 C1.38093405 16.2777651 4.38538275 16.36132639 7.390625 16.4453125 C8.93556641 16.46658203 8.93556641 16.46658203 10.51171875 16.48828125 C18.40533406 16.73967027 24.2660831 17.99265705 29.890625 23.7578125 C32.04032988 28.68421951 32.36388912 32.90973966 31.390625 38.1953125 C29.16788806 43.14374146 26.76000252 45.59519315 21.7734375 47.78051758 C17.48256727 49.33623316 13.70010633 49.58809996 9.171875 49.48828125 C8.42852905 49.48403641 7.68518311 49.47979156 6.91931152 49.47541809 C4.57602642 49.45880331 2.23364423 49.42118704 -0.109375 49.3828125 C-1.71092496 49.36774328 -3.31248858 49.35405882 -4.9140625 49.34179688 C-8.81284083 49.30895676 -12.71095556 49.25729813 -16.609375 49.1953125 C-16.609375 45.2353125 -16.609375 41.2753125 -16.609375 37.1953125 C-15.07228882 37.15772827 -15.07228882 37.15772827 -13.50415039 37.11938477 C-9.71527824 37.02546766 -5.92659619 36.92520933 -2.13793945 36.82299805 C-0.49573197 36.77958953 1.14652239 36.73791892 2.78881836 36.69799805 C5.14451245 36.6404381 7.49996928 36.57670358 9.85546875 36.51171875 C10.59401596 36.49500626 11.33256317 36.47829376 12.0934906 36.46107483 C15.53363127 36.65983237 15.53363127 36.65983237 18.390625 35.1953125 C18.55729167 32.6953125 18.55729167 32.6953125 18.390625 30.1953125 C16.77826967 28.58295717 14.99012507 29.02959445 12.76171875 28.984375 C11.80845703 28.95601562 10.85519531 28.92765625 9.87304688 28.8984375 C7.87061243 28.84706009 5.8679867 28.80259076 3.86523438 28.765625 C-3.33489108 28.53414073 -9.77480907 28.02987843 -15.109375 22.6953125 C-17.21423495 17.78397262 -17.52432457 13.45822755 -16.609375 8.1953125 C-13.00837949 1.00755466 -7.40606629 -0.10902849 0 0 Z " fill="#B87DE5" transform="translate(881.609375,489.8046875)"/>
<path d="M0 0 C1.41338621 0.0200917 2.82679993 0.03833777 4.24023438 0.0546875 C7.68156683 0.09848183 11.12185575 0.16736097 14.5625 0.25 C14.5625 3.88 14.5625 7.51 14.5625 11.25 C13.39678467 11.279729 13.39678467 11.279729 12.20751953 11.31005859 C8.70049309 11.40507009 5.19408206 11.51484559 1.6875 11.625 C-0.14748047 11.67140625 -0.14748047 11.67140625 -2.01953125 11.71875 C-3.18613281 11.75742187 -4.35273437 11.79609375 -5.5546875 11.8359375 C-6.63347168 11.8673584 -7.71225586 11.8987793 -8.82373047 11.93115234 C-11.59511654 11.99676322 -11.59511654 11.99676322 -13.4375 14.25 C-13.68293141 16.89787789 -13.81099386 19.44903823 -13.8515625 22.1015625 C-13.87092865 22.87559418 -13.8902948 23.64962585 -13.9102478 24.44711304 C-13.9700983 26.92296275 -14.01645011 29.39885883 -14.0625 31.875 C-14.10067482 33.55210377 -14.13972625 35.22918784 -14.1796875 36.90625 C-14.27580409 41.02067353 -14.35981439 45.13518886 -14.4375 49.25 C-16.24992052 49.27687279 -18.06245233 49.29633715 -19.875 49.3125 C-20.88433594 49.32410156 -21.89367187 49.33570313 -22.93359375 49.34765625 C-25.4375 49.25 -25.4375 49.25 -26.4375 48.25 C-26.57587148 45.59288589 -26.65067062 42.96367568 -26.67578125 40.3046875 C-26.683853 39.5014505 -26.69192474 38.6982135 -26.70024109 37.87063599 C-26.71410297 36.16410492 -26.72481567 34.45754587 -26.73266602 32.75097656 C-26.74979304 30.15635298 -26.79364744 27.56303224 -26.83789062 24.96875 C-26.84802497 23.3099052 -26.85653875 21.65104955 -26.86328125 19.9921875 C-26.88078934 19.22212372 -26.89829742 18.45205994 -26.91633606 17.65866089 C-26.89414274 12.06770156 -25.62664396 8.8611338 -22.4375 4.25 C-15.99606627 -1.35124672 -8.06808849 -0.19960728 0 0 Z " fill="#A06FD6" transform="translate(717.4375,489.75)"/>
<path d="M0 0 C1.05960938 -0.00386719 2.11921875 -0.00773437 3.2109375 -0.01171875 C4.86996094 0.00568359 4.86996094 0.00568359 6.5625 0.0234375 C8.22152344 0.00603516 8.22152344 0.00603516 9.9140625 -0.01171875 C10.97367188 -0.00785156 12.03328125 -0.00398438 13.125 0 C14.58099609 0.00507568 14.58099609 0.00507568 16.06640625 0.01025391 C18.5625 0.3984375 18.5625 0.3984375 20.37744141 1.63818359 C21.88707003 3.88054503 21.94959229 5.26834075 21.9609375 7.9609375 C21.96673828 9.27964844 21.96673828 9.27964844 21.97265625 10.625 C21.96105469 11.54023437 21.94945312 12.45546875 21.9375 13.3984375 C21.94910156 14.31367187 21.96070313 15.22890625 21.97265625 16.171875 C21.96878906 17.05101562 21.96492187 17.93015625 21.9609375 18.8359375 C21.95755371 19.63902344 21.95416992 20.44210937 21.95068359 21.26953125 C21.5625 23.3984375 21.5625 23.3984375 20.37744141 25.15649414 C16.48585243 27.81946335 11.10917969 26.86508288 6.5625 26.8359375 C5.45648437 26.85591797 4.35046875 26.87589844 3.2109375 26.89648438 C1.62152344 26.89551758 1.62152344 26.89551758 0 26.89453125 C-0.97066406 26.89638428 -1.94132813 26.8982373 -2.94140625 26.90014648 C-5.4375 26.3984375 -5.4375 26.3984375 -7.25244141 24.64501953 C-8.54965548 22.18581806 -8.82357725 20.71837092 -8.8359375 17.95703125 C-8.84173828 16.71083008 -8.84173828 16.71083008 -8.84765625 15.43945312 C-8.83605469 14.58029297 -8.82445312 13.72113281 -8.8125 12.8359375 C-8.82410156 11.97291016 -8.83570313 11.10988281 -8.84765625 10.22070312 C-8.84378906 9.39119141 -8.83992187 8.56167969 -8.8359375 7.70703125 C-8.83255371 6.95220459 -8.82916992 6.19737793 -8.82568359 5.41967773 C-7.85904271 0.3864577 -4.59490356 0.01601809 0 0 Z " fill="#1F212A" transform="translate(758.4375,500.6015625)"/>
<path d="M0 0 C2.5 0.25 2.5 0.25 4.5 2.25 C4.75396729 4.83081055 4.75396729 4.83081055 4.75878906 8.13671875 C4.76509338 9.37139893 4.77139771 10.6060791 4.77789307 11.87817383 C4.77431338 13.231284 4.77021145 14.58439287 4.765625 15.9375 C4.76697175 17.31990629 4.76891236 18.70231213 4.77142334 20.0847168 C4.77437418 22.98328151 4.77007836 25.88172303 4.76074219 28.78027344 C4.74934755 32.49960637 4.75590725 36.21865068 4.76788712 39.93797302 C4.77510688 42.79295027 4.77281728 45.64785885 4.76763153 48.50283813 C4.76629535 49.87440017 4.76794166 51.24596839 4.77259064 52.61752319 C4.77765748 54.5327747 4.76856831 56.44804801 4.75878906 58.36328125 C4.75640228 59.99970581 4.75640228 59.99970581 4.75396729 61.66918945 C4.5 64.25 4.5 64.25 2.5 66.25 C0 66.5625 0 66.5625 -2.5 66.25 C-4.81448939 62.77826592 -4.7527036 61.4374375 -4.75878906 57.34155273 C-4.76509338 56.12696884 -4.77139771 54.91238495 -4.77789307 53.66099548 C-4.7738446 52.34845291 -4.76979614 51.03591034 -4.765625 49.68359375 C-4.7669722 48.32503693 -4.76891319 46.96648058 -4.77142334 45.60792542 C-4.77437105 42.76241459 -4.77008774 39.91702941 -4.76074219 37.0715332 C-4.74933687 33.42060845 -4.75591597 29.7699774 -4.76788712 26.11906338 C-4.77510606 23.31470008 -4.77281785 20.51040671 -4.76763153 17.70604134 C-4.76564529 15.70404495 -4.77172756 13.70204586 -4.77789307 11.70005798 C-4.77158875 10.48862625 -4.76528442 9.27719452 -4.75878906 8.02905273 C-4.75719788 6.95888412 -4.75560669 5.88871552 -4.75396729 4.78611755 C-4.40219404 1.27330957 -3.51981919 0.35198192 0 0 Z " fill="#7F70C2" transform="translate(266.5,488.75)"/>
<path d="M0 0 C3.63 0 7.26 0 11 0 C11 15.84 11 31.68 11 48 C7.37 48 3.74 48 0 48 C0 32.16 0 16.32 0 0 Z " fill="#8B5BD2" transform="translate(545,490)"/>
<path d="M0 0 C3.0625 0.1875 3.0625 0.1875 5.0625 2.1875 C5.31646729 4.31274414 5.31646729 4.31274414 5.32128906 6.97265625 C5.32759338 7.9670874 5.33389771 8.96151855 5.34039307 9.98608398 C5.3363446 11.06317627 5.33229614 12.14026855 5.328125 13.25 C5.33003845 14.352229 5.3319519 15.45445801 5.33392334 16.59008789 C5.33528612 18.92366768 5.33158322 21.25725503 5.32324219 23.59082031 C5.31254421 27.17269847 5.32313458 30.75407503 5.3359375 34.3359375 C5.33461592 36.59895945 5.33205357 38.86198108 5.328125 41.125 C5.33217346 42.20209229 5.33622192 43.27918457 5.34039307 44.38891602 C5.33408875 45.38334717 5.32778442 46.37777832 5.32128906 47.40234375 C5.31890228 48.71900024 5.31890228 48.71900024 5.31646729 50.06225586 C5.0625 52.1875 5.0625 52.1875 3.0625 54.1875 C0.5625 54.4375 0.5625 54.4375 -1.9375 54.1875 C-3.9375 52.1875 -3.9375 52.1875 -4.18473816 50.01756287 C-4.18331314 49.11901077 -4.18188812 48.22045868 -4.18041992 47.29467773 C-4.18349655 46.27699814 -4.18657318 45.25931854 -4.18974304 44.21080017 C-4.18255753 43.10869705 -4.17537201 42.00659393 -4.16796875 40.87109375 C-4.16751053 39.74429703 -4.16705231 38.61750031 -4.1665802 37.45655823 C-4.16355536 35.07169544 -4.15566221 32.68683467 -4.14331055 30.30200195 C-4.12505882 26.63681091 -4.12280077 22.97187235 -4.12304688 19.30664062 C-4.11813173 16.99478947 -4.11230342 14.68294003 -4.10546875 12.37109375 C-4.10435593 11.2669664 -4.1032431 10.16283905 -4.10209656 9.0252533 C-4.09571671 8.01072586 -4.08933685 6.99619843 -4.08276367 5.95092773 C-4.07704597 4.60429298 -4.07704597 4.60429298 -4.07121277 3.23045349 C-3.8572462 -0.03867143 -3.33307735 0.21274962 0 0 Z " fill="#54A7B4" transform="translate(359.9375,460.8125)"/>
<path d="M0 0 C2.375 0.8125 2.375 0.8125 3.375 2.8125 C3.47444657 4.25193886 3.51329252 5.69581871 3.52026367 7.13867188 C3.52664352 8.03299927 3.53302338 8.92732666 3.53959656 9.84875488 C3.54070938 10.81647827 3.5418222 11.78420166 3.54296875 12.78125 C3.54629715 13.77249878 3.54962555 14.76374756 3.55305481 15.78503418 C3.55812293 17.88321467 3.56046317 19.98140324 3.56030273 22.07958984 C3.56249102 25.29928768 3.58065295 28.518644 3.59960938 31.73828125 C3.60254288 33.77343632 3.60452796 35.80859303 3.60546875 37.84375 C3.61265427 38.81147339 3.61983978 39.77919678 3.62724304 40.77624512 C3.62416641 41.67057251 3.62108978 42.5648999 3.61791992 43.48632812 C3.61934494 44.27527466 3.62076996 45.06422119 3.62223816 45.8770752 C3.375 47.8125 3.375 47.8125 1.375 49.8125 C-1.125 50.125 -1.125 50.125 -3.625 49.8125 C-5.69641646 46.70537531 -5.87844525 46.00696518 -5.8996582 42.48046875 C-5.90919022 41.60946533 -5.91872223 40.73846191 -5.92854309 39.84106445 C-5.92763168 38.90351318 -5.92672028 37.96596191 -5.92578125 37 C-5.93006638 36.03473389 -5.9343515 35.06946777 -5.93876648 34.07495117 C-5.94450973 32.03402491 -5.94501008 29.99307817 -5.94067383 27.95214844 C-5.93751215 24.82451612 -5.9609792 21.69782795 -5.98632812 18.5703125 C-5.98860089 16.58854286 -5.98930472 14.60677068 -5.98828125 12.625 C-5.997491 11.68744873 -6.00670074 10.74989746 -6.01618958 9.78393555 C-6.00996078 8.91293213 -6.00373199 8.04192871 -5.99731445 7.14453125 C-5.99825859 5.99561401 -5.99825859 5.99561401 -5.9992218 4.82348633 C-5.31764311 1.16083112 -3.67598008 -0.26257001 0 0 Z " fill="#835DCA" transform="translate(229.625,470.1875)"/>
<path d="M0 0 C4.55555556 0.55555556 4.55555556 0.55555556 6 2 C6.08874135 5.10251201 6.11518455 8.1826812 6.09765625 11.28515625 C6.0962413 12.21597519 6.09482635 13.14679413 6.09336853 14.1058197 C6.08775172 17.09141191 6.0751964 20.07693029 6.0625 23.0625 C6.05748716 25.08137913 6.05292388 27.10025943 6.04882812 29.11914062 C6.03777683 34.07945572 6.02050095 39.03971532 6 44 C-0.875 47 -0.875 47 -2 47 C-2.0505963 40.62796407 -2.08568957 34.2559797 -2.10986328 27.88378906 C-2.11993789 25.71482406 -2.13359798 23.54587269 -2.15087891 21.37695312 C-2.17506323 18.26428874 -2.18646832 15.15180349 -2.1953125 12.0390625 C-2.20563507 11.065065 -2.21595764 10.0910675 -2.22659302 9.08755493 C-2.22674408 8.18677216 -2.22689514 7.28598938 -2.22705078 6.35791016 C-2.231492 5.56293121 -2.23593323 4.76795227 -2.24050903 3.94888306 C-2 2 -2 2 0 0 Z " fill="#708AC0" transform="translate(301,474)"/>
<path d="M0 0 C7.45236247 -0.0511043 14.904679 -0.0859018 22.35717773 -0.10986328 C24.88746835 -0.11986252 27.41774759 -0.13346629 29.94799805 -0.15087891 C33.60468369 -0.17539622 37.26121532 -0.18654424 40.91796875 -0.1953125 C42.03205612 -0.20563507 43.14614349 -0.21595764 44.29399109 -0.22659302 C54.90347459 -0.2280768 65.43891618 0.58638677 75.125 5.1875 C75.79748779 5.49719727 76.46997559 5.80689453 77.1628418 6.12597656 C96.92114895 15.44232633 110.36163882 30.45743773 118 51 C124.60279107 70.32913836 121.67358081 90.92396605 113 109 C108.03059805 118.31293463 108.03059805 118.31293463 104 121 C105.32447624 117.43848972 106.91894107 114.3403127 108.9375 111.125 C118.79412964 94.83285247 121.00568546 76.17827384 116.96484375 57.76171875 C113.13583027 42.83321679 105.81243013 29.13179983 94 19 C93.26265625 18.35546875 92.5253125 17.7109375 91.765625 17.046875 C88.35880568 14.52544375 84.80359119 12.72065403 81 10.875 C80.30132812 10.52824219 79.60265625 10.18148438 78.8828125 9.82421875 C67.63373648 4.28457943 57.7180344 2.70202688 45.21484375 2.5859375 C43.91801163 2.56657135 42.6211795 2.5472052 41.28504944 2.5272522 C37.86738991 2.47631887 34.4496914 2.43648797 31.03186035 2.39910889 C27.53221298 2.35882327 24.03272233 2.3078441 20.53320312 2.2578125 C13.68891711 2.16151398 6.84453003 2.0769646 0 2 C0 1.34 0 0.68 0 0 Z " fill="#52A2A7" transform="translate(313,413)"/>
<path d="M0 0 C1.65 0 3.3 0 5 0 C9.33763404 8.21052158 10.84117599 16.82094401 12.58154297 25.85498047 C13.08027647 28.41149885 13.63589456 30.95444304 14.1875 33.5 C14.85775508 36.85127539 15.22357141 40.15633759 15.5 43.5625 C16.22560833 52.31899378 17.80213088 62.63872144 23.3671875 69.74609375 C25.36595647 71.28103356 26.69379165 71.48309768 29.1875 71.6875 C30.445625 71.790625 31.70375 71.89375 33 72 C33 71.34 33 70.68 33 70 C33.66 70 34.32 70 35 70 C35.309375 68.865625 35.61875 67.73125 35.9375 66.5625 C37 63 37 63 38 62 C38.165 60.845 38.33 59.69 38.5 58.5 C39 55 39 55 40 54 C42.34922191 45.18328456 42.95472343 35.97673394 43.85546875 26.9296875 C43.97535156 25.80820312 44.09523437 24.68671875 44.21875 23.53125 C44.32123047 22.51611328 44.42371094 21.50097656 44.52929688 20.45507812 C45 18 45 18 47 16 C45.65489405 61.73360242 45.65489405 61.73360242 34 73 C31.09704195 74.45147903 29.22738221 74.37239025 26 74 C19.07440894 70.18385799 17.13503043 63.28858339 15 56 C13.64866856 50.29242887 12.8144823 44.48285479 11.9375 38.6875 C9.70547782 20.35218813 9.70547782 20.35218813 4 3 C3.01 2.67 2.02 2.34 1 2 C0.5875 3.2375 0.175 4.475 -0.25 5.75 C-0.52328125 6.56339844 -0.7965625 7.37679688 -1.078125 8.21484375 C-1.72896711 10.18115912 -2.36278808 12.15314784 -2.984375 14.12890625 C-3.31953125 15.17949219 -3.6546875 16.23007812 -4 17.3125 C-4.4640625 18.79169922 -4.4640625 18.79169922 -4.9375 20.30078125 C-5.980802 22.95122862 -7.18177087 24.82535664 -9 27 C-9 25.35 -9 23.7 -9 22 C-8.34 22 -7.68 22 -7 22 C-6.896875 21.236875 -6.79375 20.47375 -6.6875 19.6875 C-5.75866958 14.70559136 -4.37883557 9.87362005 -3 5 C-2.34 5 -1.68 5 -1 5 C-0.67 3.35 -0.34 1.7 0 0 Z " fill="#8054BA" transform="translate(168,479)"/>
<path d="M0 0 C2.375 0.75 2.375 0.75 3.375 1.75 C3.62535974 5.05516934 3.56021952 8.37396041 3.5625 11.6875 C3.57474609 12.62013672 3.58699219 13.55277344 3.59960938 14.51367188 C3.60250977 15.85075195 3.60250977 15.85075195 3.60546875 17.21484375 C3.60957764 18.035896 3.61368652 18.85694824 3.61791992 19.70288086 C3.375 21.75 3.375 21.75 1.375 23.75 C-1.92214793 23.42028521 -3.2476839 23.1273161 -5.625 20.75 C-6.06860072 17.79147891 -5.94912652 14.80051549 -5.9375 11.8125 C-5.95361328 10.98814453 -5.96972656 10.16378906 -5.98632812 9.31445312 C-5.98697266 8.52103516 -5.98761719 7.72761719 -5.98828125 6.91015625 C-5.99126221 6.18449463 -5.99424316 5.45883301 -5.99731445 4.71118164 C-5.3058923 1.0690871 -3.64721038 -0.34735337 0 0 Z " fill="#4BAAAF" transform="translate(378.625,476.25)"/>
<path d="M0 0 C0.66 0.33 1.32 0.66 2 1 C1.27683594 1.99580078 1.27683594 1.99580078 0.5390625 3.01171875 C-0.09257812 3.89472656 -0.72421875 4.77773438 -1.375 5.6875 C-2.31472656 6.99267578 -2.31472656 6.99267578 -3.2734375 8.32421875 C-7.61878883 15.0585302 -8.12627435 21.94494739 -8.31640625 29.8046875 C-8.33718735 30.5286673 -8.35796844 31.25264709 -8.37937927 31.99856567 C-8.44428853 34.29062239 -8.50348437 36.58278474 -8.5625 38.875 C-8.60574112 40.43751053 -8.64935711 42.00001072 -8.69335938 43.5625 C-8.79990896 47.37489426 -8.90133795 51.1873938 -9 55 C-11.97 55 -14.94 55 -18 55 C-18.04962457 50.12534043 -18.08582554 45.25082959 -18.10986328 40.37597656 C-18.11988957 38.71937497 -18.13351406 37.06279093 -18.15087891 35.40625 C-18.17527621 33.01818495 -18.18651694 30.63035492 -18.1953125 28.2421875 C-18.20563507 27.50757294 -18.21595764 26.77295837 -18.22659302 26.01608276 C-18.22754068 21.62303641 -17.62276337 18.08217637 -16 14 C-15.67 14 -15.34 14 -15 14 C-15 26.87 -15 39.74 -15 53 C-14.01 53 -13.02 53 -12 53 C-11.98541748 52.1843457 -11.97083496 51.36869141 -11.95581055 50.52832031 C-11.89399622 47.44153577 -11.81971522 44.35534781 -11.73754883 41.26904297 C-11.6887559 39.30066475 -11.65376562 37.33195966 -11.61914062 35.36328125 C-11.28564965 23.41824089 -9.98239421 10.36115616 -1.34375 1.25390625 C-0.9003125 0.84011719 -0.456875 0.42632812 0 0 Z " fill="#6F8FB9" transform="translate(334,461)"/>
<path d="M0 0 C4.55555556 0.55555556 4.55555556 0.55555556 6 2 C6.25035974 5.30516934 6.18521952 8.62396041 6.1875 11.9375 C6.19974609 12.87013672 6.21199219 13.80277344 6.22460938 14.76367188 C6.22750977 16.10075195 6.22750977 16.10075195 6.23046875 17.46484375 C6.23457764 18.285896 6.23868652 19.10694824 6.24291992 19.95288086 C6 22 6 22 4 24 C1.4375 24.1875 1.4375 24.1875 -1 24 C-3.35955511 21.64044489 -2.18542405 15.73247174 -2.1875 12.5625 C-2.19974609 11.58216797 -2.21199219 10.60183594 -2.22460938 9.59179688 C-2.22750977 8.18704102 -2.22750977 8.18704102 -2.23046875 6.75390625 C-2.23457764 5.89095947 -2.23868652 5.0280127 -2.24291992 4.13891602 C-2 2 -2 2 0 0 Z " fill="#5DA2B8" transform="translate(341,476)"/>
<path d="M0 0 C0.66 0.33 1.32 0.66 2 1 C1.21496094 1.68964844 0.42992187 2.37929688 -0.37890625 3.08984375 C-10.42296969 12.0191441 -20.12628823 20.90245236 -21.15869141 35.19726562 C-21.32612075 40.14002638 -21.21069626 45.06034318 -21 50 C-10.32351072 50.53881348 -3.02268898 49.02364438 5.46875 42.40234375 C7.12007435 41.05782565 7.12007435 41.05782565 8 39 C8.66 39 9.32 39 10 39 C10.66 37.68 11.32 36.36 12 35 C12.99 35.495 12.99 35.495 14 36 C8.01342526 43.58427797 1.5083947 49.45039355 -8 52 C-11.578125 52.265625 -11.578125 52.265625 -15.25 52.25 C-16.47203125 52.25515625 -17.6940625 52.2603125 -18.953125 52.265625 C-22 52 -22 52 -24 50 C-25.53008937 36.24698743 -22.38825638 23.1412304 -14 12 C-9.84161819 7.27590194 -5.67673411 2.86198076 0 0 Z " fill="#8065B4" transform="translate(305,558)"/>
<path d="M0 0 C0.33 0 0.66 0 1 0 C1.51101923 8.17630769 -0.95401046 14.51229916 -6 21 C-10.47353038 25.39884911 -12.90112969 26.62687351 -19.3671875 26.70703125 C-20.38656906 26.72971321 -20.38656906 26.72971321 -21.42654419 26.75285339 C-23.57637283 26.79550713 -25.72479161 26.80454519 -27.875 26.8125 C-29.34118273 26.83566219 -30.80733236 26.86103112 -32.2734375 26.88867188 C-35.8489321 26.9512989 -39.42395892 26.98381164 -43 27 C-43.66 28.32 -44.32 29.64 -45 31 C-40.74998034 31.09981078 -36.50060405 31.17190512 -32.24975586 31.21972656 C-30.80757748 31.23968751 -29.3654784 31.26686663 -27.92358398 31.30175781 C-18.28097631 31.52903591 -10.039405 31.42484342 -2.4375 24.75 C-1.963125 24.1725 -1.48875 23.595 -1 23 C-0.34 23.33 0.32 23.66 1 24 C-2.32785933 29.2088233 -6.16513188 31.3915697 -12 33 C-16.90457403 33.45444866 -21.74657771 33.49406772 -26.66821289 33.41162109 C-28.95698798 33.37468551 -31.24415853 33.37060542 -33.53320312 33.37109375 C-44.70421142 33.29578858 -44.70421142 33.29578858 -47 31 C-46.44444444 26.44444444 -46.44444444 26.44444444 -45 25 C-42.85258322 24.8778308 -40.70144512 24.82019222 -38.55078125 24.7890625 C-37.21418094 24.76097105 -35.87759258 24.73230646 -34.54101562 24.703125 C-32.4323794 24.66202384 -30.32396069 24.62514408 -28.21508789 24.59863281 C-26.18068037 24.57083316 -24.14729013 24.52494102 -22.11328125 24.4765625 C-20.89423096 24.45674316 -19.67518066 24.43692383 -18.41918945 24.41650391 C-13.58664757 23.8278344 -10.25911566 22.23902339 -6.796875 18.83203125 C-4.52860478 15.25704014 -3.40087885 11.73729067 -2.25 7.6875 C-1.91935547 6.57665039 -1.91935547 6.57665039 -1.58203125 5.44335938 C-1.04444146 3.63191553 -0.52078555 1.81634633 0 0 Z " fill="#8151BE" transform="translate(158,483)"/>
<path d="M0 0 C1.10131256 0.0028299 2.20262512 0.00565979 3.33731079 0.00857544 C6.84217358 0.01973772 10.34677742 0.04483539 13.8515625 0.0703125 C16.23306922 0.08034739 18.61457995 0.08947235 20.99609375 0.09765625 C26.82300447 0.11966413 32.64976498 0.15310251 38.4765625 0.1953125 C38.4765625 0.5253125 38.4765625 0.8553125 38.4765625 1.1953125 C37.65542717 1.20078094 37.65542717 1.20078094 36.81770325 1.20635986 C31.05717337 1.24856619 25.2974123 1.31817021 19.53735352 1.40283203 C17.3951796 1.43084693 15.25290606 1.45215707 13.1105957 1.46630859 C-8.65735905 1.35475828 -8.65735905 1.35475828 -27.5859375 11.1328125 C-33.74857597 17.69304054 -37.29230771 25.69296885 -38.6484375 34.5078125 C-38.81601562 35.57644531 -38.98359375 36.64507813 -39.15625 37.74609375 C-39.27742188 38.55433594 -39.39859375 39.36257813 -39.5234375 40.1953125 C-37.2134375 40.1953125 -34.9034375 40.1953125 -32.5234375 40.1953125 C-32.8534375 40.8553125 -33.1834375 41.5153125 -33.5234375 42.1953125 C-35.52298496 42.23785606 -37.52385386 42.23612033 -39.5234375 42.1953125 C-41.2091717 40.5095783 -40.69508207 38.4381925 -40.7109375 36.1328125 C-40.67840274 31.14848767 -39.96004058 26.9540602 -38.5234375 22.1953125 C-37.8634375 22.1953125 -37.2034375 22.1953125 -36.5234375 22.1953125 C-36.5234375 20.8753125 -36.5234375 19.5553125 -36.5234375 18.1953125 C-35.8634375 18.1953125 -35.2034375 18.1953125 -34.5234375 18.1953125 C-34.3378125 17.3290625 -34.1521875 16.4628125 -33.9609375 15.5703125 C-30.98692527 8.58784901 -24.32363791 4.99165659 -17.5234375 2.1953125 C-16.72800537 1.85161621 -15.93257324 1.50791992 -15.11303711 1.15380859 C-10.0500023 -0.19812466 -5.21689974 -0.05067351 0 0 Z " fill="#7A71B2" transform="translate(329.5234375,560.8046875)"/>
<path d="M0 0 C3.96 0 7.92 0 12 0 C12 3.63 12 7.26 12 11 C8.04 11 4.08 11 0 11 C0 7.37 0 3.74 0 0 Z " fill="#8358C5" transform="translate(545,469)"/>
<path d="M0 0 C0.33 0 0.66 0 1 0 C1.33362655 1.84707791 1.61498633 3.70363035 1.875 5.5625 C2.03742187 6.59503906 2.19984375 7.62757813 2.3671875 8.69140625 C1.92287566 12.69493955 1.02819248 14.72047849 -1.72705078 17.63696289 C-6.8230863 20.69294208 -13.13180944 19.69347353 -18.875 19.4375 C-20.24471215 19.4023501 -21.61451087 19.37041748 -22.984375 19.34179688 C-26.32512834 19.25945436 -29.66145156 19.1444778 -33 19 C-32.67 21.64 -32.34 24.28 -32 27 C-24.83795153 27.12638909 -17.71306605 26.94585181 -10.5625 26.5625 C-9.79373535 26.52326416 -9.0249707 26.48402832 -8.23291016 26.44360352 C-4.40209986 26.22499977 -0.74773222 25.88664043 3 25 C-1.68837755 28.59442279 -3.98656428 29.12200584 -9.9765625 29.09765625 C-10.66181 29.0962413 -11.3470575 29.09482635 -12.05307007 29.09336853 C-14.24375761 29.08776675 -16.4343433 29.07521406 -18.625 29.0625 C-20.10937352 29.05748522 -21.59374865 29.05292228 -23.078125 29.04882812 C-26.71878315 29.03779677 -30.35938164 29.02053099 -34 29 C-34 25.37 -34 21.74 -34 18 C-33.20827393 17.98541748 -32.41654785 17.97083496 -31.60083008 17.95581055 C-28.00423457 17.88121644 -24.40855557 17.78459167 -20.8125 17.6875 C-19.56662109 17.66494141 -18.32074219 17.64238281 -17.03710938 17.61914062 C-15.83505859 17.58369141 -14.63300781 17.54824219 -13.39453125 17.51171875 C-11.73707886 17.47244263 -11.73707886 17.47244263 -10.04614258 17.43237305 C-6.6638509 16.9522866 -4.73564497 16.01490952 -2 14 C-0.64908472 11.29816945 -0.66141942 8.88191794 -0.4375 5.875 C-0.35371094 4.77929688 -0.26992188 3.68359375 -0.18359375 2.5546875 C-0.09271484 1.29011719 -0.09271484 1.29011719 0 0 Z " fill="#8159BD" transform="translate(523,492)"/>
<path d="M0 0 C5.87290147 4.78532712 9.0229206 12.85209754 11 20 C11.37125 21.258125 11.7425 22.51625 12.125 23.8125 C15.29672034 38.8591413 12.85806101 55.31164341 6 69 C5.01 69.99 5.01 69.99 4 71 C4.54940365 65.91801628 6.21623278 61.50552201 8.0625 56.78125 C13.49743583 40.65760702 9.94135817 22.01206431 3 7 C2.02065076 5.32111559 1.03013277 3.64821244 0 2 C0 1.34 0 0.68 0 0 Z " fill="#4DB4AF" transform="translate(414,449)"/>
<path d="M0 0 C7.26 0 14.52 0 22 0 C22 0.66 22 1.32 22 2 C15.73 2 9.46 2 3 2 C3 4.64 3 7.28 3 10 C10.26 10 17.52 10 25 10 C21.76495642 12.15669572 20.87809037 12.24833577 17.1484375 12.23046875 C16.21515625 12.22853516 15.281875 12.22660156 14.3203125 12.22460938 C13.34835937 12.21236328 12.37640625 12.20011719 11.375 12.1875 C10.3953125 12.18685547 9.415625 12.18621094 8.40625 12.18554688 C1.14026024 12.14026024 1.14026024 12.14026024 0 11 C0 7.37 0 3.74 0 0 Z " fill="#7859A6" transform="translate(584,527)"/>
<path d="M0 0 C2.375 0.8125 2.375 0.8125 3.375 2.8125 C3.46449417 4.26287107 3.4925844 5.71728629 3.48852539 7.17041016 C3.48844986 8.07119293 3.48837433 8.97197571 3.48829651 9.90005493 C3.48313522 10.87405243 3.47797394 11.84804993 3.47265625 12.8515625 C3.4712413 13.84755463 3.46982635 14.84354675 3.46836853 15.86972046 C3.46275936 19.05901053 3.4502053 22.24823106 3.4375 25.4375 C3.43248618 27.59635315 3.42792307 29.75520741 3.42382812 31.9140625 C3.41278695 37.2135655 3.39603988 42.51302778 3.375 47.8125 C3.045 47.8125 2.715 47.8125 2.375 47.8125 C2.045 33.2925 1.715 18.7725 1.375 3.8125 C-0.275 3.4825 -1.925 3.1525 -3.625 2.8125 C-3.955 17.3325 -4.285 31.8525 -4.625 46.8125 C-4.955 46.8125 -5.285 46.8125 -5.625 46.8125 C-5.69908447 40.60118226 -5.75357114 34.39012095 -5.78979492 28.1784668 C-5.8048936 26.06481446 -5.82537426 23.95119352 -5.85131836 21.83764648 C-5.88765397 18.80184185 -5.90471544 15.76645094 -5.91796875 12.73046875 C-5.93345261 11.78350632 -5.94893646 10.83654388 -5.96488953 9.86088562 C-5.96511612 8.98019913 -5.96534271 8.09951263 -5.96557617 7.19213867 C-5.97223801 6.41714523 -5.97889984 5.64215179 -5.98576355 4.84367371 C-5.33224461 1.16422637 -3.68658528 -0.26332752 0 0 Z " fill="#6E589E" transform="translate(229.625,470.1875)"/>
<path d="M0 0 C1.14359347 2.70303912 1.04014402 3.88492047 0.0625 6.6875 C-4.77235049 14.4525629 -12.00760724 23.30372438 -21.31364441 25.56126404 C-23.98479096 25.99751606 -26.45306745 26.12037198 -29.1574707 26.11352539 C-30.15813065 26.11344986 -31.15879059 26.11337433 -32.18977356 26.11329651 C-33.2576561 26.10813522 -34.32553864 26.10297394 -35.42578125 26.09765625 C-36.52850876 26.0962413 -37.63123627 26.09482635 -38.76737976 26.09336853 C-42.28244767 26.08778004 -45.79745141 26.07522959 -49.3125 26.0625 C-51.69856679 26.05748352 -54.08463457 26.05292087 -56.47070312 26.04882812 C-62.3138239 26.03781437 -68.15690737 26.02108764 -74 26 C-74 25.67 -74 25.34 -74 25 C-73.40610977 24.99635437 -72.81221954 24.99270874 -72.20033264 24.98895264 C-65.98627407 24.94695197 -59.77294205 24.87748445 -53.55932617 24.79248047 C-51.24429614 24.76435681 -48.92917162 24.74309974 -46.61401367 24.72900391 C-43.27473882 24.70745556 -39.9365898 24.66074249 -36.59765625 24.609375 C-35.05961082 24.60753204 -35.05961082 24.60753204 -33.49049377 24.60565186 C-23.38508917 24.40239043 -15.44881635 20.81314056 -8 14 C-4.26506945 9.78971466 -2.02253616 5.21601431 0 0 Z " fill="#50788E" transform="translate(394,498)"/>
<path d="M0 0 C3.37058961 0.28507474 5.38525438 0.93543 7.8125 3.3125 C13.72305564 11.39025938 16.83742249 24.93763491 17.5625 34.8125 C17.1015625 37.109375 17.1015625 37.109375 16.5625 38.8125 C14.10907073 34.89120706 13.82149274 30.67145738 13.1875 26.1875 C11.38966318 14.24589573 11.38966318 14.24589573 5.125 4.1875 C2.1145936 2.57215998 0.90223904 1.9979295 -2.4375 2.8125 C-5.79196591 5.40347972 -8.08798528 7.76395584 -9.4375 11.8125 C-10.0975 11.8125 -10.7575 11.8125 -11.4375 11.8125 C-9.50176406 5.82931618 -6.73597031 0.54432083 0 0 Z " fill="#7B54B1" transform="translate(170.4375,471.1875)"/>
<path d="M0 0 C0.33 0 0.66 0 1 0 C1.1321403 4.75705095 0.73625452 8.8789416 -0.375 13.5 C-1.84274261 19.95945213 -2.78630645 26.35019881 -3.5703125 32.91796875 C-4 36 -4 36 -5 39 C-5.27073323 42.61407378 -5.44551729 46.22779264 -5.62109375 49.84765625 C-6 53 -6 53 -8 55 C-8.16193108 47.9810924 -7.74004133 41.20625747 -6.8125 34.25 C-6.68447998 33.271521 -6.55645996 32.29304199 -6.42456055 31.28491211 C-4.9543409 20.70761596 -2.57491061 10.35618351 0 0 Z " fill="#7B5FB3" transform="translate(215,447)"/>
<path d="M0 0 C0.33 0 0.66 0 1 0 C0.71799503 9.58816889 -0.31351915 18.91236749 -1.875 28.375 C-2.03645508 29.37208984 -2.19791016 30.36917969 -2.36425781 31.39648438 C-3.43673711 37.66476142 -4.55665129 44.09818411 -7 50 C-7.99 50.495 -7.99 50.495 -9 51 C-8.7834375 49.9790625 -8.7834375 49.9790625 -8.5625 48.9375 C-8.13799718 46.72065192 -7.79831018 44.48732633 -7.5 42.25 C-7 39 -7 39 -6 38 C-3.96471186 30.32653946 -3.27322413 22.37084101 -2.4375 14.5 C-2.18966554 12.17671081 -1.93853702 9.85376986 -1.68359375 7.53125 C-1.57587646 6.51611328 -1.46815918 5.50097656 -1.35717773 4.45507812 C-1 2 -1 2 0 0 Z " fill="#825CBB" transform="translate(214,495)"/>
<path d="M0 0 C1.30710937 -0.01836914 1.30710937 -0.01836914 2.640625 -0.03710938 C3.88972656 -0.04000977 3.88972656 -0.04000977 5.1640625 -0.04296875 C5.92412598 -0.04707764 6.68418945 -0.05118652 7.46728516 -0.05541992 C9.375 0.1875 9.375 0.1875 11.375 2.1875 C10.46878906 2.17589844 9.56257813 2.16429687 8.62890625 2.15234375 C4.87645218 2.12454779 1.12730123 2.1474541 -2.625 2.1875 C-3.83349609 2.17589844 -3.83349609 2.17589844 -5.06640625 2.1640625 C-14.83314472 2.57178213 -24.25752252 8.39315734 -31 15.125 C-32.22747919 16.46183643 -33.44388326 17.80953046 -34.625 19.1875 C-34.625 15.4982679 -33.94632293 15.02391539 -31.4375 12.4375 C-22.26028332 3.55579298 -12.38702446 0.00924405 0 0 Z " fill="#5D9DAE" transform="translate(360.625,442.8125)"/>
<path d="M0 0 C0.33 0 0.66 0 1 0 C1.20638953 29.34541547 1.20638953 29.34541547 0 41 C-0.66 41 -1.32 41 -2 41 C-2.04962457 36.12534043 -2.08582554 31.25082959 -2.10986328 26.37597656 C-2.11988957 24.71937497 -2.13351406 23.06279093 -2.15087891 21.40625 C-2.17527621 19.01818495 -2.18651694 16.63035492 -2.1953125 14.2421875 C-2.20563507 13.50757294 -2.21595764 12.77295837 -2.22659302 12.01608276 C-2.22754068 7.62303641 -1.62276337 4.08217637 0 0 Z " fill="#5C7AA0" transform="translate(318,475)"/>
<path d="M0 0 C1.3204831 3.96144931 0.15081019 6.57689841 -1.125 10.375 C-1.32609375 11.035 -1.5271875 11.695 -1.734375 12.375 C-3.26227767 16.99552495 -5.142931 19.85254014 -9 23 C-13.03483603 25.02336131 -16.34743637 25.23482435 -20.83203125 25.1953125 C-22.12431641 25.18886719 -23.41660156 25.18242187 -24.74804688 25.17578125 C-26.1028673 25.15907327 -27.45768501 25.14214342 -28.8125 25.125 C-30.18684251 25.11496003 -31.56119203 25.10583596 -32.93554688 25.09765625 C-36.29054317 25.07411242 -39.64518199 25.04122567 -43 25 C-43 24.67 -43 24.34 -43 24 C-42.25314941 23.97494385 -41.50629883 23.9498877 -40.73681641 23.92407227 C-37.36602733 23.80831787 -33.99553217 23.68549872 -30.625 23.5625 C-29.449375 23.52318359 -28.27375 23.48386719 -27.0625 23.44335938 C-25.94101563 23.40146484 -24.81953125 23.35957031 -23.6640625 23.31640625 C-22.62717285 23.27974854 -21.5902832 23.24309082 -20.52197266 23.20532227 C-18.00574834 23.15835777 -18.00574834 23.15835777 -16 22 C-14.00039988 21.960008 -11.99952758 21.95653201 -10 22 C-10 21.34 -10 20.68 -10 20 C-9.34 20 -8.68 20 -8 20 C-8 19.34 -8 18.68 -8 18 C-7.34 18 -6.68 18 -6 18 C-5.34 15.03 -4.68 12.06 -4 9 C-3.34 9 -2.68 9 -2 9 C-2.04125 7.88625 -2.0825 6.7725 -2.125 5.625 C-2 2 -2 2 0 0 Z " fill="#362451" transform="translate(157,483)"/>
<path d="M0 0 C5.3893909 -0.04976354 10.77864544 -0.08589047 16.16821289 -0.10986328 C17.99831475 -0.11986648 19.82840084 -0.13347335 21.65844727 -0.15087891 C24.30228588 -0.17537891 26.94591157 -0.18654013 29.58984375 -0.1953125 C30.39646957 -0.20563507 31.2030954 -0.21595764 32.03416443 -0.22659302 C40.39138587 -0.22821129 47.56269603 1.49351597 55.0625 5.125 C56.18785156 5.66382813 57.31320312 6.20265625 58.47265625 6.7578125 C59.72369141 7.37269531 59.72369141 7.37269531 61 8 C56.96075769 9.3464141 55.25116723 8.19909661 51.3125 6.6875 C43.18986542 3.58935851 35.9906542 1.71979809 27.34375 1.5859375 C26.55601196 1.56657135 25.76827393 1.5472052 24.95666504 1.5272522 C22.47121588 1.46806454 19.98571885 1.42131774 17.5 1.375 C15.80206452 1.33676405 14.10414727 1.29770916 12.40625 1.2578125 C8.2709836 1.1624142 4.13562662 1.07816258 0 1 C0 0.67 0 0.34 0 0 Z " fill="#5CABB8" transform="translate(333,421)"/>
<path d="M0 0 C4.30495015 -0.09935088 8.60928183 -0.17169268 12.91503906 -0.21972656 C14.37772252 -0.23976332 15.84032666 -0.26700104 17.30273438 -0.30175781 C19.4129601 -0.35063225 21.52212136 -0.37304659 23.6328125 -0.390625 C24.90012207 -0.41157227 26.16743164 -0.43251953 27.47314453 -0.45410156 C31.795663 0.10244588 33.60718469 1.36063627 37 4 C36.34 4.66 35.68 5.32 35 6 C34.49243164 5.51104248 33.98486328 5.02208496 33.46191406 4.51831055 C30.06984333 2.42635419 27.57560701 2.6598142 23.609375 2.70703125 C22.55245453 2.71339851 22.55245453 2.71339851 21.47418213 2.71989441 C19.23239288 2.73663462 16.99151569 2.77427596 14.75 2.8125 C13.22657552 2.82755296 11.70313689 2.8412403 10.1796875 2.85351562 C6.45283059 2.88652209 2.72650437 2.93827146 -1 3 C-0.67 2.01 -0.34 1.02 0 0 Z " fill="#7A55B1" transform="translate(486,483)"/>
<path d="M0 0 C0.66 0 1.32 0 2 0 C2.33773437 0.83144531 2.67546875 1.66289063 3.0234375 2.51953125 C3.46945313 3.60621094 3.91546875 4.69289063 4.375 5.8125 C4.81585938 6.89144531 5.25671875 7.97039063 5.7109375 9.08203125 C6.9479119 12.10730112 6.9479119 12.10730112 9 15 C9.99 15.33 10.98 15.66 12 16 C12 16.66 12 17.32 12 18 C17.91721322 16.89679076 21.12418915 15.90176078 25 11 C26.319018 8.33466965 26.319018 8.33466965 27 6 C27.66 6 28.32 6 29 6 C28.68033924 11.27440258 25.60963971 14.43823349 22 18 C18.5218655 19.73906725 14.80281157 19.44311022 11 19 C5.50361734 16.25180867 3.20193919 10.49637897 1 5 C0.6230185 3.34266061 0.27601834 1.67711143 0 0 Z " fill="#8166B6" transform="translate(250,565)"/>
<path d="M0 0 C-0.33 0.99 -0.66 1.98 -1 3 C-5.72617412 3.76262664 -10.24204713 4.11892423 -15.02734375 4.09765625 C-16.31318359 4.09443359 -17.59902344 4.09121094 -18.92382812 4.08789062 C-20.26171945 4.07953802 -21.59961007 4.07107311 -22.9375 4.0625 C-24.30273274 4.05747659 -25.66796726 4.05291517 -27.03320312 4.04882812 C-30.35551457 4.03708851 -33.67773408 4.02066679 -37 4 C-37 3.34 -37 2.68 -37 2 C-36.04633545 1.97494385 -35.0926709 1.9498877 -34.11010742 1.92407227 C-30.57090893 1.82987929 -27.03190125 1.72968769 -23.49291992 1.62768555 C-21.96138982 1.58438167 -20.42981285 1.54270333 -18.89819336 1.50268555 C-16.69630818 1.44487268 -14.49465789 1.38121031 -12.29296875 1.31640625 C-11.60849167 1.29969376 -10.92401459 1.28298126 -10.21879578 1.26576233 C-6.68298571 1.15564617 -3.43009489 0 0 0 Z " fill="#33234E" transform="translate(151,514)"/>
<path d="M0 0 C0.66 0 1.32 0 2 0 C2.2475 1.27875 2.495 2.5575 2.75 3.875 C4.94001694 14.00680898 4.94001694 14.00680898 11 22 C13.04100238 22.57017808 13.04100238 22.57017808 15.1875 22.6875 C16.445625 22.790625 17.70375 22.89375 19 23 C19 22.34 19 21.68 19 21 C19.66 21 20.32 21 21 21 C21.33 20.01 21.66 19.02 22 18 C22.66 18.33 23.32 18.66 24 19 C19.546875 24.7890625 19.546875 24.7890625 15.25 25.375 C11.8758898 24.98567959 9.96618826 24.25726895 7.453125 21.94921875 C2.89945319 15.84093317 0.52677369 7.55042295 0 0 Z " fill="#7B51B1" transform="translate(182,528)"/>
<path d="M0 0 C0.33 0 0.66 0 1 0 C1.33362655 1.84707791 1.61498633 3.70363035 1.875 5.5625 C2.03742187 6.59503906 2.19984375 7.62757813 2.3671875 8.69140625 C1.92365131 12.68795045 1.05659471 14.72349292 -1.69580078 17.63696289 C-6.8972315 20.71384229 -13.51718071 19.6895588 -19.375 19.4375 C-20.79289199 19.40235235 -22.21086753 19.37041934 -23.62890625 19.34179688 C-27.08768539 19.26501255 -30.54330845 19.14442559 -34 19 C-34 18.67 -34 18.34 -34 18 C-33.20827393 17.98541748 -32.41654785 17.97083496 -31.60083008 17.95581055 C-28.00423457 17.88121644 -24.40855557 17.78459167 -20.8125 17.6875 C-19.56662109 17.66494141 -18.32074219 17.64238281 -17.03710938 17.61914062 C-15.83505859 17.58369141 -14.63300781 17.54824219 -13.39453125 17.51171875 C-11.73707886 17.47244263 -11.73707886 17.47244263 -10.04614258 17.43237305 C-6.6638509 16.9522866 -4.73564497 16.01490952 -2 14 C-0.64908472 11.29816945 -0.66141942 8.88191794 -0.4375 5.875 C-0.35371094 4.77929688 -0.26992188 3.68359375 -0.18359375 2.5546875 C-0.09271484 1.29011719 -0.09271484 1.29011719 0 0 Z " fill="#7752A9" transform="translate(523,492)"/>
<path d="M0 0 C6.04173459 6.04173459 6.22368316 18.53099518 6.27685547 26.6315918 C6.23823442 30.75667074 6.15633122 34.8776659 6 39 C5.67 39 5.34 39 5 39 C4.96261719 38.01902344 4.92523438 37.03804688 4.88671875 36.02734375 C4.49755381 27.55877634 3.49916332 19.60589923 1.69921875 11.30859375 C0.90284849 7.54029426 0.3906578 3.8284464 0 0 Z " fill="#49A6A3" transform="translate(428,459)"/>
<path d="M0 0 C0.66 0 1.32 0 2 0 C4.23939377 8.39772662 3.22269325 16.05836307 0 24 C-0.90901939 20.95157135 -1.06173367 18.40338364 -0.87890625 15.234375 C-0.83056641 14.34492188 -0.78222656 13.45546875 -0.73242188 12.5390625 C-0.67634766 11.61867188 -0.62027344 10.69828125 -0.5625 9.75 C-0.48418945 8.34621094 -0.48418945 8.34621094 -0.40429688 6.9140625 C-0.27493175 4.60901113 -0.13997966 2.30442711 0 0 Z " fill="#7A54AF" transform="translate(533,487)"/>
<path d="M0 0 C0.87935211 0.00707474 1.75870422 0.01414948 2.66470337 0.0214386 C5.45704353 0.04929589 8.24733459 0.1120157 11.0390625 0.17578125 C12.938773 0.20087543 14.83851512 0.22368664 16.73828125 0.24414062 C21.38099074 0.29909388 26.02217993 0.38530433 30.6640625 0.48828125 C30.6640625 0.81828125 30.6640625 1.14828125 30.6640625 1.48828125 C29.50358398 1.49762695 28.34310547 1.50697266 27.14746094 1.51660156 C22.83831519 1.55650001 18.52988351 1.62225809 14.22119141 1.69580078 C12.35702697 1.72401131 10.4927429 1.74522546 8.62841797 1.75927734 C5.94696809 1.78070609 3.26695664 1.82735423 0.5859375 1.87890625 C-0.24649475 1.88013489 -1.078927 1.88136353 -1.93658447 1.88262939 C-6.80431524 1.99001379 -6.80431524 1.99001379 -10.89355469 4.52636719 C-11.36954102 5.17379883 -11.84552734 5.82123047 -12.3359375 6.48828125 C-13.3259375 6.15828125 -14.3159375 5.82828125 -15.3359375 5.48828125 C-10.3446085 0.38752424 -6.99718641 -0.21395251 0 0 Z " fill="#8059BC" transform="translate(489.3359375,473.51171875)"/>
<path d="M0 0 C0.33 0 0.66 0 1 0 C1.28068618 12.70884637 0.64838292 23.32814624 -5 35 C-5.66 35.66 -6.32 36.32 -7 37 C-6.57981377 33.11327741 -5.57180957 29.93786832 -4.0625 26.375 C-0.8518333 17.98056598 -0.6612946 8.88397092 0 0 Z " fill="#52A8AB" transform="translate(425,483)"/>
<path d="M0 0 C1.03688965 0.01047363 2.0737793 0.02094727 3.14208984 0.03173828 C4.26357422 0.03818359 5.38505859 0.04462891 6.54052734 0.05126953 C7.71615234 0.06802734 8.89177734 0.08478516 10.10302734 0.10205078 C11.87806641 0.11558594 11.87806641 0.11558594 13.68896484 0.12939453 C16.61885257 0.15302266 19.54834075 0.18596564 22.47802734 0.22705078 C22.47802734 0.55705078 22.47802734 0.88705078 22.47802734 1.22705078 C14.55802734 1.22705078 6.63802734 1.22705078 -1.52197266 1.22705078 C-2.45206156 4.01731748 -2.70896035 5.9923462 -2.83837891 8.89501953 C-2.88027344 9.78769531 -2.92216797 10.68037109 -2.96533203 11.60009766 C-3.00464844 12.52886719 -3.04396484 13.45763672 -3.08447266 14.41455078 C-3.12765625 15.35492187 -3.17083984 16.29529297 -3.21533203 17.26416016 C-3.3213593 19.58497932 -3.42342294 21.90590403 -3.52197266 24.22705078 C-3.85197266 24.22705078 -4.18197266 24.22705078 -4.52197266 24.22705078 C-4.57985049 20.60211744 -4.61552686 16.97730221 -4.64697266 13.35205078 C-4.66373047 12.31951172 -4.68048828 11.28697266 -4.69775391 10.22314453 C-4.70419922 9.23701172 -4.71064453 8.25087891 -4.71728516 7.23486328 C-4.72775879 6.32365723 -4.73823242 5.41245117 -4.74902344 4.47363281 C-4.40755846 1.09496534 -3.32721995 0.29954642 0 0 Z " fill="#201633" transform="translate(646.52197265625,500.77294921875)"/>
<path d="M0 0 C-0.33 2.31 -0.66 4.62 -1 7 C-1.33 7 -1.66 7 -2 7 C-2 5.35 -2 3.7 -2 2 C-5.06550592 2.98958997 -5.06550592 2.98958997 -8 5 C-8.74176007 8.52513528 -8.74176007 8.52513528 -9 12 C-9.99 12.66 -10.98 13.32 -12 14 C-11.77211278 12.03897046 -11.51694943 10.08109495 -11.25 8.125 C-11.11078125 7.03445313 -10.9715625 5.94390625 -10.828125 4.8203125 C-10 2 -10 2 -8.125 0.625 C-5.36226686 -0.18756857 -2.86228888 -0.13010404 0 0 Z " fill="#756EA9" transform="translate(326,570)"/>
<path d="M0 0 C0.33 0 0.66 0 1 0 C1.578098 9.24956807 -1.88525369 15.68511935 -7.5 22.9375 C-9 24 -9 24 -11.1875 23.6875 C-11.785625 23.460625 -12.38375 23.23375 -13 23 C-12.236875 22.5875 -11.47375 22.175 -10.6875 21.75 C-5.28541184 18.2323612 -4.0429741 13.66811686 -2.3125 7.75 C-2.08755859 7.00492187 -1.86261719 6.25984375 -1.63085938 5.4921875 C-1.07995041 3.6636386 -0.53897854 1.83210095 0 0 Z " fill="#7A4DB0" transform="translate(158,483)"/>
<path d="M0 0 C1.20970459 0.00523682 2.41940918 0.01047363 3.66577148 0.01586914 C4.97094727 0.0190918 6.27612305 0.02231445 7.62084961 0.02563477 C9.00952213 0.03399138 10.39819401 0.04245634 11.78686523 0.05102539 C13.17944179 0.05603873 14.57202005 0.06060193 15.96459961 0.06469727 C19.38456394 0.07653105 22.80444367 0.09301659 26.22436523 0.11352539 C26.22436523 0.44352539 26.22436523 0.77352539 26.22436523 1.11352539 C16.98436523 1.44352539 7.74436523 1.77352539 -1.77563477 2.11352539 C-2.10563477 3.10352539 -2.43563477 4.09352539 -2.77563477 5.11352539 C-3.33813477 3.17602539 -3.33813477 3.17602539 -3.77563477 1.11352539 C-2.77563477 0.11352539 -2.77563477 0.11352539 0 0 Z " fill="#2C1A3D" transform="translate(880.775634765625,500.886474609375)"/>
<path d="M0 0 C-1.15173355 2.46800047 -2.04783565 4.04783565 -4 6 C-4.98104866 10.63768456 -5.01493341 14.37641448 -4 19 C-4.66 19 -5.32 19 -6 19 C-7.98160111 15.03679778 -7.55747013 10.30827463 -7 6 C-5.47599513 3.00316953 -3.65903063 0 0 0 Z " fill="#B381DB" transform="translate(872,492)"/>
<path d="M0 0 C9.54211085 0.03438599 16.60456104 2.572083 25 7 C20.96075769 8.3464141 19.25116723 7.19909661 15.3125 5.6875 C10.25405716 3.78715193 5.28027156 2.16165974 0 1 C0 0.67 0 0.34 0 0 Z " fill="#4EA4A5" transform="translate(369,422)"/>
<path d="M0 0 C0.66 0.33 1.32 0.66 2 1 C1.27683594 1.99580078 1.27683594 1.99580078 0.5390625 3.01171875 C-0.09257812 3.89472656 -0.72421875 4.77773438 -1.375 5.6875 C-2.00148438 6.55761719 -2.62796875 7.42773438 -3.2734375 8.32421875 C-6.13177886 12.75400118 -7.27478624 16.80263472 -8 22 C-8.33 22 -8.66 22 -9 22 C-9.49229431 12.48230992 -5.73093919 7.30741114 0 0 Z " fill="#6891AF" transform="translate(334,461)"/>
<path d="M0 0 C0 0.66 0 1.32 0 2 C-5.41176471 6 -5.41176471 6 -8 6 C-8.2475 6.556875 -8.495 7.11375 -8.75 7.6875 C-10.21606015 10.39971127 -12.02989471 12.63587365 -14 15 C-14.66 14.67 -15.32 14.34 -16 14 C-6.61928934 0 -6.61928934 0 0 0 Z " fill="#26223D" transform="translate(311,566)"/>
<path d="M0 0 C0.66 0.33 1.32 0.66 2 1 C0.07063642 2.842617 -1.86755967 4.67395452 -3.8125 6.5 C-4.63331055 7.28697266 -4.63331055 7.28697266 -5.47070312 8.08984375 C-9.66015625 12 -9.66015625 12 -13 12 C-9.12207712 7.07091854 -5.23883167 3.4576289 0 0 Z " fill="#8170B9" transform="translate(305,558)"/>
<path d="M0 0 C0.66 0 1.32 0 2 0 C1.731875 0.78375 1.46375 1.5675 1.1875 2.375 C-0.03461307 6.10566096 -1.13728138 9.85942743 -2.21875 13.6328125 C-2.96463256 15.89283665 -3.87968794 17.90424383 -5 20 C-4.76896131 12.31796353 -4.57118142 6.340671 0 0 Z " fill="#7B6BB3" transform="translate(225,443)"/>
<path d="M0 0 C0.75 1.625 0.75 1.625 1 4 C-1.55770462 8.80848468 -4.77058805 11.73181804 -9 15 C-9.66 14.34 -10.32 13.68 -11 13 C-10.40574219 12.7628125 -9.81148437 12.525625 -9.19921875 12.28125 C-6.51828605 10.71935671 -5.46128279 9.11092597 -3.8125 6.5 C-3.30332031 5.7059375 -2.79414063 4.911875 -2.26953125 4.09375 C-0.98928016 2.0463379 -0.98928016 2.0463379 0 0 Z " fill="#2A1E41" transform="translate(162,500)"/>
<path d="M0 0 C2.93447357 2.93447357 2.46158423 6.18259456 2.625 10.125 C2.66367188 10.87910156 2.70234375 11.63320313 2.7421875 12.41015625 C2.83651031 14.27303184 2.91934662 16.13648255 3 18 C2.67 18 2.34 18 2 18 C2 16.35 2 14.7 2 13 C1.34 13 0.68 13 0 13 C0 8.71 0 4.42 0 0 Z " fill="#7667AC" transform="translate(249,501)"/>
<path d="M0 0 C0.33 0 0.66 0 1 0 C0.85761163 2.04190981 0.71092972 4.08352045 0.5625 6.125 C0.48128906 7.26195312 0.40007812 8.39890625 0.31640625 9.5703125 C0.02269035 12.7540478 -0.43124313 15.85510907 -1 19 C-1.33 19 -1.66 19 -2 19 C-2.05411124 16.58303128 -2.09372278 14.16728213 -2.125 11.75 C-2.14175781 11.06808594 -2.15851563 10.38617188 -2.17578125 9.68359375 C-2.21213482 5.9391765 -2.07944349 3.17647273 0 0 Z " fill="#8162BA" transform="translate(217,476)"/>
<path d="M0 0 C0.66 0.33 1.32 0.66 2 1 C-1.63 4.63 -5.26 8.26 -9 12 C-9.66 11.67 -10.32 11.34 -11 11 C-9.73347137 9.53792657 -8.46161082 8.08047074 -7.1875 6.625 C-6.47980469 5.81289063 -5.77210938 5.00078125 -5.04296875 4.1640625 C-3 2 -3 2 0 0 Z " fill="#6889AE" transform="translate(298,419)"/>
<path d="M0 0 C0.66 0.66 1.32 1.32 2 2 C0.2633385 3.53604715 -1.48982755 5.05345163 -3.25 6.5625 C-4.22453125 7.40941406 -5.1990625 8.25632812 -6.203125 9.12890625 C-9 11 -9 11 -11.359375 10.77734375 C-11.90078125 10.52082031 -12.4421875 10.26429688 -13 10 C-12.39671875 9.61328125 -11.7934375 9.2265625 -11.171875 8.828125 C-5.17198187 4.92383803 -5.17198187 4.92383803 0 0 Z " fill="#7B66B0" transform="translate(310,590)"/>
<path d="M0 0 C0.96661363 3.12180401 0.98988909 5.52083795 0.5625 8.75 C0.40974609 9.94882812 0.40974609 9.94882812 0.25390625 11.171875 C0.12822266 12.07679688 0.12822266 12.07679688 0 13 C1.65 13.33 3.3 13.66 5 14 C5 14.33 5 14.66 5 15 C2.69 15 0.38 15 -2 15 C-1.85879286 13.06215735 -1.71187127 11.12473045 -1.5625 9.1875 C-1.48128906 8.10855469 -1.40007812 7.02960937 -1.31640625 5.91796875 C-1 3 -1 3 0 0 Z " fill="#30264A" transform="translate(292,586)"/>
<path d="M0 0 C1.22077078 2.88545821 1.01784488 3.95340503 -0.125 6.9375 C-2.08524296 10.13923018 -4.24383186 12.46730495 -7 15 C-7.66 14.67 -8.32 14.34 -9 14 C-8.60167969 13.57589844 -8.20335937 13.15179687 -7.79296875 12.71484375 C-4.14137539 8.67232555 -1.87842746 5.11349698 0 0 Z " fill="#25223C" transform="translate(322,586)"/>
<path d="M0 0 C0.33 0 0.66 0 1 0 C1.36539443 4.28577219 0.48423598 6.34492062 -2 9.8125 C-2.556875 10.60269531 -3.11375 11.39289062 -3.6875 12.20703125 C-4.120625 12.79871094 -4.55375 13.39039063 -5 14 C-5.99 13.67 -6.98 13.34 -8 13 C-7.236875 12.154375 -6.47375 11.30875 -5.6875 10.4375 C-2.9508582 7.17996332 -1.50585211 3.96276872 0 0 Z " fill="#27213C" transform="translate(280,569)"/>
<path d="M0 0 C0 3 0 3 -1.75 5.04296875 C-2.4925 5.75066406 -3.235 6.45835937 -4 7.1875 C-4.7425 7.90292969 -5.485 8.61835938 -6.25 9.35546875 C-7.11625 10.16951172 -7.11625 10.16951172 -8 11 C-8.66 10.67 -9.32 10.34 -10 10 C-3.84965831 2.51708428 -3.84965831 2.51708428 0 0 Z " fill="#1A2D38" transform="translate(341,457)"/>
<path d="M0 0 C0.33 0 0.66 0 1 0 C1.0810206 2.10353495 1.13919907 4.20795952 1.1875 6.3125 C1.22230469 7.48425781 1.25710937 8.65601563 1.29296875 9.86328125 C1 13 1 13 -2 16 C-1.34 10.72 -0.68 5.44 0 0 Z " fill="#2D2245" transform="translate(212,519)"/>
<path d="M0 0 C2.64 0.33 5.28 0.66 8 1 C8 1.66 8 2.32 8 3 C8.66 3 9.32 3 10 3 C10 3.66 10 4.32 10 5 C10.99 5.33 11.98 5.66 13 6 C12.34 6.66 11.68 7.32 11 8 C10.113125 7.21625 9.22625 6.4325 8.3125 5.625 C5.69279481 3.42843009 3.28284399 2.06209659 0 1 C0 0.67 0 0.34 0 0 Z " fill="#2E2247" transform="translate(520,474)"/>
<path d="M0 0 C0 3.56229451 -0.76109009 4.41109679 -2.875 7.1875 C-3.40867187 7.90292969 -3.94234375 8.61835937 -4.4921875 9.35546875 C-4.98976563 9.89816406 -5.48734375 10.44085937 -6 11 C-6.66 11 -7.32 11 -8 11 C-6.52670958 5.99081256 -3.72484762 3.48192278 0 0 Z " fill="#272841" transform="translate(296,541)"/>
<path d="M0 0 C0.6875 1.625 0.6875 1.625 1 4 C-0.47640245 7.61718599 -2.01906878 10.4449161 -5 13 C-5.66 12.67 -6.32 12.34 -7 12 C-6.401875 11.319375 -5.80375 10.63875 -5.1875 9.9375 C-2.76412357 6.68325166 -1.4747599 3.76063775 0 0 Z " fill="#529DA7" transform="translate(394,498)"/>
<path d="M0 0 C0.71484375 1.734375 0.71484375 1.734375 1 4 C-0.43359375 6.140625 -0.43359375 6.140625 -2.4375 8.25 C-3.09621094 8.95640625 -3.75492187 9.6628125 -4.43359375 10.390625 C-5.20896484 11.18726563 -5.20896484 11.18726563 -6 12 C-6.66 11.67 -7.32 11.34 -8 11 C-7.50628906 10.37351562 -7.01257813 9.74703125 -6.50390625 9.1015625 C-5.54291016 7.87566406 -5.54291016 7.87566406 -4.5625 6.625 C-3.92441406 5.81289063 -3.28632813 5.00078125 -2.62890625 4.1640625 C-0.97776453 2.10601894 -0.97776453 2.10601894 0 0 Z " fill="#53A0AB" transform="translate(416,520)"/>
<path d="M0 0 C1.07156762 4.28627048 1.0365854 4.66075382 -0.9375 8.25 C-1.31777344 8.95640625 -1.69804687 9.6628125 -2.08984375 10.390625 C-2.39019531 10.92171875 -2.69054687 11.4528125 -3 12 C-3.66 11.34 -4.32 10.68 -5 10 C-3.35 6.7 -1.7 3.4 0 0 Z " fill="#7A64AC" transform="translate(273,563)"/>
<path d="M0 0 C2.44839588 3.67259383 4 6.54648201 4 11 C2.29159719 9.36587557 1.06546953 8.13093906 0 6 C-0.039992 4.00039988 -0.04346799 1.99952758 0 0 Z " fill="#B281DB" transform="translate(803,522)"/>
<path d="M0 0 C0.33 0 0.66 0 1 0 C0.67 3.63 0.34 7.26 0 11 C-0.66 10.67 -1.32 10.34 -2 10 C-2.22036864 6.14354879 -1.60355101 3.50776784 0 0 Z " fill="#7E67B9" transform="translate(219,463)"/>
<path d="M0 0 C0.33 0 0.66 0 1 0 C1.36923077 6.52307692 1.36923077 6.52307692 -0.5 8.9375 C-0.995 9.288125 -1.49 9.63875 -2 10 C-1.54177532 6.53058454 -1.10868317 3.32604951 0 0 Z " fill="#785CA7" transform="translate(284,582)"/>
<path d="M0 0 C1.9451 2.91765 2.45276317 4.62537285 3 8 C3.66 8 4.32 8 5 8 C4.67 8.99 4.34 9.98 4 11 C2 10 2 10 0.875 7.1875 C0 4 0 4 0 0 Z " fill="#2A1A43" transform="translate(193,533)"/>
</svg>
