<svg id="svg" version="1.1" width="400" height="400" viewBox="0 0 400 400" xmlns="http://www.w3.org/2000/svg" xmlns:xlink="http://www.w3.org/1999/xlink"><g id="svgg"><path id="path0" d="M0.000 200.000 L 0.000 400.000 200.000 400.000 L 400.000 400.000 400.000 200.000 L 400.000 0.000 200.000 0.000 L 0.000 0.000 0.000 200.000 M146.557 161.895 C 173.222 167.546,178.054 203.814,153.823 216.425 C 148.848 219.015,146.063 219.529,136.949 219.543 C 120.276 219.569,114.832 222.598,113.806 232.420 L 113.551 234.854 114.881 234.576 C 119.047 233.706,122.453 229.832,123.237 225.073 C 123.789 221.724,127.590 221.473,127.198 224.812 C 126.272 232.687,120.013 238.672,112.703 238.672 C 110.039 238.672,109.764 238.307,109.775 234.785 C 109.804 225.737,115.356 218.303,123.482 216.430 C 124.424 216.212,128.535 216.027,132.617 216.018 C 147.031 215.986,151.583 214.755,157.669 209.243 C 172.276 196.013,166.310 170.836,147.423 166.006 C 143.352 164.965,123.553 164.843,120.623 165.842 C 118.129 166.691,115.863 168.772,114.575 171.397 L 113.477 173.633 113.356 189.700 L 113.234 205.766 111.718 206.985 C 110.884 207.655,110.097 208.203,109.969 208.203 C 109.841 208.203,109.787 200.073,109.849 190.137 L 109.961 172.070 111.061 169.922 C 113.040 166.056,116.795 162.909,120.676 161.862 C 123.343 161.143,143.126 161.168,146.557 161.895 M91.095 169.944 C 94.664 171.588,96.118 177.419,98.227 198.557 C 100.936 225.720,102.830 229.873,107.284 218.419 C 109.081 213.797,111.161 210.676,113.771 208.686 C 118.578 205.020,120.294 204.644,133.594 204.344 C 147.227 204.036,149.860 202.973,153.045 196.487 C 159.811 182.711,141.518 169.714,131.075 180.878 C 127.868 184.307,127.559 185.404,127.411 193.872 C 127.320 199.048,127.147 201.262,126.825 201.361 C 126.573 201.438,125.708 201.611,124.902 201.745 L 123.438 201.989 123.438 195.349 C 123.438 181.562,128.111 174.604,138.452 172.994 C 157.256 170.067,165.821 197.444,148.799 206.069 C 145.300 207.843,144.741 207.920,133.398 208.199 C 116.894 208.606,114.490 209.911,110.366 220.703 C 107.999 226.896,106.027 228.927,102.939 228.348 C 98.364 227.490,96.524 221.116,94.530 199.219 C 91.576 166.784,88.265 164.611,84.572 192.683 C 81.928 212.785,80.824 216.113,76.796 216.113 C 73.291 216.113,72.206 213.326,69.322 196.900 C 67.588 187.025,66.608 186.059,64.641 192.286 C 62.031 200.547,59.888 201.953,49.905 201.953 C 43.869 201.953,43.359 201.799,43.359 199.970 C 43.359 198.276,43.963 198.111,50.659 197.977 C 58.682 197.817,58.847 197.705,61.087 190.848 C 63.150 184.532,66.039 182.411,69.089 184.977 C 71.036 186.616,72.004 189.975,74.397 203.406 C 76.607 215.806,77.956 214.172,80.274 196.289 C 83.340 172.627,85.500 167.369,91.095 169.944 M141.823 180.092 C 142.539 180.475,142.578 181.009,142.578 190.434 L 142.578 200.373 141.628 200.995 C 139.012 202.709,138.586 201.023,138.746 189.610 C 138.886 179.637,139.194 178.685,141.823 180.092 M217.578 185.566 L 217.578 187.928 215.137 187.812 L 212.695 187.695 212.573 185.990 C 212.386 183.381,212.554 183.203,215.222 183.203 L 217.578 183.203 217.578 185.566 M317.969 193.385 C 317.969 206.469,317.677 205.844,323.797 205.853 C 329.225 205.861,329.297 205.795,329.297 200.769 C 329.297 195.921,329.317 195.939,323.769 195.766 L 319.531 195.634 319.531 193.286 L 319.531 190.939 324.736 191.075 C 332.898 191.288,334.375 192.785,334.375 200.843 C 334.375 209.148,332.631 210.679,323.408 210.477 C 313.456 210.258,313.281 209.980,313.281 194.375 L 313.281 183.203 315.625 183.203 L 317.969 183.203 317.969 193.385 M90.914 184.766 C 91.820 186.523,91.422 202.254,90.453 202.962 C 89.474 203.677,88.873 203.661,88.114 202.902 C 87.179 201.967,87.198 185.124,88.135 184.187 C 89.004 183.317,90.307 183.589,90.914 184.766 M204.538 185.704 C 211.168 188.791,211.162 199.323,204.529 202.850 C 203.123 203.597,202.187 203.717,196.777 203.837 L 190.625 203.975 190.625 201.597 L 190.625 199.219 192.285 199.187 C 193.198 199.170,194.824 199.111,195.898 199.056 C 196.973 199.001,198.788 198.927,199.932 198.892 C 204.639 198.747,206.390 191.786,202.163 190.020 C 200.581 189.359,191.680 189.220,190.071 189.832 L 189.076 190.210 188.971 200.281 L 188.867 210.352 186.523 210.352 L 184.180 210.352 184.076 199.869 C 183.958 188.016,184.103 187.319,187.054 185.608 C 189.329 184.289,201.644 184.356,204.538 185.704 M119.908 185.912 C 120.148 186.361,120.313 189.853,120.313 194.515 L 120.313 202.363 119.319 202.741 C 118.772 202.949,117.893 203.227,117.366 203.360 L 116.406 203.600 116.406 195.134 C 116.406 185.901,116.552 185.156,118.359 185.156 C 119.091 185.156,119.650 185.429,119.908 185.912 M135.078 186.406 C 136.105 187.434,135.686 194.875,134.572 195.383 C 132.724 196.225,132.031 195.010,132.031 190.929 C 132.031 186.384,133.249 184.577,135.078 186.406 M148.601 186.175 C 149.387 186.476,149.517 194.076,148.750 194.844 C 146.956 196.638,145.703 195.021,145.703 190.912 C 145.703 186.329,146.330 185.303,148.601 186.175 M105.050 191.000 C 105.817 191.411,106.655 211.703,106.040 214.981 C 105.679 216.906,104.306 217.670,103.127 216.603 C 102.049 215.628,101.894 192.303,102.958 191.239 C 103.669 190.528,104.079 190.481,105.050 191.000 M217.383 200.781 L 217.383 210.352 215.039 210.352 L 212.695 210.352 212.590 201.180 C 212.465 190.223,212.283 190.945,215.132 191.094 L 217.383 191.211 217.383 200.781 M239.715 192.250 C 241.959 193.737,242.701 195.548,242.892 200.000 C 243.251 208.362,240.972 210.683,232.617 210.464 L 228.320 210.352 228.203 208.105 L 228.086 205.859 232.120 205.859 C 237.729 205.859,237.891 205.724,237.891 201.029 C 237.891 195.966,237.855 195.931,232.488 195.767 C 226.185 195.574,226.563 194.856,226.563 207.050 L 226.563 216.834 224.121 216.718 L 221.680 216.602 221.575 207.099 C 221.408 191.913,222.050 190.987,232.648 191.134 C 237.885 191.207,238.221 191.260,239.715 192.250 M264.192 192.305 C 268.047 195.248,267.682 200.626,263.465 203.015 C 262.093 203.792,261.363 203.894,257.129 203.900 L 252.344 203.906 252.344 201.758 L 252.344 199.609 254.199 199.547 C 255.220 199.512,257.126 199.468,258.435 199.449 C 260.951 199.412,262.109 198.841,262.109 197.636 C 262.109 196.049,261.115 195.703,256.546 195.703 C 250.814 195.703,250.781 195.732,250.781 200.814 C 250.781 205.896,250.740 205.859,256.473 205.859 L 260.938 205.859 260.938 208.203 L 260.938 210.547 256.348 210.538 C 247.650 210.522,245.921 208.724,246.159 199.941 C 246.372 192.049,247.755 190.928,257.063 191.103 C 262.624 191.208,262.792 191.237,264.192 192.305 M286.154 191.938 C 286.281 192.446,286.329 193.456,286.259 194.184 L 286.133 195.508 281.055 195.709 C 274.465 195.969,275.000 195.332,275.000 202.921 C 275.000 210.854,275.112 210.547,272.224 210.547 L 269.922 210.547 269.922 203.308 C 269.922 191.989,270.737 191.066,280.754 191.033 C 285.867 191.016,285.925 191.026,286.154 191.938 M305.874 191.895 C 310.867 194.412,311.330 206.120,306.563 209.279 C 303.390 211.381,293.343 211.017,290.589 208.699 C 287.379 205.997,287.219 195.911,290.342 193.033 C 292.760 190.805,302.323 190.104,305.874 191.895 M354.492 193.555 L 354.492 195.898 349.023 195.780 C 343.474 195.659,342.269 195.898,342.704 197.031 C 342.901 197.544,343.616 197.656,346.690 197.656 C 354.091 197.656,356.641 199.340,356.641 204.231 C 356.641 209.382,354.309 210.601,344.727 210.457 L 337.695 210.352 337.578 208.105 L 337.461 205.859 344.093 205.859 C 350.850 205.859,351.953 205.627,351.953 204.202 C 351.953 202.758,350.718 202.344,346.411 202.344 C 340.176 202.344,337.936 201.079,337.618 197.376 C 337.195 192.464,339.801 190.953,348.438 191.105 L 354.492 191.211 354.492 193.555 M294.654 196.079 C 292.649 196.928,292.139 203.112,293.928 204.901 C 295.265 206.238,302.615 206.369,303.906 205.078 C 304.895 204.089,305.062 197.927,304.134 196.657 C 303.510 195.803,296.338 195.366,294.654 196.079 " stroke="none" fill="#1c2324" fill-rule="evenodd" data-darkreader-inline-fill="" data-darkreader-inline-stroke="" ></path><path id="path1" d="M120.166 162.358 C 116.205 163.574,112.378 167.139,110.958 170.932 C 110.193 172.977,110.156 173.881,110.156 190.477 L 110.156 207.878 111.719 206.641 L 113.281 205.403 113.281 189.759 C 113.281 170.343,113.589 169.168,119.480 166.119 L 121.943 164.844 133.107 164.844 C 139.247 164.844,144.191 164.764,144.093 164.666 C 143.995 164.568,141.407 164.463,138.341 164.432 L 132.767 164.376 132.887 163.340 L 133.008 162.305 139.063 162.094 C 143.859 161.928,142.723 161.872,133.594 161.829 C 124.348 161.784,121.694 161.889,120.166 162.358 M87.640 170.096 C 84.852 171.309,83.007 177.737,81.077 192.969 C 78.359 214.405,76.535 217.466,74.211 204.492 C 70.989 186.507,70.183 184.375,66.606 184.375 C 64.288 184.375,62.942 186.203,61.151 191.783 C 59.169 197.961,58.811 198.182,50.391 198.438 L 43.945 198.633 43.945 200.000 L 43.945 201.367 49.805 201.486 C 59.581 201.685,61.836 200.266,64.244 192.405 C 66.679 184.455,67.865 186.016,70.308 200.391 C 72.187 211.447,73.421 214.907,75.698 215.505 C 79.968 216.627,81.623 212.847,83.602 197.461 C 86.452 175.292,88.283 169.659,90.901 175.000 C 92.486 178.236,93.511 184.597,94.929 200.000 C 96.925 221.688,98.921 228.129,103.643 228.124 C 106.498 228.120,107.966 226.297,110.567 219.528 C 114.327 209.740,118.120 207.828,133.805 207.818 C 143.640 207.812,145.966 207.473,149.219 205.573 C 152.944 203.397,156.720 198.338,157.235 194.832 C 157.399 193.714,157.379 193.677,157.074 194.531 C 156.189 197.005,155.510 198.190,154.929 198.276 C 154.209 198.381,154.080 197.836,154.729 197.435 C 155.035 197.246,155.017 197.079,154.668 196.863 C 154.273 196.619,154.270 196.104,154.654 194.275 C 154.918 193.019,155.066 191.025,154.983 189.844 L 154.832 187.695 154.760 190.261 C 154.573 196.895,150.886 202.037,144.978 203.903 C 142.794 204.593,141.411 204.688,133.455 204.694 C 116.144 204.707,111.482 207.458,106.858 220.387 C 103.089 230.927,100.296 223.991,97.861 198.047 C 95.629 174.260,93.219 167.668,87.640 170.096 M158.789 172.266 C 159.847 173.340,160.801 174.219,160.908 174.219 C 161.016 174.219,160.238 173.340,159.180 172.266 C 158.122 171.191,157.168 170.313,157.061 170.313 C 156.953 170.313,157.731 171.191,158.789 172.266 M137.109 173.591 C 131.963 174.737,127.866 178.086,125.468 183.107 L 124.023 186.133 123.896 193.848 L 123.769 201.563 124.873 201.557 C 126.845 201.546,126.879 201.426,127.018 193.943 C 127.143 187.199,127.193 186.819,128.242 184.570 C 131.476 177.639,139.596 174.414,146.191 177.441 C 147.427 178.008,148.438 178.386,148.438 178.281 C 148.438 177.910,144.325 176.179,143.434 176.176 C 142.845 176.173,142.630 176.013,142.814 175.715 C 143.006 175.405,142.881 175.341,142.427 175.515 C 142.028 175.668,141.853 175.616,141.995 175.386 C 142.126 175.174,142.569 175.000,142.980 175.000 C 143.482 175.000,143.652 174.809,143.501 174.414 C 143.026 173.177,147.522 174.612,150.391 176.614 C 151.391 177.312,151.850 177.505,151.456 177.063 C 148.773 174.053,142.189 172.459,137.109 173.591 M150.374 180.176 C 151.993 181.900,152.344 182.211,152.344 181.917 C 152.344 181.855,151.509 181.020,150.488 180.062 L 148.633 178.320 150.374 180.176 M153.900 179.886 C 155.456 181.759,155.587 181.880,155.162 181.050 C 154.941 180.618,154.348 179.916,153.845 179.491 C 152.962 178.744,152.964 178.758,153.900 179.886 M139.479 180.810 C 139.217 181.300,139.063 185.077,139.063 190.998 L 139.063 200.407 140.027 200.847 C 142.115 201.798,142.211 201.308,142.096 190.279 L 141.992 180.273 140.944 180.152 C 140.215 180.068,139.769 180.268,139.479 180.810 M141.766 184.668 C 141.749 186.763,141.647 188.257,141.538 187.988 C 141.430 187.720,141.111 187.500,140.830 187.500 C 140.211 187.500,139.789 186.535,140.078 185.782 C 140.193 185.481,140.100 185.119,139.870 184.977 C 139.303 184.626,139.341 181.909,139.922 181.328 C 141.350 179.900,141.798 180.711,141.766 184.668 M313.449 183.720 C 313.331 184.027,313.289 189.090,313.356 194.971 C 313.523 209.807,313.756 210.143,323.828 210.143 C 332.794 210.143,333.984 209.054,333.984 200.846 C 333.984 192.690,333.017 191.669,325.098 191.474 L 319.922 191.346 319.922 193.524 L 319.922 195.703 324.023 195.703 C 329.459 195.703,329.688 195.906,329.688 200.738 C 329.688 205.832,329.445 206.055,323.903 206.055 C 317.556 206.055,318.004 206.952,317.877 193.988 L 317.773 183.398 315.718 183.280 C 314.215 183.194,313.606 183.312,313.449 183.720 M212.891 185.547 L 212.891 187.500 215.039 187.500 L 217.188 187.500 217.188 185.547 L 217.188 183.594 215.039 183.594 L 212.891 183.594 212.891 185.547 M88.128 184.602 C 87.655 185.835,87.864 202.161,88.359 202.656 C 90.438 204.734,91.016 202.754,91.016 193.555 C 91.016 188.746,90.853 185.191,90.611 184.740 C 90.124 183.829,88.460 183.737,88.128 184.602 M187.203 185.923 C 184.466 187.619,184.378 188.050,184.376 199.707 L 184.375 210.156 186.523 210.156 L 188.672 210.156 188.672 200.243 C 188.672 188.239,188.036 189.303,195.315 189.132 C 203.221 188.945,204.995 190.039,204.595 194.856 C 204.281 198.652,203.226 199.219,196.478 199.219 L 191.016 199.219 191.016 201.367 L 191.016 203.516 196.116 203.516 C 202.194 203.516,204.125 203.095,206.196 201.322 C 210.595 197.557,209.832 188.752,204.883 186.168 C 202.496 184.921,189.119 184.735,187.203 185.923 M117.042 186.144 C 116.668 187.119,116.750 203.125,117.129 203.125 C 117.312 203.125,118.019 202.931,118.699 202.693 L 119.937 202.262 119.832 194.002 L 119.727 185.742 118.507 185.624 C 117.661 185.541,117.212 185.700,117.042 186.144 M133.082 186.388 C 132.261 186.848,132.098 194.051,132.891 194.844 C 134.444 196.398,135.547 194.830,135.547 191.067 C 135.547 187.040,134.720 185.471,133.082 186.388 M146.261 186.846 C 146.152 187.130,146.114 189.020,146.176 191.045 L 146.289 194.727 147.456 194.727 C 148.335 194.727,148.642 194.534,148.703 193.945 C 148.765 193.338,148.738 193.316,148.582 193.848 C 148.366 194.581,148.076 194.668,147.102 194.294 C 146.298 193.986,146.179 186.907,146.973 186.587 C 147.355 186.433,147.352 186.383,146.960 186.359 C 146.685 186.342,146.370 186.561,146.261 186.846 M157.553 190.625 C 157.553 192.236,157.622 192.896,157.706 192.090 C 157.791 191.284,157.791 189.966,157.706 189.160 C 157.622 188.354,157.553 189.014,157.553 190.625 M102.995 191.276 C 102.494 191.777,102.694 215.819,103.203 216.328 C 103.840 216.965,104.512 216.917,105.246 216.183 C 105.989 215.439,106.181 193.127,105.455 191.771 C 105.066 191.045,103.534 190.736,102.995 191.276 M212.891 200.781 L 212.891 210.156 215.039 210.156 L 217.188 210.156 217.188 200.781 L 217.188 191.406 215.039 191.406 L 212.891 191.406 212.891 200.781 M225.586 191.958 C 222.252 193.439,221.875 194.938,221.875 206.699 L 221.875 216.406 224.023 216.406 L 226.172 216.406 226.172 206.879 C 226.172 195.195,226.011 195.592,230.830 195.373 C 237.390 195.075,238.281 195.717,238.281 200.738 C 238.281 205.761,238.019 206.015,232.652 206.188 L 228.516 206.321 228.516 208.270 L 228.516 210.218 233.567 210.090 C 241.280 209.893,242.721 208.329,242.505 200.391 C 242.363 195.201,241.760 193.750,239.126 192.270 C 237.259 191.221,227.738 191.001,225.586 191.958 M249.736 192.036 C 247.047 193.362,246.135 195.516,246.113 200.586 C 246.080 208.335,248.014 210.156,256.275 210.156 L 260.938 210.156 260.938 208.203 L 260.938 206.250 256.623 206.250 C 250.791 206.250,250.391 205.899,250.391 200.781 C 250.391 195.742,250.848 195.313,256.207 195.313 C 261.800 195.313,263.483 196.293,261.937 198.652 C 261.335 199.572,261.142 199.609,257.022 199.609 L 252.734 199.609 252.734 201.563 L 252.734 203.516 257.239 203.516 C 262.330 203.516,263.736 203.113,265.350 201.195 C 267.706 198.395,266.440 193.369,263.019 191.939 C 261.124 191.147,251.394 191.218,249.736 192.036 M273.445 192.090 C 270.598 193.521,270.313 194.495,270.313 202.792 L 270.313 210.156 272.461 210.156 L 274.609 210.156 274.609 203.544 C 274.609 195.194,274.202 195.703,280.887 195.703 L 285.938 195.703 285.938 193.555 L 285.938 191.406 280.371 191.407 C 275.851 191.407,274.549 191.536,273.445 192.090 M292.383 191.960 C 289.491 193.251,288.307 195.861,288.293 200.977 C 288.273 208.396,290.353 210.160,299.109 210.150 C 307.689 210.140,309.375 208.601,309.375 200.781 C 309.375 195.750,308.574 193.703,306.055 192.293 C 304.155 191.230,294.542 190.996,292.383 191.960 M340.730 191.985 C 337.148 193.543,336.873 199.685,340.315 201.267 C 341.088 201.623,343.465 201.964,346.274 202.122 C 351.186 202.399,351.953 202.666,351.953 204.102 C 351.953 205.651,351.214 205.834,344.503 205.947 L 338.086 206.055 337.968 208.105 L 337.850 210.156 344.999 210.156 C 353.403 210.155,354.329 209.888,355.762 207.046 C 358.503 201.610,355.303 198.071,347.633 198.055 C 343.244 198.046,341.925 197.623,342.403 196.376 C 342.632 195.781,343.333 195.703,348.479 195.703 L 354.297 195.703 354.297 193.555 L 354.297 191.406 348.145 191.422 C 343.751 191.432,341.632 191.594,340.730 191.985 M166.106 193.750 C 166.106 194.502,166.187 194.810,166.285 194.434 C 166.383 194.058,166.383 193.442,166.285 193.066 C 166.187 192.690,166.106 192.998,166.106 193.750 M304.073 196.316 C 305.400 197.644,305.475 204.068,304.178 205.364 C 303.119 206.424,294.975 206.382,293.791 205.311 C 292.687 204.311,292.554 197.590,293.615 196.417 C 294.511 195.428,303.102 195.345,304.073 196.316 M167.311 200.091 C 166.842 201.430,166.517 202.585,166.589 202.657 C 166.787 202.855,168.406 198.381,168.276 197.993 C 168.214 197.807,167.780 198.751,167.311 200.091 M162.358 204.046 C 157.186 212.871,151.083 215.600,135.547 216.037 C 126.335 216.296,124.441 216.453,122.249 217.144 C 114.615 219.551,109.944 226.427,110.237 234.824 L 110.352 238.086 113.477 238.058 C 120.313 237.996,126.045 232.411,126.813 225.063 L 127.069 222.612 125.937 222.884 C 123.915 223.368,123.549 223.736,123.352 225.490 C 122.849 229.952,119.065 233.998,114.491 234.964 L 113.161 235.245 113.406 232.899 C 113.978 227.426,116.755 223.297,121.403 221.008 L 124.006 219.727 134.366 219.484 C 148.101 219.163,151.603 218.272,158.008 213.469 C 161.300 211.000,167.570 203.125,166.243 203.125 C 166.127 203.125,165.686 203.801,165.265 204.628 C 164.128 206.855,162.809 207.622,162.228 206.393 C 161.897 205.691,161.900 205.332,162.241 204.959 C 162.947 204.187,163.745 202.678,163.551 202.483 C 163.455 202.387,162.918 203.091,162.358 204.046 " stroke="none" fill="#8679cd" fill-rule="evenodd" data-darkreader-inline-fill="" data-darkreader-inline-stroke="" ></path><path id="path2" d="M215.017 183.483 L 217.148 183.632 217.303 185.663 L 217.457 187.695 217.420 185.547 L 217.383 183.398 215.135 183.366 L 212.887 183.334 215.017 183.483 M192.285 185.056 C 193.950 185.129,196.675 185.129,198.340 185.056 C 200.005 184.983,198.643 184.923,195.313 184.923 C 191.982 184.923,190.620 184.983,192.285 185.056 M87.666 193.555 C 87.667 198.281,87.723 200.161,87.792 197.732 C 87.860 195.303,87.860 191.436,87.791 189.139 C 87.722 186.841,87.666 188.828,87.666 193.555 M119.921 194.610 C 119.814 199.058,119.862 202.561,120.028 202.395 C 120.194 202.228,120.281 198.589,120.223 194.308 L 120.116 186.523 119.921 194.610 M123.597 195.313 C 123.597 198.857,123.656 200.308,123.728 198.535 C 123.801 196.763,123.801 193.862,123.728 192.090 C 123.656 190.317,123.597 191.768,123.597 195.313 M193.049 189.352 C 194.490 189.427,196.951 189.427,198.518 189.353 C 200.085 189.279,198.906 189.217,195.898 189.217 C 192.891 189.216,191.609 189.277,193.049 189.352 M189.141 189.922 C 188.883 190.180,188.692 190.751,188.717 191.191 C 188.762 191.976,188.766 191.976,188.955 191.211 C 189.060 190.781,189.325 190.210,189.543 189.941 C 190.049 189.319,189.758 189.304,189.141 189.922 M184.169 200.195 L 184.180 210.352 186.133 210.391 L 188.086 210.431 186.237 210.273 L 184.388 210.114 184.274 200.077 L 184.159 190.039 184.169 200.195 M230.775 191.304 C 231.910 191.383,233.668 191.382,234.681 191.302 C 235.694 191.222,234.766 191.157,232.617 191.158 C 230.469 191.159,229.640 191.225,230.775 191.304 M254.395 191.304 C 255.630 191.382,257.651 191.382,258.887 191.304 C 260.122 191.227,259.111 191.163,256.641 191.163 C 254.170 191.163,253.159 191.227,254.395 191.304 M278.613 191.304 C 279.849 191.382,281.870 191.382,283.105 191.304 C 284.341 191.227,283.330 191.163,280.859 191.163 C 278.389 191.163,277.378 191.227,278.613 191.304 M296.973 191.304 C 298.208 191.382,300.229 191.382,301.465 191.304 C 302.700 191.227,301.689 191.163,299.219 191.163 C 296.748 191.163,295.737 191.227,296.973 191.304 M319.688 191.560 C 319.573 191.860,319.549 192.783,319.635 193.611 C 319.784 195.052,319.793 195.038,319.856 193.275 L 319.922 191.434 323.926 191.307 L 327.930 191.180 323.914 191.098 C 320.782 191.034,319.851 191.136,319.688 191.560 M345.605 191.306 C 347.163 191.380,349.712 191.380,351.270 191.306 C 352.827 191.232,351.553 191.171,348.438 191.171 C 345.322 191.171,344.048 191.232,345.605 191.306 M217.278 200.663 L 217.188 210.115 215.137 210.259 L 213.086 210.402 215.149 210.475 C 217.771 210.566,217.614 211.247,217.480 200.383 L 217.368 191.211 217.278 200.663 M354.414 193.359 C 354.414 194.541,354.487 195.024,354.577 194.434 C 354.666 193.843,354.666 192.876,354.577 192.285 C 354.487 191.694,354.414 192.178,354.414 193.359 M102.517 203.906 C 102.517 210.459,102.571 213.140,102.636 209.863 C 102.701 206.587,102.701 201.226,102.636 197.949 C 102.571 194.673,102.517 197.354,102.517 203.906 M209.096 194.336 C 209.099 195.410,209.175 195.803,209.265 195.209 C 209.354 194.616,209.352 193.737,209.259 193.256 C 209.167 192.776,209.093 193.262,209.096 194.336 M230.176 195.600 C 231.196 195.680,232.866 195.680,233.887 195.600 C 234.907 195.519,234.072 195.453,232.031 195.453 C 229.990 195.453,229.155 195.519,230.176 195.600 M254.409 195.602 C 255.652 195.679,257.586 195.679,258.706 195.600 C 259.826 195.521,258.809 195.458,256.445 195.459 C 254.082 195.460,253.166 195.524,254.409 195.602 M337.591 196.875 C 337.591 197.627,337.671 197.935,337.769 197.559 C 337.868 197.183,337.868 196.567,337.769 196.191 C 337.671 195.815,337.591 196.123,337.591 196.875 M266.505 197.461 C 266.509 198.320,266.589 198.626,266.683 198.140 C 266.776 197.654,266.772 196.951,266.675 196.577 C 266.577 196.204,266.500 196.602,266.505 197.461 M270.104 203.222 L 270.117 210.352 272.170 210.386 L 274.223 210.419 272.277 210.268 L 270.330 210.116 270.210 203.105 L 270.090 196.093 270.104 203.222 M334.130 200.977 C 334.131 203.340,334.196 204.256,334.273 203.013 C 334.351 201.770,334.351 199.836,334.272 198.716 C 334.193 197.596,334.130 198.613,334.130 200.977 M226.262 206.719 L 226.172 216.367 223.926 216.508 L 221.680 216.649 223.938 216.723 C 226.788 216.816,226.598 217.588,226.465 206.438 L 226.352 197.070 226.262 206.719 M238.031 200.781 C 238.031 202.822,238.097 203.657,238.178 202.637 C 238.258 201.616,238.258 199.946,238.178 198.926 C 238.097 197.905,238.031 198.740,238.031 200.781 M250.531 200.781 C 250.531 202.822,250.597 203.657,250.678 202.637 C 250.758 201.616,250.758 199.946,250.678 198.926 C 250.597 197.905,250.531 198.740,250.531 200.781 M304.824 200.781 C 304.824 202.607,304.891 203.354,304.974 202.441 C 305.056 201.528,305.056 200.034,304.974 199.121 C 304.891 198.208,304.824 198.955,304.824 200.781 M345.020 197.943 C 346.040 198.024,347.710 198.024,348.730 197.943 C 349.751 197.863,348.916 197.797,346.875 197.797 C 344.834 197.797,343.999 197.863,345.020 197.943 M46.394 198.330 C 47.096 198.417,48.150 198.415,48.737 198.326 C 49.324 198.237,48.750 198.166,47.461 198.168 C 46.172 198.170,45.692 198.243,46.394 198.330 M53.034 198.330 C 53.736 198.417,54.791 198.415,55.378 198.326 C 55.965 198.237,55.391 198.166,54.102 198.168 C 52.812 198.170,52.332 198.243,53.034 198.330 M188.778 199.609 C 188.778 200.576,188.854 200.972,188.948 200.488 C 189.041 200.005,189.041 199.214,188.948 198.730 C 188.854 198.247,188.778 198.643,188.778 199.609 M190.737 201.367 C 190.740 202.441,190.816 202.834,190.905 202.241 C 190.995 201.647,190.993 200.768,190.900 200.288 C 190.807 199.807,190.734 200.293,190.737 201.367 M252.502 201.563 L 252.539 203.711 256.934 203.731 L 261.330 203.751 257.052 203.621 L 252.774 203.490 252.619 201.452 L 252.465 199.414 252.502 201.563 M45.410 201.832 C 45.786 201.930,46.401 201.930,46.777 201.832 C 47.153 201.734,46.846 201.653,46.094 201.653 C 45.342 201.653,45.034 201.734,45.410 201.832 M343.652 202.236 C 344.351 202.322,345.493 202.322,346.191 202.236 C 346.890 202.149,346.318 202.078,344.922 202.078 C 343.525 202.078,342.954 202.149,343.652 202.236 M195.801 203.795 C 196.392 203.885,197.358 203.885,197.949 203.795 C 198.540 203.706,198.057 203.633,196.875 203.633 C 195.693 203.633,195.210 203.706,195.801 203.795 M130.371 204.588 C 132.358 204.659,135.610 204.659,137.598 204.588 C 139.585 204.517,137.959 204.459,133.984 204.459 C 130.010 204.459,128.384 204.517,130.371 204.588 M230.384 206.148 C 231.519 206.227,233.277 206.226,234.290 206.146 C 235.304 206.066,234.375 206.001,232.227 206.002 C 230.078 206.003,229.249 206.069,230.384 206.148 M254.409 206.148 C 255.652 206.226,257.586 206.226,258.706 206.147 C 259.826 206.068,258.809 206.005,256.445 206.005 C 254.082 206.006,253.166 206.071,254.409 206.148 M297.375 206.147 C 298.402 206.228,299.984 206.227,300.891 206.145 C 301.797 206.063,300.957 205.997,299.023 205.998 C 297.090 205.999,296.348 206.066,297.375 206.147 M322.569 206.146 C 323.488 206.228,324.894 206.227,325.694 206.143 C 326.494 206.059,325.742 205.992,324.023 205.993 C 322.305 205.995,321.650 206.063,322.569 206.146 M230.581 210.445 C 231.824 210.523,233.757 210.522,234.878 210.444 C 235.998 210.365,234.980 210.301,232.617 210.302 C 230.254 210.303,229.337 210.368,230.581 210.445 M254.590 210.444 C 255.718 210.523,257.563 210.523,258.691 210.444 C 259.819 210.365,258.896 210.301,256.641 210.301 C 254.385 210.301,253.462 210.365,254.590 210.444 M296.793 210.446 C 298.144 210.522,300.253 210.522,301.480 210.444 C 302.707 210.367,301.602 210.305,299.023 210.305 C 296.445 210.306,295.441 210.369,296.793 210.446 M321.793 210.446 C 323.144 210.522,325.253 210.522,326.480 210.444 C 327.707 210.367,326.602 210.305,324.023 210.305 C 321.445 210.306,320.441 210.369,321.793 210.446 M341.113 210.447 C 342.993 210.519,346.069 210.519,347.949 210.447 C 349.829 210.375,348.291 210.317,344.531 210.317 C 340.771 210.317,339.233 210.375,341.113 210.447 M109.894 234.961 C 109.896 236.465,109.966 237.032,110.051 236.222 C 110.135 235.411,110.134 234.181,110.048 233.487 C 109.961 232.794,109.892 233.457,109.894 234.961 M111.621 238.557 C 112.104 238.650,112.896 238.650,113.379 238.557 C 113.862 238.464,113.467 238.388,112.500 238.388 C 111.533 238.388,111.138 238.464,111.621 238.557 " stroke="none" fill="#58477c" fill-rule="evenodd" data-darkreader-inline-fill="" data-darkreader-inline-stroke="" ></path><path id="path3" d="M128.027 165.136 C 130.659 165.203,134.966 165.203,137.598 165.136 C 140.229 165.068,138.076 165.013,132.813 165.013 C 127.549 165.013,125.396 165.068,128.027 165.136 M140.137 172.932 C 140.620 173.025,141.411 173.025,141.895 172.932 C 142.378 172.839,141.982 172.763,141.016 172.763 C 140.049 172.763,139.653 172.839,140.137 172.932 M128.495 178.027 L 127.148 179.492 128.613 178.146 C 129.419 177.406,130.078 176.746,130.078 176.681 C 130.078 176.383,129.748 176.664,128.495 178.027 M138.840 190.625 C 138.840 195.674,138.896 197.739,138.964 195.215 C 139.032 192.690,139.032 188.560,138.964 186.035 C 138.896 183.511,138.840 185.576,138.840 190.625 M212.656 185.516 C 212.684 187.044,212.859 187.678,213.281 187.792 C 213.688 187.902,213.726 187.849,213.404 187.620 C 213.149 187.438,212.868 186.414,212.779 185.344 L 212.617 183.398 212.656 185.516 M91.181 193.555 C 91.181 198.066,91.238 199.859,91.307 197.537 C 91.377 195.216,91.376 191.525,91.307 189.334 C 91.237 187.144,91.181 189.043,91.181 193.555 M116.573 194.922 C 116.573 199.756,116.629 201.733,116.698 199.316 C 116.766 196.899,116.766 192.944,116.698 190.527 C 116.629 188.110,116.573 190.088,116.573 194.922 M127.111 195.117 C 127.112 198.555,127.171 199.909,127.244 198.126 C 127.317 196.343,127.316 193.531,127.243 191.876 C 127.170 190.221,127.111 191.680,127.111 195.117 M154.395 190.430 C 154.400 191.289,154.480 191.595,154.573 191.109 C 154.667 190.623,154.663 189.920,154.565 189.546 C 154.467 189.173,154.391 189.570,154.395 190.430 M212.760 191.276 C 212.399 191.637,212.431 210.067,212.793 210.292 C 212.954 210.391,213.036 206.192,212.975 200.960 L 212.864 191.446 215.124 191.305 L 217.383 191.163 215.202 191.089 C 214.002 191.049,212.904 191.133,212.760 191.276 M188.808 194.922 C 188.808 196.748,188.876 197.495,188.958 196.582 C 189.040 195.669,189.040 194.175,188.958 193.262 C 188.876 192.349,188.808 193.096,188.808 194.922 M286.049 193.555 C 286.052 194.629,286.128 195.022,286.218 194.428 C 286.308 193.834,286.305 192.956,286.212 192.475 C 286.120 191.995,286.046 192.480,286.049 193.555 M352.539 195.703 L 350.586 195.971 352.418 196.032 C 353.426 196.066,354.359 195.918,354.492 195.703 C 354.625 195.488,354.679 195.340,354.613 195.374 C 354.547 195.408,353.613 195.556,352.539 195.703 M221.654 206.641 C 221.654 212.119,221.709 214.360,221.776 211.621 C 221.843 208.882,221.843 204.399,221.776 201.660 C 221.709 198.921,221.654 201.162,221.654 206.641 M242.721 200.977 C 242.722 203.125,242.787 203.954,242.867 202.819 C 242.946 201.684,242.945 199.926,242.865 198.913 C 242.785 197.899,242.720 198.828,242.721 200.977 M274.768 203.516 C 274.768 207.061,274.828 208.511,274.900 206.738 C 274.972 204.966,274.972 202.065,274.900 200.293 C 274.828 198.521,274.768 199.971,274.768 203.516 M309.514 200.977 C 309.512 202.910,309.579 203.750,309.660 202.844 C 309.742 201.937,309.743 200.355,309.663 199.328 C 309.582 198.301,309.515 199.043,309.514 200.977 M50.098 198.316 C 50.474 198.414,51.089 198.414,51.465 198.316 C 51.841 198.218,51.533 198.138,50.781 198.138 C 50.029 198.138,49.722 198.218,50.098 198.316 M329.431 200.977 C 329.432 202.695,329.501 203.350,329.583 202.431 C 329.666 201.512,329.665 200.106,329.581 199.306 C 329.497 198.506,329.429 199.258,329.431 200.977 M198.535 199.108 C 199.126 199.197,200.093 199.197,200.684 199.108 C 201.274 199.018,200.791 198.945,199.609 198.945 C 198.428 198.945,197.944 199.018,198.535 199.108 M188.755 205.534 C 188.696 208.749,188.528 210.149,188.184 210.288 C 187.801 210.442,187.804 210.492,188.196 210.516 C 188.987 210.565,189.099 209.802,188.964 205.248 L 188.838 200.977 188.755 205.534 M51.281 201.850 C 52.308 201.931,53.890 201.930,54.797 201.848 C 55.704 201.766,54.863 201.700,52.930 201.701 C 50.996 201.702,50.254 201.769,51.281 201.850 M152.713 203.027 L 151.367 204.492 152.832 203.146 C 154.195 201.893,154.476 201.563,154.178 201.563 C 154.113 201.563,153.454 202.222,152.713 203.027 M190.625 203.603 C 190.625 203.770,191.636 203.886,192.871 203.861 C 195.255 203.813,195.022 203.640,192.285 203.428 C 191.372 203.358,190.625 203.436,190.625 203.603 M106.016 209.180 C 106.016 212.402,106.077 213.669,106.150 211.994 C 106.223 210.319,106.223 207.682,106.149 206.134 C 106.075 204.587,106.015 205.957,106.016 209.180 M199.512 203.791 C 199.995 203.884,200.786 203.884,201.270 203.791 C 201.753 203.698,201.357 203.622,200.391 203.622 C 199.424 203.622,199.028 203.698,199.512 203.791 M337.621 208.008 C 337.623 209.297,337.696 209.777,337.783 209.075 C 337.870 208.373,337.868 207.318,337.779 206.731 C 337.690 206.144,337.619 206.719,337.621 208.008 M130.566 208.104 C 132.876 208.173,136.655 208.173,138.965 208.104 C 141.274 208.035,139.385 207.978,134.766 207.978 C 130.146 207.978,128.257 208.035,130.566 208.104 M228.216 208.984 C 228.216 209.736,228.296 210.044,228.394 209.668 C 228.493 209.292,228.493 208.677,228.394 208.301 C 228.296 207.925,228.216 208.232,228.216 208.984 M114.624 212.598 L 113.477 213.867 114.746 212.720 C 115.929 211.650,116.195 211.328,115.893 211.328 C 115.826 211.328,115.255 211.899,114.624 212.598 M141.895 215.894 C 142.271 215.993,142.886 215.993,143.262 215.894 C 143.638 215.796,143.330 215.716,142.578 215.716 C 141.826 215.716,141.519 215.796,141.895 215.894 M115.021 221.191 L 113.477 222.852 115.137 221.307 C 116.681 219.871,116.976 219.531,116.681 219.531 C 116.617 219.531,115.870 220.278,115.021 221.191 M117.358 223.926 L 116.211 225.195 117.480 224.048 C 118.179 223.417,118.750 222.846,118.750 222.778 C 118.750 222.477,118.428 222.742,117.358 223.926 " stroke="none" fill="#3a3661" fill-rule="evenodd" data-darkreader-inline-fill="" data-darkreader-inline-stroke="" ></path><path id="path4" d="M128.200 161.620 C 130.926 161.687,135.496 161.687,138.356 161.620 C 141.215 161.553,138.984 161.499,133.398 161.498 C 127.813 161.498,125.473 161.553,128.200 161.620 M139.063 162.094 L 133.008 162.305 132.881 163.389 C 132.811 163.985,132.899 164.447,133.076 164.417 C 134.525 164.165,144.134 164.603,143.164 164.876 C 142.300 165.120,142.607 165.164,144.328 165.044 C 145.684 164.950,146.441 165.020,146.133 165.210 C 145.670 165.497,147.821 166.144,149.414 166.198 C 149.629 166.205,150.047 166.441,150.343 166.722 C 150.640 167.003,151.132 167.136,151.438 167.019 C 151.790 166.884,151.891 166.972,151.714 167.258 C 151.526 167.563,151.653 167.627,152.105 167.454 C 152.556 167.280,152.684 167.344,152.495 167.649 C 152.302 167.962,152.443 168.014,152.951 167.819 C 153.356 167.664,153.559 167.665,153.403 167.821 C 153.018 168.206,155.117 169.548,155.640 169.251 C 155.868 169.121,155.942 169.141,155.805 169.295 C 155.668 169.449,156.898 170.828,158.539 172.361 C 160.181 173.893,161.611 175.230,161.719 175.331 C 161.826 175.433,161.680 175.381,161.394 175.215 C 161.108 175.050,161.281 175.535,161.777 176.292 C 162.274 177.050,162.842 177.569,163.041 177.446 C 163.240 177.323,163.285 177.413,163.141 177.645 C 162.782 178.227,163.693 180.111,164.186 179.806 C 164.429 179.657,164.488 179.815,164.336 180.209 C 164.199 180.567,164.252 180.859,164.453 180.859 C 164.654 180.859,164.707 181.152,164.570 181.509 C 164.392 181.972,164.465 182.070,164.819 181.851 C 165.189 181.623,165.250 181.758,165.055 182.373 C 164.909 182.831,164.961 183.203,165.171 183.203 C 165.381 183.203,165.460 183.555,165.348 183.984 C 165.235 184.414,165.309 184.766,165.512 184.766 C 165.714 184.766,165.799 185.318,165.700 185.993 C 165.601 186.668,165.675 187.124,165.865 187.007 C 166.057 186.889,166.222 188.633,166.236 190.914 C 166.251 193.411,166.133 194.743,165.936 194.294 C 165.734 193.833,165.690 194.216,165.819 195.313 C 165.977 196.645,165.923 196.929,165.599 196.484 C 165.266 196.028,165.225 196.144,165.414 197.005 C 165.585 197.785,165.524 198.031,165.208 197.835 C 164.895 197.642,164.844 197.823,165.039 198.438 C 165.248 199.096,165.193 199.239,164.819 199.008 C 164.465 198.789,164.392 198.888,164.570 199.350 C 164.858 200.101,164.512 201.254,164.079 200.987 C 163.918 200.887,163.583 201.251,163.335 201.795 C 163.003 202.526,163.001 202.712,163.329 202.510 C 163.602 202.341,163.697 202.444,163.576 202.778 C 163.468 203.076,163.199 203.282,162.980 203.236 C 162.760 203.190,162.670 203.497,162.781 203.920 C 162.896 204.361,162.787 204.688,162.523 204.688 C 162.270 204.688,162.189 204.485,162.342 204.237 C 162.511 203.963,162.450 203.891,162.187 204.054 C 161.948 204.201,161.863 204.609,161.998 204.959 C 162.154 205.367,162.087 205.501,161.812 205.331 C 161.576 205.185,161.269 205.248,161.131 205.472 C 160.993 205.696,161.098 205.830,161.365 205.771 C 161.632 205.712,162.054 206.055,162.303 206.532 C 162.617 207.133,162.881 207.275,163.163 206.993 C 163.387 206.769,163.900 206.531,164.304 206.464 C 164.708 206.397,164.993 206.140,164.937 205.893 C 164.829 205.414,165.902 203.125,166.235 203.125 C 166.344 203.125,166.246 203.477,166.016 203.906 C 165.786 204.336,165.687 204.688,165.797 204.688 C 166.141 204.688,167.256 202.282,167.021 202.047 C 166.898 201.924,166.797 202.057,166.797 202.344 C 166.797 202.630,166.705 202.773,166.592 202.660 C 166.228 202.296,166.866 201.168,167.289 201.430 C 167.526 201.576,167.583 201.496,167.425 201.240 C 167.009 200.567,168.017 197.508,168.449 198.131 C 168.665 198.442,168.705 198.113,168.555 197.266 C 168.368 196.216,168.412 196.034,168.742 196.484 C 169.069 196.929,169.124 196.598,168.971 195.117 C 168.826 193.718,168.866 193.441,169.111 194.141 C 169.348 194.816,169.465 193.753,169.492 190.700 C 169.517 187.889,169.391 186.369,169.147 186.520 C 168.908 186.667,168.852 186.305,169.000 185.566 C 169.142 184.854,169.076 184.375,168.835 184.375 C 168.614 184.375,168.524 184.023,168.637 183.594 C 168.749 183.164,168.650 182.813,168.417 182.813 C 168.184 182.813,168.094 182.549,168.218 182.227 C 168.342 181.904,168.254 181.641,168.023 181.641 C 167.792 181.641,167.704 181.377,167.827 181.055 C 167.951 180.732,167.863 180.469,167.632 180.469 C 167.401 180.469,167.324 180.177,167.461 179.819 C 167.644 179.344,167.570 179.256,167.188 179.492 C 166.805 179.729,166.731 179.641,166.914 179.166 C 167.051 178.808,166.982 178.516,166.762 178.516 C 166.541 178.516,166.469 178.340,166.602 178.125 C 166.734 177.910,166.646 177.734,166.406 177.734 C 166.166 177.734,166.078 177.559,166.211 177.344 C 166.344 177.129,166.256 176.953,166.016 176.953 C 165.775 176.953,165.688 176.777,165.820 176.563 C 165.953 176.348,165.865 176.172,165.625 176.172 C 165.385 176.172,165.296 175.997,165.429 175.783 C 165.561 175.569,165.176 174.925,164.573 174.352 C 163.970 173.779,163.731 173.458,164.042 173.639 C 165.068 174.238,163.010 171.736,160.501 169.336 C 159.154 168.047,158.217 167.264,158.420 167.597 C 158.623 167.929,158.374 167.753,157.867 167.206 C 157.360 166.659,157.066 166.475,157.213 166.797 C 157.360 167.119,157.191 167.031,156.837 166.602 C 156.484 166.172,156.031 165.864,155.832 165.918 C 155.632 165.972,155.469 165.811,155.469 165.560 C 155.469 165.309,155.366 165.207,155.241 165.332 C 155.116 165.457,154.663 165.209,154.234 164.781 C 153.806 164.353,153.205 164.098,152.899 164.215 C 152.594 164.333,152.344 164.248,152.344 164.027 C 152.344 163.806,152.168 163.734,151.953 163.867 C 151.738 164.000,151.563 163.904,151.563 163.653 C 151.563 163.403,151.299 163.299,150.977 163.423 C 150.654 163.546,150.391 163.483,150.391 163.281 C 150.391 163.080,150.098 163.027,149.741 163.165 C 149.270 163.345,149.178 163.272,149.408 162.900 C 149.654 162.502,149.484 162.447,148.658 162.654 C 147.903 162.844,147.672 162.791,147.868 162.474 C 148.066 162.153,147.770 162.100,146.826 162.287 C 145.852 162.479,145.661 162.441,146.094 162.139 C 146.582 161.799,146.549 161.744,145.898 161.807 C 145.469 161.849,142.393 161.979,139.063 162.094 M159.180 172.266 C 160.238 173.340,161.016 174.219,160.908 174.219 C 160.801 174.219,159.847 173.340,158.789 172.266 C 157.731 171.191,156.953 170.313,157.061 170.313 C 157.168 170.313,158.122 171.191,159.180 172.266 M144.208 173.717 C 143.619 173.829,143.375 174.086,143.513 174.445 C 143.651 174.805,143.464 175.000,142.980 175.000 C 142.569 175.000,142.126 175.174,141.995 175.386 C 141.853 175.616,142.028 175.668,142.427 175.515 C 142.881 175.341,143.006 175.405,142.814 175.715 C 142.630 176.013,142.845 176.173,143.434 176.176 C 144.385 176.180,148.438 177.921,148.438 178.325 C 148.438 178.455,148.262 178.453,148.047 178.320 C 147.138 177.758,147.758 178.442,148.926 179.290 C 150.112 180.150,150.146 180.155,149.451 179.363 C 148.055 177.773,149.051 178.511,150.798 180.360 C 151.755 181.374,152.100 181.869,151.563 181.460 C 151.025 181.050,151.245 181.354,152.051 182.134 C 153.438 183.478,153.982 184.319,153.122 183.787 C 152.892 183.645,152.915 183.954,153.179 184.533 C 153.427 185.077,153.799 185.418,154.005 185.290 C 154.232 185.150,154.270 185.407,154.102 185.938 C 153.904 186.561,153.956 186.734,154.280 186.534 C 154.612 186.328,154.676 186.662,154.513 187.755 C 154.348 188.861,154.386 189.051,154.656 188.477 C 155.215 187.287,155.182 192.069,154.614 194.530 C 154.240 196.147,154.249 196.604,154.655 196.855 C 155.012 197.075,155.033 197.247,154.729 197.435 C 154.099 197.824,154.201 198.307,154.912 198.307 C 155.263 198.307,155.790 197.650,156.139 196.778 C 156.579 195.678,156.845 195.395,157.086 195.769 C 157.287 196.082,157.330 195.744,157.193 194.922 C 157.065 194.153,157.108 193.752,157.291 194.005 C 157.473 194.256,157.617 192.678,157.617 190.428 C 157.617 188.189,157.473 186.602,157.293 186.853 C 157.109 187.108,157.074 186.822,157.211 186.198 C 157.382 185.418,157.321 185.173,157.005 185.368 C 156.692 185.561,156.641 185.380,156.836 184.766 C 157.039 184.127,156.985 183.967,156.641 184.180 C 156.300 184.390,156.240 184.239,156.428 183.647 C 156.620 183.044,156.412 182.564,155.658 181.864 C 155.090 181.338,154.587 180.648,154.541 180.331 C 154.420 179.506,151.159 176.346,150.561 176.475 C 150.285 176.535,149.931 176.376,149.774 176.122 C 149.583 175.813,149.658 175.765,150.000 175.977 C 150.331 176.181,150.417 176.140,150.243 175.859 C 150.096 175.620,149.688 175.535,149.337 175.669 C 148.914 175.832,148.794 175.762,148.980 175.461 C 149.168 175.157,149.041 175.093,148.589 175.266 C 148.137 175.440,148.010 175.376,148.198 175.071 C 148.387 174.766,148.259 174.702,147.808 174.876 C 147.317 175.064,147.223 174.994,147.457 174.615 C 147.675 174.263,147.627 174.191,147.304 174.390 C 147.044 174.551,146.366 174.566,145.799 174.424 C 144.988 174.220,144.888 174.089,145.333 173.807 C 145.918 173.437,145.750 173.423,144.208 173.717 M109.942 188.672 C 109.942 196.514,109.994 199.722,110.058 195.801 C 110.122 191.880,110.122 185.464,110.058 181.543 C 109.994 177.622,109.942 180.830,109.942 188.672 M140.141 176.448 C 140.627 176.542,141.330 176.538,141.704 176.440 C 142.077 176.342,141.680 176.266,140.820 176.270 C 139.961 176.275,139.655 176.355,140.141 176.448 M139.922 181.328 C 139.341 181.909,139.303 184.626,139.870 184.977 C 140.100 185.119,140.193 185.481,140.078 185.782 C 139.789 186.535,140.211 187.500,140.830 187.500 C 141.111 187.500,141.430 187.720,141.538 187.988 C 141.647 188.257,141.749 186.763,141.766 184.668 C 141.798 180.711,141.350 179.900,139.922 181.328 M142.357 190.430 C 142.357 195.801,142.412 198.052,142.479 195.433 C 142.547 192.814,142.547 188.419,142.480 185.667 C 142.412 182.916,142.357 185.059,142.357 190.430 M134.473 186.359 C 134.849 186.578,135.170 187.056,135.187 187.422 C 135.207 187.850,135.290 187.907,135.419 187.585 C 135.653 187.003,134.874 185.932,134.230 185.949 C 133.987 185.956,134.097 186.140,134.473 186.359 M147.111 186.395 C 147.291 186.686,147.193 186.774,146.841 186.639 C 146.121 186.361,146.277 193.766,147.002 194.227 C 147.766 194.714,148.369 194.569,148.582 193.848 C 148.744 193.297,148.768 193.312,148.706 193.928 C 148.661 194.373,148.222 194.806,147.654 194.963 C 146.836 195.191,146.808 195.241,147.480 195.274 C 148.934 195.344,149.219 194.570,149.219 190.547 C 149.219 187.693,149.095 186.744,148.730 186.816 C 148.462 186.870,148.286 186.694,148.340 186.426 C 148.394 186.157,148.076 185.938,147.633 185.938 C 147.119 185.938,146.931 186.102,147.111 186.395 M132.148 189.453 C 132.148 190.635,132.222 191.118,132.311 190.527 C 132.401 189.937,132.401 188.970,132.311 188.379 C 132.222 187.788,132.148 188.271,132.148 189.453 M145.842 190.820 C 145.841 192.754,145.907 193.594,145.989 192.688 C 146.070 191.781,146.071 190.199,145.991 189.172 C 145.910 188.145,145.843 188.887,145.842 190.820 M157.924 190.430 C 157.927 191.504,158.003 191.897,158.093 191.303 C 158.183 190.709,158.180 189.831,158.087 189.350 C 157.995 188.870,157.921 189.355,157.924 190.430 M153.006 196.685 C 152.649 197.434,152.437 198.047,152.535 198.047 C 152.803 198.047,153.988 195.655,153.810 195.476 C 153.725 195.392,153.363 195.935,153.006 196.685 M109.864 204.492 C 109.868 205.352,109.948 205.657,110.042 205.171 C 110.135 204.685,110.132 203.982,110.034 203.609 C 109.936 203.235,109.860 203.633,109.864 204.492 M158.384 208.691 L 156.445 210.742 158.496 208.804 C 159.624 207.738,160.547 206.815,160.547 206.753 C 160.547 206.461,160.185 206.786,158.384 208.691 M162.613 208.301 C 162.711 208.569,162.418 209.229,161.962 209.766 L 161.133 210.742 162.179 209.822 C 163.046 209.059,163.320 207.813,162.621 207.813 C 162.519 207.813,162.515 208.032,162.613 208.301 M142.285 219.410 C 142.661 219.508,143.276 219.508,143.652 219.410 C 144.028 219.312,143.721 219.231,142.969 219.231 C 142.217 219.231,141.909 219.312,142.285 219.410 " stroke="none" fill="#447f82" fill-rule="evenodd" data-darkreader-inline-fill="" data-darkreader-inline-stroke="" ></path></g></svg>