<svg version="1.1" id="Layer_1" xmlns="http://www.w3.org/2000/svg" xmlns:xlink="http://www.w3.org/1999/xlink" x="0px" y="0px"
	 width="100%" viewBox="0 0 1024 1024" enable-background="new 0 0 1024 1024" xml:space="preserve">
<path fill="#1E2326" opacity="1.000000" stroke="none" 
	d="
M569.000000,1025.000000 
	C379.333344,1025.000000 190.166672,1025.000000 1.000000,1025.000000 
	C1.000000,683.666687 1.000000,342.333344 1.000000,1.000000 
	C342.333344,1.000000 683.666687,1.000000 1025.000000,1.000000 
	C1025.000000,342.333344 1025.000000,683.666687 1025.000000,1025.000000 
	C873.166687,1025.000000 721.333313,1025.000000 569.000000,1025.000000 
M336.023407,463.036652 
	C336.023407,463.036652 336.036346,463.221893 336.602539,463.023407 
	C336.805573,462.691132 337.008606,462.358856 337.035370,461.991394 
	C337.035370,461.991394 337.000305,462.167664 337.617767,462.016205 
	C337.902893,461.708099 338.188019,461.399963 339.061829,460.813660 
	C352.012085,451.205444 367.499634,450.231964 380.123596,458.232788 
	C392.512085,466.084290 398.689056,480.527405 396.024475,495.412262 
	C393.354340,510.328033 382.507385,520.762329 365.509949,524.248840 
	C365.509949,524.248840 365.042725,524.406616 364.215515,524.358276 
	C355.523895,524.483154 346.832275,524.608032 337.199585,524.522278 
	C331.074127,524.689148 324.908600,524.472534 318.831940,525.106812 
	C307.907410,526.247131 297.819427,529.659424 289.332153,538.160217 
	C285.215302,544.709717 280.830231,551.110046 277.076263,557.861267 
	C274.590454,562.331787 273.198181,567.398315 270.927826,572.006592 
	C270.054169,573.779907 268.103882,575.022705 266.644135,576.507263 
	C265.138611,574.846497 262.915924,573.427124 262.260498,571.480103 
	C260.200470,565.360779 257.952148,559.138855 257.168671,552.785095 
	C254.157440,528.365112 252.149704,503.815247 248.821991,479.442963 
	C247.172028,467.358551 243.876251,455.436981 240.493378,443.681030 
	C239.107071,438.863464 235.019699,435.175415 229.282944,435.150574 
	C223.345398,435.124878 220.688858,439.516968 218.410217,444.097168 
	C217.526001,445.874481 216.652039,447.745789 216.275772,449.672394 
	C213.985031,461.402130 211.839066,473.160095 209.327560,485.583313 
	C209.304932,486.076050 209.282303,486.568787 209.035233,487.770813 
	C208.878067,489.509064 208.720901,491.247314 208.283005,493.642517 
	C208.275620,494.115326 208.268250,494.588135 208.053513,495.606171 
	C208.033585,496.373749 208.013657,497.141327 207.688629,498.761566 
	C205.176666,514.032288 204.851364,529.786438 197.555161,544.286316 
	C195.487320,540.528564 193.858154,536.773499 193.071182,532.849609 
	C190.256287,518.814331 187.942017,504.676056 184.967911,490.676697 
	C183.984512,486.047760 182.195145,481.332947 179.684265,477.343445 
	C175.505508,470.703918 168.268997,470.709595 163.621277,477.067017 
	C161.596802,479.836212 160.236755,483.158905 158.946945,486.379242 
	C157.526550,489.925751 156.642365,493.683075 155.332138,497.278412 
	C152.419083,505.272003 148.505569,508.196625 140.109146,508.425323 
	C133.117142,508.615753 126.116920,508.558807 119.120819,508.521179 
	C115.715057,508.502838 112.327080,508.772491 112.361847,513.150391 
	C112.398270,517.734802 116.121559,517.458862 119.322281,517.463257 
	C125.819168,517.472107 132.316788,517.488342 138.812897,517.406128 
	C152.157837,517.237183 159.434021,512.088013 164.009766,499.519562 
	C165.432327,495.612213 166.486511,491.569885 167.934128,487.672821 
	C168.712769,485.576599 169.967743,483.657318 171.007812,481.658173 
	C171.521545,481.626190 172.035294,481.594177 172.549026,481.562164 
	C173.739197,484.702026 175.386322,487.750122 176.038437,490.998016 
	C178.528900,503.401764 180.425186,515.929077 183.097443,528.290405 
	C184.562210,535.066040 186.802414,541.732483 189.336426,548.195923 
	C190.782730,551.884949 194.062881,554.275330 198.468277,553.905823 
	C202.783310,553.543823 205.726654,550.864136 206.873932,547.033752 
	C209.151428,539.430115 210.840591,531.650330 212.973785,523.317627 
	C212.969833,522.882019 212.965881,522.446350 213.217529,521.422546 
	C213.164963,520.806763 213.112381,520.190918 213.570221,519.008545 
	C213.822693,517.021667 214.075180,515.034729 214.671127,512.320190 
	C214.711853,511.522949 214.752579,510.725677 215.015518,509.163757 
	C216.017960,501.568970 216.746643,493.925507 218.085953,486.390625 
	C220.180130,474.608887 222.545013,462.869141 225.128067,451.185181 
	C225.715836,448.526581 227.664612,446.168884 228.986954,443.672668 
	C229.660889,443.680420 230.334824,443.688171 231.008759,443.695892 
	C232.654144,447.726501 235.044281,451.621552 235.807037,455.812744 
	C238.218628,469.064117 240.324478,482.388550 241.988998,495.754395 
	C244.539948,516.238220 246.261978,536.830627 249.105057,557.269897 
	C250.094879,564.385742 252.518036,571.617432 255.791367,578.027893 
	C260.930267,588.091797 271.698639,588.012085 277.559814,578.370972 
	C279.620453,574.981323 281.022736,571.185974 282.663757,567.547913 
	C285.460480,561.347717 288.208282,555.125366 291.454529,548.573853 
	C291.736969,548.067688 292.019440,547.561523 292.079956,547.046936 
	C292.079956,547.046936 292.072205,547.268799 292.630920,547.047668 
	C292.815430,546.702332 292.999969,546.356934 293.078735,546.080933 
	C293.078735,546.080933 293.148804,546.186279 293.736359,545.859436 
	C299.225372,539.861694 306.178986,536.312195 314.026093,535.019653 
	C321.034454,533.865234 328.200623,533.669250 336.184998,533.211792 
	C345.164948,533.245361 354.149139,533.473267 363.123993,533.275330 
	C388.091248,532.724792 408.417694,509.338196 405.513000,484.562653 
	C403.419128,466.703186 394.269440,453.666443 377.546600,446.981628 
	C360.763794,440.272980 345.296661,443.180298 331.411591,455.941010 
	C331.185303,456.272430 330.959045,456.603851 330.943207,456.940338 
	C330.943207,456.940338 330.947601,456.729858 330.355835,456.920868 
	C330.154510,457.268188 329.953186,457.615540 329.902191,457.836853 
	C329.902191,457.836853 329.775513,457.687073 329.192841,458.020599 
	C325.942902,463.560852 321.607697,468.747223 319.662323,474.712891 
	C315.214905,488.351562 318.006104,502.571411 317.427307,516.675293 
	C320.622101,516.675293 323.177917,516.675293 326.204285,516.675293 
	C326.204285,508.652435 326.389374,501.027893 326.158997,493.415924 
	C325.847382,483.119659 328.135376,473.677185 334.226166,465.176270 
	C334.226166,465.176270 334.082062,465.281097 334.666199,465.087463 
	C334.854126,464.733612 335.042053,464.379761 335.034607,464.029358 
	C335.034607,464.029358 335.038391,464.224731 335.605133,464.025543 
	C335.806305,463.691742 336.007477,463.357910 336.023407,463.036652 
M303.810364,571.849548 
	C311.148376,566.136902 319.519104,563.283508 328.765808,563.116028 
	C337.405548,562.959473 346.053802,563.177063 354.689545,562.926697 
	C361.470978,562.730103 368.239044,562.070862 375.782898,561.579041 
	C417.909332,552.925537 443.956665,510.297363 432.449127,468.841095 
	C424.311890,439.526489 399.268219,417.450684 371.458649,415.010925 
	C371.458649,415.010925 371.486176,415.009705 370.600830,414.845551 
	C357.723450,414.728058 344.846039,414.610596 331.053986,414.321228 
	C328.225006,414.295288 325.395813,414.233948 322.567047,414.248901 
	C297.667908,414.380646 282.086212,429.963043 282.053314,454.851990 
	C282.020996,479.318268 282.066345,503.784698 282.098389,528.251038 
	C282.100433,529.818665 282.281128,531.385986 282.395782,533.228149 
	C288.577148,530.336792 291.419434,526.651489 291.249023,519.623718 
	C290.708618,497.333954 290.891449,475.022278 291.059845,452.721069 
	C291.189941,435.488159 303.198761,423.640228 320.379608,423.326965 
	C326.197418,423.220917 332.015778,423.144257 338.781219,423.210968 
	C348.345245,423.246368 357.909271,423.281738 367.966949,423.621155 
	C368.529449,423.640594 369.091919,423.660034 370.456787,423.881836 
	C409.585449,429.790863 434.680573,468.011749 423.674530,505.982635 
	C416.291595,531.453796 399.086395,547.243652 372.172516,553.102661 
	C356.157562,553.677490 340.144440,554.310181 324.127014,554.805481 
	C314.477875,555.103943 306.050537,558.290955 298.292267,565.086243 
	C288.238678,573.933533 283.420807,585.299011 282.291138,598.424500 
	C281.162048,611.543457 282.871399,613.119080 295.892303,611.042358 
	C313.467072,608.239380 328.814880,587.956787 325.832550,571.475403 
	C318.782288,571.342651 318.011932,572.080078 316.721405,578.580078 
	C314.707611,588.722778 309.028320,596.195374 299.574097,600.482910 
	C297.185486,601.566162 294.374237,601.717529 291.401703,602.375854 
	C291.356323,589.991943 295.313202,580.267761 303.810364,571.849548 
M489.533875,519.845215 
	C490.863068,520.684814 492.171875,522.209473 493.524780,522.249634 
	C500.676788,522.461975 507.851929,522.553833 514.996582,522.214844 
	C528.720642,521.563599 536.906677,512.315369 536.703308,498.116241 
	C536.491638,483.334412 528.799683,474.916260 514.706665,474.526733 
	C505.555756,474.273804 496.388214,474.394562 487.233093,474.585022 
	C478.834076,474.759766 472.826172,480.146484 472.621246,488.550934 
	C472.235657,504.360809 472.437866,520.185913 472.512207,536.004211 
	C472.517395,537.111206 473.188660,538.789429 474.046204,539.224548 
	C479.448212,541.965637 484.346283,538.835205 484.364899,532.782104 
	C484.405853,519.460266 484.434906,506.138336 484.423157,492.816498 
	C484.419861,489.085999 485.258636,486.039276 489.761597,486.006470 
	C498.419769,485.943390 507.120972,485.524933 515.713379,486.283966 
	C518.515808,486.531586 522.273926,489.421814 523.465820,492.063934 
	C528.127747,502.397644 522.279358,510.846924 510.991302,510.944427 
	C504.049286,511.004364 497.106323,510.955536 489.495361,510.955536 
	C489.495361,514.092285 489.495361,516.548279 489.533875,519.845215 
M803.112915,506.499756 
	C803.118164,511.830902 803.011475,517.165039 803.153381,522.492493 
	C803.402100,531.826599 809.193115,538.433044 818.424622,539.114746 
	C825.878601,539.665222 833.421082,539.718384 840.882935,539.283569 
	C850.236816,538.738342 855.929077,532.977600 856.487427,523.596252 
	C856.861938,517.302063 856.653625,510.923767 856.098694,504.636688 
	C855.465759,497.465302 850.275452,491.676117 843.455200,491.143036 
	C835.731873,490.539398 827.925049,491.003784 820.178772,491.003784 
	C820.178772,494.708313 820.178772,498.226288 820.178772,501.913818 
	C826.141968,501.913818 831.630676,501.828766 837.115479,501.937805 
	C842.590820,502.046631 844.557739,504.054962 844.728821,509.570251 
	C844.842468,513.232361 844.873657,516.901855 844.786438,520.564331 
	C844.653687,526.135437 842.730103,528.124573 837.269226,528.262512 
	C832.774109,528.376160 828.273376,528.316162 823.775757,528.268921 
	C816.700500,528.194641 814.956970,526.461182 814.943115,519.352234 
	C814.914917,504.858429 814.953430,490.364502 814.939575,475.870636 
	C814.937927,474.117004 814.782471,472.363495 814.699646,470.637665 
	C810.573853,470.637665 807.023621,470.637665 803.113220,470.637665 
	C803.113220,482.542633 803.113220,494.021240 803.112915,506.499756 
M607.280029,502.907471 
	C608.312134,504.859314 609.974854,506.729828 610.239380,508.780670 
	C610.725342,512.548401 610.467407,516.424255 610.375366,520.251587 
	C610.227966,526.381226 608.432983,528.138733 602.145081,528.276123 
	C597.817871,528.370728 593.479553,528.435425 589.159424,528.232178 
	C585.604248,528.064880 585.250916,530.282471 585.679932,532.720093 
	C586.114807,535.190918 583.556885,539.404602 588.789856,539.518616 
	C594.776733,539.648987 600.801025,539.779114 606.755737,539.277405 
	C616.076050,538.492126 621.820801,532.157837 622.150757,522.754333 
	C622.325806,517.766174 622.314697,512.757507 622.086365,507.771942 
	C621.607300,497.314697 615.063843,490.873047 604.521851,490.569641 
	C598.201477,490.387726 591.862488,490.452606 585.543579,490.702606 
	C574.900452,491.123749 568.940002,497.130249 568.822754,507.782623 
	C568.659668,522.600952 568.787659,537.422546 568.818115,552.242676 
	C568.820129,553.209717 569.052185,554.176270 569.197876,555.302124 
	C570.317993,555.464905 571.272400,555.690308 572.234375,555.729858 
	C580.718262,556.078735 580.739258,556.068970 580.752686,547.546570 
	C580.772766,534.724609 580.793030,521.902527 580.742310,509.080811 
	C580.727234,505.266388 581.983887,502.164398 586.099854,502.056366 
	C592.893677,501.878021 599.703735,502.314880 607.280029,502.907471 
M677.693481,519.272583 
	C683.263611,514.533997 685.372681,507.663391 682.925720,500.921661 
	C680.504761,494.251648 675.321777,490.895813 668.401794,490.621002 
	C661.421814,490.343842 654.411194,490.323090 647.433289,490.629181 
	C637.404175,491.069122 631.289551,497.568451 631.013062,507.712677 
	C630.881592,512.537415 630.922729,517.369324 630.992615,522.196533 
	C631.111023,530.371826 635.672241,537.153564 643.693542,538.483032 
	C651.780151,539.823364 660.143311,539.495239 668.669556,539.912109 
	C668.669556,535.606384 668.669556,532.356445 668.669556,528.718384 
	C666.798950,528.594360 665.175598,528.417175 663.549927,528.393494 
	C660.220764,528.344910 656.890442,528.382324 653.560608,528.377930 
	C643.159363,528.364319 642.754578,527.973267 642.740906,517.800720 
	C642.736206,514.305359 642.683655,510.806885 642.809753,507.315460 
	C642.930298,503.977112 644.880188,501.907684 648.121094,501.814514 
	C654.603577,501.628204 661.126526,501.482117 667.564880,502.067078 
	C669.231567,502.218506 671.885864,505.173157 671.841125,506.777649 
	C671.793152,508.503021 669.364502,510.608643 667.481506,511.688660 
	C666.089478,512.487061 663.907227,511.932190 662.076965,511.937653 
	C657.328796,511.951782 652.580627,511.942352 647.396240,511.942352 
	C647.396240,514.872986 647.135376,517.052734 647.496643,519.123962 
	C647.704468,520.315430 648.930359,522.288818 649.679626,522.280457 
	C658.876404,522.177551 668.361694,524.696655 677.693481,519.272583 
M747.069275,536.491272 
	C758.603943,541.399841 770.547852,540.696655 782.237671,537.939636 
	C789.425964,536.244263 792.821045,530.228943 793.046692,522.836182 
	C793.203979,517.682983 793.187988,512.515869 793.012817,507.363007 
	C792.700012,498.161407 786.656372,491.424561 777.558411,490.857635 
	C770.105591,490.393219 762.571655,490.404877 755.122314,490.914948 
	C745.562805,491.569550 739.698303,498.028198 739.285461,507.608276 
	C739.084961,512.260010 739.172119,516.925781 739.188538,521.585022 
	C739.209778,527.610168 741.264221,532.642273 747.069275,536.491272 
M902.262268,538.949097 
	C911.088623,535.754150 914.921570,529.814514 913.793701,521.079468 
	C912.776184,513.198669 907.839966,508.658691 898.735291,507.877930 
	C893.443420,507.424133 888.076904,507.857239 882.780151,507.436188 
	C880.994568,507.294281 879.320312,505.751007 877.595215,504.848175 
	C879.371582,503.879822 881.119995,502.140900 882.929260,502.075195 
	C891.204590,501.774689 899.496887,501.943176 908.072693,501.943176 
	C908.072693,498.087860 908.072693,494.562103 908.072693,490.900299 
	C897.739319,490.900299 887.767639,490.566040 877.832214,491.020966 
	C871.494019,491.311188 867.138428,495.676117 865.893860,501.365845 
	C863.947571,510.263550 868.431702,517.080872 877.582397,518.124573 
	C884.007507,518.857361 890.541260,518.615967 897.023682,518.878540 
	C900.141663,519.004761 902.562073,520.703735 901.812195,523.799255 
	C901.388733,525.547119 898.799438,527.822144 897.007996,527.992859 
	C891.232605,528.542847 885.374817,528.231689 879.548767,528.242676 
	C875.120789,528.251038 870.692810,528.244324 866.223267,528.244324 
	C866.223267,532.345886 866.223267,535.755737 866.223267,539.080627 
	C878.198120,539.080627 889.820251,539.080627 902.262268,538.949097 
M710.960876,501.905792 
	C718.208801,501.905792 725.456665,501.905792 732.774475,501.905792 
	C732.774475,497.810394 732.774475,494.531860 732.774475,491.208588 
	C731.732056,491.033508 730.918457,490.781403 730.103882,490.778076 
	C722.956299,490.748932 715.801758,490.566284 708.662476,490.812775 
	C698.053833,491.179016 692.593628,496.869568 692.408875,507.547668 
	C692.276489,515.192505 692.361511,522.841248 692.370728,530.488281 
	C692.382690,540.364258 692.392456,540.370239 702.339172,539.270691 
	C702.794739,539.220337 703.218994,538.887024 703.985352,538.535156 
	C703.985352,528.667786 704.023010,518.708923 703.967529,508.750549 
	C703.944153,504.560547 705.681580,502.110931 710.960876,501.905792 
M263.204468,497.799896 
	C263.204803,514.592712 263.197968,531.385559 263.217926,548.178406 
	C263.219696,549.666565 262.909668,551.464233 263.611389,552.565918 
	C264.539368,554.022766 266.358887,555.873352 267.729095,555.821045 
	C269.149933,555.766968 270.721069,553.809143 271.776642,552.356995 
	C272.348633,551.570129 272.032684,550.101807 272.032990,548.940857 
	C272.037689,531.482971 272.035400,514.025085 272.008331,496.567261 
	C272.006287,495.247162 272.264343,493.574982 271.586670,492.691528 
	C270.610748,491.419250 268.934753,490.086060 267.467926,489.976257 
	C266.280426,489.887390 264.559082,491.318665 263.815704,492.530365 
	C263.112457,493.676727 263.374268,495.415192 263.204468,497.799896 
M545.844238,514.500000 
	C545.844238,522.598999 545.844238,530.698059 545.844238,539.081055 
	C547.879272,539.262817 549.334290,539.466980 550.794067,539.510498 
	C557.529053,539.710999 557.538757,539.695007 557.540833,532.802307 
	C557.544128,521.510620 557.533936,510.218994 557.529785,498.927338 
	C557.528870,496.340515 557.529663,493.753723 557.529663,490.634766 
	C554.924805,490.634766 553.103699,490.824677 551.336426,490.597046 
	C547.044861,490.044373 545.392151,491.551819 545.705688,496.070923 
	C546.107117,501.855896 545.827515,507.688141 545.844238,514.500000 
M356.831940,509.843567 
	C356.699219,513.107117 357.111816,516.142334 361.342621,516.038696 
	C365.561798,515.935425 365.701721,512.752136 365.698364,509.591522 
	C365.683533,495.609650 365.668640,481.627716 365.698486,467.645905 
	C365.704498,464.823242 365.556061,461.975830 362.075806,461.531982 
	C357.676910,460.970947 356.828644,463.940918 356.833252,467.527130 
	C356.850952,481.342529 356.833649,495.158020 356.831940,509.843567 
M225.306458,508.439575 
	C225.316849,510.599701 225.276901,512.761536 225.349609,514.919556 
	C225.454132,518.021667 225.607132,521.226440 229.956329,521.094055 
	C234.000992,520.970947 234.063950,517.954468 234.069229,515.019287 
	C234.091385,502.722931 234.095245,490.426544 234.109558,478.130188 
	C234.113235,474.969666 233.846130,471.661713 229.767914,471.612701 
	C225.646454,471.563171 225.359543,474.911743 225.348434,478.046509 
	C225.313644,487.850250 225.315186,497.654114 225.306458,508.439575 
M308.569122,491.512024 
	C308.574005,488.021973 308.629974,484.530975 308.568390,481.042114 
	C308.514252,477.975281 307.763580,475.153564 303.960266,475.266205 
	C300.177948,475.378235 299.651062,478.198334 299.655090,481.287018 
	C299.671082,493.585510 299.631470,505.884064 299.665100,518.182495 
	C299.668060,519.262573 300.053864,520.341675 300.263977,521.432434 
	C308.472748,519.552490 308.481415,519.552551 308.514374,511.952850 
	C308.542480,505.471283 308.547607,498.989624 308.569122,491.512024 
M383.036957,490.950806 
	C383.037476,487.958801 383.492828,484.868378 382.874481,482.010254 
	C382.479309,480.183441 380.496796,478.700073 379.225861,477.062714 
	C377.645813,478.603516 374.959930,479.979218 374.700439,481.717194 
	C374.019989,486.274811 373.990234,491.040405 374.551453,495.618866 
	C374.780426,497.486847 377.001221,500.266754 378.673340,500.554626 
	C381.882111,501.107025 383.097046,498.393036 383.013611,495.317383 
	C382.982056,494.154938 383.024475,492.990509 383.036957,490.950806 
M342.217834,500.991089 
	C345.717834,501.789581 347.833984,500.381958 347.958405,496.829376 
	C348.137878,491.703949 348.328705,486.528320 347.765625,481.457275 
	C347.588135,479.858856 345.006958,478.527344 343.525848,477.073639 
	C342.220795,478.523651 339.957397,479.871582 339.790070,481.442780 
	C339.284424,486.190521 339.427429,491.033386 339.673828,495.820862 
	C339.758667,497.469421 340.892242,499.063995 342.217834,500.991089 
M557.573059,474.678497 
	C557.017029,469.713104 554.338318,468.805908 546.195984,470.919983 
	C546.195984,474.251740 546.195984,477.620209 546.195984,480.917847 
	C556.765625,482.483337 557.548706,482.094147 557.573059,474.678497 
z"/>
<path fill="#8467C9" opacity="1.000000" stroke="none" 
	d="
M290.976654,548.912354 
	C288.208282,555.125366 285.460480,561.347717 282.663757,567.547913 
	C281.022736,571.185974 279.620453,574.981323 277.559814,578.370972 
	C271.698639,588.012085 260.930267,588.091797 255.791367,578.027893 
	C252.518036,571.617432 250.094879,564.385742 249.105057,557.269897 
	C246.261978,536.830627 244.539948,516.238220 241.988998,495.754395 
	C240.324478,482.388550 238.218628,469.064117 235.807037,455.812744 
	C235.044281,451.621552 232.654144,447.726501 231.008759,443.695892 
	C230.334824,443.688171 229.660889,443.680420 228.986954,443.672668 
	C227.664612,446.168884 225.715836,448.526581 225.128067,451.185181 
	C222.545013,462.869141 220.180130,474.608887 218.085953,486.390625 
	C216.746643,493.925507 216.017960,501.568970 214.753906,509.206879 
	C214.534683,507.624969 214.455627,505.986053 214.639511,504.377197 
	C215.708237,495.026428 216.974396,485.694702 217.806152,476.323944 
	C217.934921,474.873383 216.169205,473.254700 215.279587,471.713745 
	C214.207825,473.143646 212.763077,474.430206 212.146210,476.034973 
	C211.048264,478.891327 210.451279,481.940277 209.644791,484.908661 
	C211.839066,473.160095 213.985031,461.402130 216.275772,449.672394 
	C216.652039,447.745789 217.526001,445.874481 218.410217,444.097168 
	C220.688858,439.516968 223.345398,435.124878 229.282944,435.150574 
	C235.019699,435.175415 239.107071,438.863464 240.493378,443.681030 
	C243.876251,455.436981 247.172028,467.358551 248.821991,479.442963 
	C252.149704,503.815247 254.157440,528.365112 257.168671,552.785095 
	C257.952148,559.138855 260.200470,565.360779 262.260498,571.480103 
	C262.915924,573.427124 265.138611,574.846497 266.644135,576.507263 
	C268.103882,575.022705 270.054169,573.779907 270.927826,572.006592 
	C273.198181,567.398315 274.590454,562.331787 277.076263,557.861267 
	C280.830231,551.110046 285.215302,544.709717 289.791901,538.342102 
	C291.217377,541.078064 292.183105,543.632202 293.148804,546.186279 
	C293.148804,546.186279 293.078735,546.080933 292.925720,546.237366 
	C292.539185,546.685425 292.305695,546.977112 292.072205,547.268799 
	C292.072205,547.268799 292.079956,547.046936 291.966949,547.240479 
	C291.561493,547.926880 291.269073,548.419617 290.976654,548.912354 
z"/>
<path fill="#4FA9B7" opacity="1.000000" stroke="none" 
	d="
M331.968658,414.493134 
	C344.846039,414.610596 357.723450,414.728058 371.016724,414.928040 
	C371.432587,415.010498 371.379974,415.009094 371.379974,415.009094 
	C399.268219,417.450684 424.311890,439.526489 432.449127,468.841095 
	C443.956665,510.297363 417.909332,552.925537 375.247040,561.307373 
	C374.163696,558.407898 373.616211,555.780029 373.068756,553.152222 
	C399.086395,547.243652 416.291595,531.453796 423.674530,505.982635 
	C434.680573,468.011749 409.585449,429.790863 369.802063,423.679077 
	C368.589294,423.423248 368.031311,423.370178 367.473297,423.317139 
	C357.909271,423.281738 348.345245,423.246368 337.987854,422.943481 
	C335.563721,422.450806 333.935211,422.207275 332.301636,422.004272 
	C329.160187,421.613800 327.318024,419.978088 326.889465,416.933624 
	C328.781219,416.024658 330.374939,415.258911 331.968658,414.493134 
z"/>
<path fill="#8352C9" opacity="1.000000" stroke="none" 
	d="
M209.486176,485.245972 
	C210.451279,481.940277 211.048264,478.891327 212.146210,476.034973 
	C212.763077,474.430206 214.207825,473.143646 215.279587,471.713745 
	C216.169205,473.254700 217.934921,474.873383 217.806152,476.323944 
	C216.974396,485.694702 215.708237,495.026428 214.639511,504.377197 
	C214.455627,505.986053 214.534683,507.624969 214.642792,509.589233 
	C214.752579,510.725677 214.711853,511.522949 214.262268,512.943420 
	C213.588867,515.569458 213.324326,517.572327 213.059784,519.575134 
	C213.112381,520.190918 213.164963,520.806763 212.971161,521.890381 
	C212.740814,522.886597 212.756851,523.414978 212.772888,523.943298 
	C210.840591,531.650330 209.151428,539.430115 206.873932,547.033752 
	C205.726654,550.864136 202.783310,553.543823 198.468277,553.905823 
	C194.062881,554.275330 190.782730,551.884949 189.336426,548.195923 
	C186.802414,541.732483 184.562210,535.066040 183.097443,528.290405 
	C180.425186,515.929077 178.528900,503.401764 176.038437,490.998016 
	C175.386322,487.750122 173.739197,484.702026 172.549026,481.562164 
	C172.035294,481.594177 171.521545,481.626190 171.007812,481.658173 
	C169.967743,483.657318 168.712769,485.576599 167.934128,487.672821 
	C166.486511,491.569885 165.432327,495.612213 164.009766,499.519562 
	C159.434021,512.088013 152.157837,517.237183 138.812897,517.406128 
	C132.316788,517.488342 125.819168,517.472107 119.322281,517.463257 
	C116.121559,517.458862 112.398270,517.734802 112.361847,513.150391 
	C112.327080,508.772491 115.715057,508.502838 119.120819,508.521179 
	C126.116920,508.558807 133.117142,508.615753 140.109146,508.425323 
	C148.505569,508.196625 152.419083,505.272003 155.332138,497.278412 
	C156.642365,493.683075 157.526550,489.925751 158.946945,486.379242 
	C160.236755,483.158905 161.596802,479.836212 163.621277,477.067017 
	C168.268997,470.709595 175.505508,470.703918 179.684265,477.343445 
	C182.195145,481.332947 183.984512,486.047760 184.967911,490.676697 
	C187.942017,504.676056 190.256287,518.814331 193.071182,532.849609 
	C193.858154,536.773499 195.487320,540.528564 197.555161,544.286316 
	C204.851364,529.786438 205.176666,514.032288 207.995361,498.173004 
	C208.288361,496.743286 208.274612,495.902100 208.260864,495.060944 
	C208.268250,494.588135 208.275620,494.115326 208.655380,493.104614 
	C209.105072,490.731628 209.182373,488.896576 209.259674,487.061523 
	C209.282303,486.568787 209.304932,486.076050 209.486176,485.245972 
z"/>
<path fill="#8352C9" opacity="1.000000" stroke="none" 
	d="
M489.514618,519.424683 
	C489.495361,516.548279 489.495361,514.092285 489.495361,510.955536 
	C497.106323,510.955536 504.049286,511.004364 510.991302,510.944427 
	C522.279358,510.846924 528.127747,502.397644 523.465820,492.063934 
	C522.273926,489.421814 518.515808,486.531586 515.713379,486.283966 
	C507.120972,485.524933 498.419769,485.943390 489.761597,486.006470 
	C485.258636,486.039276 484.419861,489.085999 484.423157,492.816498 
	C484.434906,506.138336 484.405853,519.460266 484.364899,532.782104 
	C484.346283,538.835205 479.448212,541.965637 474.046204,539.224548 
	C473.188660,538.789429 472.517395,537.111206 472.512207,536.004211 
	C472.437866,520.185913 472.235657,504.360809 472.621246,488.550934 
	C472.826172,480.146484 478.834076,474.759766 487.233093,474.585022 
	C496.388214,474.394562 505.555756,474.273804 514.706665,474.526733 
	C528.799683,474.916260 536.491638,483.334412 536.703308,498.116241 
	C536.906677,512.315369 528.720642,521.563599 514.996582,522.214844 
	C507.851929,522.553833 500.676788,522.461975 493.524780,522.249634 
	C492.171875,522.209473 490.863068,520.684814 489.514618,519.424683 
z"/>
<path fill="#B47BE5" opacity="1.000000" stroke="none" 
	d="
M803.113037,505.999817 
	C803.113220,494.021240 803.113220,482.542633 803.113220,470.637665 
	C807.023621,470.637665 810.573853,470.637665 814.699646,470.637665 
	C814.782471,472.363495 814.937927,474.117004 814.939575,475.870636 
	C814.953430,490.364502 814.914917,504.858429 814.943115,519.352234 
	C814.956970,526.461182 816.700500,528.194641 823.775757,528.268921 
	C828.273376,528.316162 832.774109,528.376160 837.269226,528.262512 
	C842.730103,528.124573 844.653687,526.135437 844.786438,520.564331 
	C844.873657,516.901855 844.842468,513.232361 844.728821,509.570251 
	C844.557739,504.054962 842.590820,502.046631 837.115479,501.937805 
	C831.630676,501.828766 826.141968,501.913818 820.178772,501.913818 
	C820.178772,498.226288 820.178772,494.708313 820.178772,491.003784 
	C827.925049,491.003784 835.731873,490.539398 843.455200,491.143036 
	C850.275452,491.676117 855.465759,497.465302 856.098694,504.636688 
	C856.653625,510.923767 856.861938,517.302063 856.487427,523.596252 
	C855.929077,532.977600 850.236816,538.738342 840.882935,539.283569 
	C833.421082,539.718384 825.878601,539.665222 818.424622,539.114746 
	C809.193115,538.433044 803.402100,531.826599 803.153381,522.492493 
	C803.011475,517.165039 803.118164,511.830902 803.113037,505.999817 
z"/>
<path fill="#8467C9" opacity="1.000000" stroke="none" 
	d="
M606.893494,502.699951 
	C599.703735,502.314880 592.893677,501.878021 586.099854,502.056366 
	C581.983887,502.164398 580.727234,505.266388 580.742310,509.080811 
	C580.793030,521.902527 580.772766,534.724609 580.752686,547.546570 
	C580.739258,556.068970 580.718262,556.078735 572.234375,555.729858 
	C571.272400,555.690308 570.317993,555.464905 569.197876,555.302124 
	C569.052185,554.176270 568.820129,553.209717 568.818115,552.242676 
	C568.787659,537.422546 568.659668,522.600952 568.822754,507.782623 
	C568.940002,497.130249 574.900452,491.123749 585.543579,490.702606 
	C591.862488,490.452606 598.201477,490.387726 604.521851,490.569641 
	C615.063843,490.873047 621.607300,497.314697 622.086365,507.771942 
	C622.314697,512.757507 622.325806,517.766174 622.150757,522.754333 
	C621.820801,532.157837 616.076050,538.492126 606.755737,539.277405 
	C600.801025,539.779114 594.776733,539.648987 588.789856,539.518616 
	C583.556885,539.404602 586.114807,535.190918 585.679932,532.720093 
	C585.250916,530.282471 585.604248,528.064880 589.159424,528.232178 
	C593.479553,528.435425 597.817871,528.370728 602.145081,528.276123 
	C608.432983,528.138733 610.227966,526.381226 610.375366,520.251587 
	C610.467407,516.424255 610.725342,512.548401 610.239380,508.780670 
	C609.974854,506.729828 608.312134,504.859314 606.893494,502.699951 
z"/>
<path fill="#4FA9B7" opacity="1.000000" stroke="none" 
	d="
M332.028320,455.885468 
	C345.296661,443.180298 360.763794,440.272980 377.546600,446.981628 
	C394.269440,453.666443 403.419128,466.703186 405.513000,484.562653 
	C408.417694,509.338196 388.091248,532.724792 363.123993,533.275330 
	C354.149139,533.473267 345.164948,533.245361 335.411560,532.933472 
	C333.250885,531.553406 331.863647,530.451782 330.476410,529.350098 
	C332.020599,528.256226 333.524414,527.098083 335.124481,526.093140 
	C336.049683,525.512085 337.130096,525.178101 338.140656,524.732910 
	C346.832275,524.608032 355.523895,524.483154 364.750031,524.425354 
	C365.550018,524.527039 365.788849,524.460693 366.001038,524.293457 
	C382.507385,520.762329 393.354340,510.328033 396.024475,495.412262 
	C398.689056,480.527405 392.512085,466.084290 380.123596,458.232788 
	C367.499634,450.231964 352.012085,451.205444 338.503296,461.107727 
	C337.629974,461.657074 337.315125,461.912354 337.000305,462.167664 
	C337.000305,462.167664 337.035370,461.991394 336.910034,462.190704 
	C336.535248,462.667297 336.285797,462.944580 336.036316,463.221863 
	C336.036346,463.221893 336.023407,463.036652 335.904053,463.213867 
	C335.535950,463.668976 335.287170,463.946838 335.038391,464.224731 
	C335.038391,464.224731 335.034607,464.029358 334.923035,464.220551 
	C334.568359,464.701538 334.325195,464.991302 334.082031,465.281067 
	C334.082062,465.281097 334.226166,465.176270 333.873840,465.171936 
	C328.085663,464.770935 329.312897,461.037567 329.775513,457.687073 
	C329.775513,457.687073 329.902191,457.836853 330.043365,457.711426 
	C330.438904,457.300629 330.693268,457.015259 330.947632,456.729858 
	C330.947601,456.729858 330.943207,456.940338 331.071777,456.784058 
	C331.476318,456.380310 331.752319,456.132874 332.028320,455.885468 
z"/>
<path fill="#8467C9" opacity="1.000000" stroke="none" 
	d="
M677.391235,519.481567 
	C668.361694,524.696655 658.876404,522.177551 649.679626,522.280457 
	C648.930359,522.288818 647.704468,520.315430 647.496643,519.123962 
	C647.135376,517.052734 647.396240,514.872986 647.396240,511.942352 
	C652.580627,511.942352 657.328796,511.951782 662.076965,511.937653 
	C663.907227,511.932190 666.089478,512.487061 667.481506,511.688660 
	C669.364502,510.608643 671.793152,508.503021 671.841125,506.777649 
	C671.885864,505.173157 669.231567,502.218506 667.564880,502.067078 
	C661.126526,501.482117 654.603577,501.628204 648.121094,501.814514 
	C644.880188,501.907684 642.930298,503.977112 642.809753,507.315460 
	C642.683655,510.806885 642.736206,514.305359 642.740906,517.800720 
	C642.754578,527.973267 643.159363,528.364319 653.560608,528.377930 
	C656.890442,528.382324 660.220764,528.344910 663.549927,528.393494 
	C665.175598,528.417175 666.798950,528.594360 668.669556,528.718384 
	C668.669556,532.356445 668.669556,535.606384 668.669556,539.912109 
	C660.143311,539.495239 651.780151,539.823364 643.693542,538.483032 
	C635.672241,537.153564 631.111023,530.371826 630.992615,522.196533 
	C630.922729,517.369324 630.881592,512.537415 631.013062,507.712677 
	C631.289551,497.568451 637.404175,491.069122 647.433289,490.629181 
	C654.411194,490.323090 661.421814,490.343842 668.401794,490.621002 
	C675.321777,490.895813 680.504761,494.251648 682.925720,500.921661 
	C685.372681,507.663391 683.263611,514.533997 677.391235,519.481567 
z"/>
<path fill="#B47BE5" opacity="1.000000" stroke="none" 
	d="
M746.769897,536.283569 
	C741.264221,532.642273 739.209778,527.610168 739.188538,521.585022 
	C739.172119,516.925781 739.084961,512.260010 739.285461,507.608276 
	C739.698303,498.028198 745.562805,491.569550 755.122314,490.914948 
	C762.571655,490.404877 770.105591,490.393219 777.558411,490.857635 
	C786.656372,491.424561 792.700012,498.161407 793.012817,507.363007 
	C793.187988,512.515869 793.203979,517.682983 793.046692,522.836182 
	C792.821045,530.228943 789.425964,536.244263 782.237671,537.939636 
	C770.547852,540.696655 758.603943,541.399841 746.769897,536.283569 
M781.390747,516.443176 
	C781.378113,514.116638 781.414307,511.788635 781.343018,509.463898 
	C781.174194,503.965546 779.317322,502.057526 773.732056,501.931274 
	C768.583130,501.814880 763.426697,501.802094 758.278809,501.940460 
	C752.974609,502.082947 751.065918,504.044495 750.954041,509.206085 
	C750.874878,512.860474 750.868347,516.518921 750.936951,520.173523 
	C751.047180,526.048218 753.147644,528.143921 759.156128,528.311768 
	C762.975525,528.418396 766.799866,528.342407 770.622009,528.353638 
	C780.350159,528.382202 781.465210,527.249634 781.390747,516.443176 
z"/>
<path fill="#B47BE5" opacity="1.000000" stroke="none" 
	d="
M901.852295,539.014893 
	C889.820251,539.080627 878.198120,539.080627 866.223267,539.080627 
	C866.223267,535.755737 866.223267,532.345886 866.223267,528.244324 
	C870.692810,528.244324 875.120789,528.251038 879.548767,528.242676 
	C885.374817,528.231689 891.232605,528.542847 897.007996,527.992859 
	C898.799438,527.822144 901.388733,525.547119 901.812195,523.799255 
	C902.562073,520.703735 900.141663,519.004761 897.023682,518.878540 
	C890.541260,518.615967 884.007507,518.857361 877.582397,518.124573 
	C868.431702,517.080872 863.947571,510.263550 865.893860,501.365845 
	C867.138428,495.676117 871.494019,491.311188 877.832214,491.020966 
	C887.767639,490.566040 897.739319,490.900299 908.072693,490.900299 
	C908.072693,494.562103 908.072693,498.087860 908.072693,501.943176 
	C899.496887,501.943176 891.204590,501.774689 882.929260,502.075195 
	C881.119995,502.140900 879.371582,503.879822 877.595215,504.848206 
	C879.320312,505.751007 880.994568,507.294281 882.780151,507.436188 
	C888.076904,507.857239 893.443420,507.424133 898.735291,507.877930 
	C907.839966,508.658691 912.776184,513.198669 913.793701,521.079468 
	C914.921570,529.814514 911.088623,535.754150 901.852295,539.014893 
z"/>
<path fill="#6D87BB" opacity="1.000000" stroke="none" 
	d="
M331.511322,414.407166 
	C330.374939,415.258911 328.781219,416.024658 326.889465,416.933624 
	C327.318024,419.978088 329.160187,421.613800 332.301636,422.004272 
	C333.935211,422.207275 335.563721,422.450806 337.514221,422.865112 
	C332.015778,423.144257 326.197418,423.220917 320.379608,423.326965 
	C303.198761,423.640228 291.189941,435.488159 291.059845,452.721069 
	C290.891449,475.022278 290.708618,497.333954 291.249023,519.623718 
	C291.419434,526.651489 288.577148,530.336792 282.395782,533.228149 
	C282.281128,531.385986 282.100433,529.818665 282.098389,528.251038 
	C282.066345,503.784698 282.020996,479.318268 282.053314,454.851990 
	C282.086212,429.963043 297.667908,414.380646 322.567047,414.248901 
	C325.395813,414.233948 328.225006,414.295288 331.511322,414.407166 
z"/>
<path fill="#8467C9" opacity="1.000000" stroke="none" 
	d="
M303.190460,572.100037 
	C295.313202,580.267761 291.356323,589.991943 291.401703,602.375854 
	C294.374237,601.717529 297.185486,601.566162 299.574097,600.482910 
	C309.028320,596.195374 314.707611,588.722778 316.721405,578.580078 
	C318.011932,572.080078 318.782288,571.342651 325.832550,571.475403 
	C328.814880,587.956787 313.467072,608.239380 295.892303,611.042358 
	C282.871399,613.119080 281.162048,611.543457 282.291138,598.424500 
	C283.420807,585.299011 288.238678,573.933533 298.929535,565.065674 
	C302.961639,566.273438 304.133484,568.643616 303.190460,572.100037 
z"/>
<path fill="#B47BE5" opacity="1.000000" stroke="none" 
	d="
M710.506897,501.913757 
	C705.681580,502.110931 703.944153,504.560547 703.967529,508.750549 
	C704.023010,518.708923 703.985352,528.667786 703.985352,538.535156 
	C703.218994,538.887024 702.794739,539.220337 702.339172,539.270691 
	C692.392456,540.370239 692.382690,540.364258 692.370728,530.488281 
	C692.361511,522.841248 692.276489,515.192505 692.408875,507.547668 
	C692.593628,496.869568 698.053833,491.179016 708.662476,490.812775 
	C715.801758,490.566284 722.956299,490.748932 730.103882,490.778076 
	C730.918457,490.781403 731.732056,491.033508 732.774475,491.208588 
	C732.774475,494.531860 732.774475,497.810394 732.774475,501.905792 
	C725.456665,501.905792 718.208801,501.905792 710.506897,501.913757 
z"/>
<path fill="#6D87BB" opacity="1.000000" stroke="none" 
	d="
M303.500427,571.974792 
	C304.133484,568.643616 302.961639,566.273438 299.237762,564.929077 
	C306.050537,558.290955 314.477875,555.103943 324.127014,554.805481 
	C340.144440,554.310181 356.157562,553.677490 372.620636,553.127441 
	C373.616211,555.780029 374.163696,558.407898 374.862122,561.326416 
	C368.239044,562.070862 361.470978,562.730103 354.689545,562.926697 
	C346.053802,563.177063 337.405548,562.959473 328.765808,563.116028 
	C319.519104,563.283508 311.148376,566.136902 303.500427,571.974792 
z"/>
<path fill="#8467C9" opacity="1.000000" stroke="none" 
	d="
M263.208069,497.346558 
	C263.374268,495.415192 263.112457,493.676727 263.815704,492.530365 
	C264.559082,491.318665 266.280426,489.887390 267.467926,489.976257 
	C268.934753,490.086060 270.610748,491.419250 271.586670,492.691528 
	C272.264343,493.574982 272.006287,495.247162 272.008331,496.567261 
	C272.035400,514.025085 272.037689,531.482971 272.032990,548.940857 
	C272.032684,550.101807 272.348633,551.570129 271.776642,552.356995 
	C270.721069,553.809143 269.149933,555.766968 267.729095,555.821045 
	C266.358887,555.873352 264.539368,554.022766 263.611389,552.565918 
	C262.909668,551.464233 263.219696,549.666565 263.217926,548.178406 
	C263.197968,531.385559 263.204803,514.592712 263.208069,497.346558 
z"/>
<path fill="#8352C9" opacity="1.000000" stroke="none" 
	d="
M545.842773,514.000000 
	C545.827515,507.688141 546.107117,501.855896 545.705688,496.070923 
	C545.392151,491.551819 547.044861,490.044373 551.336426,490.597046 
	C553.103699,490.824677 554.924805,490.634766 557.529663,490.634766 
	C557.529663,493.753723 557.528870,496.340515 557.529785,498.927338 
	C557.533936,510.218994 557.544128,521.510620 557.540833,532.802307 
	C557.538757,539.695007 557.529053,539.710999 550.794067,539.510498 
	C549.334290,539.466980 547.879272,539.262817 545.844238,539.081055 
	C545.844238,530.698059 545.844238,522.598999 545.842773,514.000000 
z"/>
<path fill="#6D87BB" opacity="1.000000" stroke="none" 
	d="
M329.484192,457.853821 
	C329.312897,461.037567 328.085663,464.770935 333.925842,465.244324 
	C328.135376,473.677185 325.847382,483.119659 326.158997,493.415924 
	C326.389374,501.027893 326.204285,508.652435 326.204285,516.675293 
	C323.177917,516.675293 320.622101,516.675293 317.427307,516.675293 
	C318.006104,502.571411 315.214905,488.351562 319.662323,474.712891 
	C321.607697,468.747223 325.942902,463.560852 329.484192,457.853821 
z"/>
<path fill="#4FA9B7" opacity="1.000000" stroke="none" 
	d="
M356.830688,509.408508 
	C356.833649,495.158020 356.850952,481.342529 356.833252,467.527130 
	C356.828644,463.940918 357.676910,460.970947 362.075806,461.531982 
	C365.556061,461.975830 365.704498,464.823242 365.698486,467.645905 
	C365.668640,481.627716 365.683533,495.609650 365.698364,509.591522 
	C365.701721,512.752136 365.561798,515.935425 361.342621,516.038696 
	C357.111816,516.142334 356.699219,513.107117 356.830688,509.408508 
z"/>
<path fill="#8352C9" opacity="1.000000" stroke="none" 
	d="
M225.304565,507.948761 
	C225.315186,497.654114 225.313644,487.850250 225.348434,478.046509 
	C225.359543,474.911743 225.646454,471.563171 229.767914,471.612701 
	C233.846130,471.661713 234.113235,474.969666 234.109558,478.130188 
	C234.095245,490.426544 234.091385,502.722931 234.069229,515.019287 
	C234.063950,517.954468 234.000992,520.970947 229.956329,521.094055 
	C225.607132,521.226440 225.454132,518.021667 225.349609,514.919556 
	C225.276901,512.761536 225.316849,510.599701 225.304565,507.948761 
z"/>
<path fill="#6D87BB" opacity="1.000000" stroke="none" 
	d="
M308.566040,492.010010 
	C308.547607,498.989624 308.542480,505.471283 308.514374,511.952850 
	C308.481415,519.552551 308.472748,519.552490 300.263977,521.432434 
	C300.053864,520.341675 299.668060,519.262573 299.665100,518.182495 
	C299.631470,505.884064 299.671082,493.585510 299.655090,481.287018 
	C299.651062,478.198334 300.177948,475.378235 303.960266,475.266205 
	C307.763580,475.153564 308.514252,477.975281 308.568390,481.042114 
	C308.629974,484.530975 308.574005,488.021973 308.566040,492.010010 
z"/>
<path fill="#6D87BB" opacity="1.000000" stroke="none" 
	d="
M337.670105,524.627563 
	C337.130096,525.178101 336.049683,525.512085 335.124481,526.093140 
	C333.524414,527.098083 332.020599,528.256226 330.476410,529.350098 
	C331.863647,530.451782 333.250885,531.553406 334.967651,532.852722 
	C328.200623,533.669250 321.034454,533.865234 314.026093,535.019653 
	C306.178986,536.312195 299.225372,539.861694 293.442566,546.022827 
	C292.183105,543.632202 291.217377,541.078064 290.094055,538.195740 
	C297.819427,529.659424 307.907410,526.247131 318.831940,525.106812 
	C324.908600,524.472534 331.074127,524.689148 337.670105,524.627563 
z"/>
<path fill="#4FA9B7" opacity="1.000000" stroke="none" 
	d="
M383.035065,491.388885 
	C383.024475,492.990509 382.982056,494.154938 383.013611,495.317383 
	C383.097046,498.393036 381.882111,501.107025 378.673340,500.554626 
	C377.001221,500.266754 374.780426,497.486847 374.551453,495.618866 
	C373.990234,491.040405 374.019989,486.274811 374.700439,481.717194 
	C374.959930,479.979218 377.645813,478.603516 379.225891,477.062744 
	C380.496796,478.700073 382.479309,480.183441 382.874481,482.010254 
	C383.492828,484.868378 383.037476,487.958801 383.035065,491.388885 
z"/>
<path fill="#4FA9B7" opacity="1.000000" stroke="none" 
	d="
M341.882263,500.837158 
	C340.892242,499.063995 339.758667,497.469421 339.673828,495.820862 
	C339.427429,491.033386 339.284424,486.190521 339.790070,481.442780 
	C339.957397,479.871582 342.220795,478.523651 343.525879,477.073669 
	C345.006958,478.527344 347.588135,479.858856 347.765625,481.457275 
	C348.328705,486.528320 348.137878,491.703949 347.958405,496.829376 
	C347.833984,500.381958 345.717834,501.789581 341.882263,500.837158 
z"/>
<path fill="#8352C9" opacity="1.000000" stroke="none" 
	d="
M557.577454,475.110657 
	C557.548706,482.094147 556.765625,482.483337 546.195984,480.917847 
	C546.195984,477.620209 546.195984,474.251740 546.195984,470.919983 
	C554.338318,468.805908 557.017029,469.713104 557.577454,475.110657 
z"/>
<path fill="#8467C9" opacity="1.000000" stroke="none" 
	d="
M209.147461,487.416168 
	C209.182373,488.896576 209.105072,490.731628 208.795746,492.776123 
	C208.720901,491.247314 208.878067,489.509064 209.147461,487.416168 
z"/>
<path fill="#8467C9" opacity="1.000000" stroke="none" 
	d="
M213.315002,519.291870 
	C213.324326,517.572327 213.588867,515.569458 214.090546,513.307251 
	C214.075180,515.034729 213.822693,517.021667 213.315002,519.291870 
z"/>
<path fill="#8467C9" opacity="1.000000" stroke="none" 
	d="
M208.157196,495.333557 
	C208.274612,495.902100 208.288361,496.743286 208.147919,497.746674 
	C208.013657,497.141327 208.033585,496.373749 208.157196,495.333557 
z"/>
<path fill="#6D87BB" opacity="1.000000" stroke="none" 
	d="
M291.215576,548.743103 
	C291.269073,548.419617 291.561493,547.926880 292.077911,547.244751 
	C292.019440,547.561523 291.736969,548.067688 291.215576,548.743103 
z"/>
<path fill="#6D87BB" opacity="1.000000" stroke="none" 
	d="
M367.720123,423.469147 
	C368.031311,423.370178 368.589294,423.423248 369.400879,423.577881 
	C369.091919,423.660034 368.529449,423.640594 367.720123,423.469147 
z"/>
<path fill="#8467C9" opacity="1.000000" stroke="none" 
	d="
M212.873337,523.630493 
	C212.756851,523.414978 212.740814,522.886597 212.843353,522.184509 
	C212.965881,522.446350 212.969833,522.882019 212.873337,523.630493 
z"/>
<path fill="#6D87BB" opacity="1.000000" stroke="none" 
	d="
M292.351562,547.158203 
	C292.305695,546.977112 292.539185,546.685425 292.978577,546.202637 
	C292.999969,546.356934 292.815430,546.702332 292.351562,547.158203 
z"/>
<path fill="#6D87BB" opacity="1.000000" stroke="none" 
	d="
M334.374115,465.184265 
	C334.325195,464.991302 334.568359,464.701538 335.020752,464.218811 
	C335.042053,464.379761 334.854126,464.733612 334.374115,465.184265 
z"/>
<path fill="#6D87BB" opacity="1.000000" stroke="none" 
	d="
M371.419312,415.010010 
	C371.379974,415.009094 371.432587,415.010498 371.459381,415.010101 
	C371.486176,415.009705 371.458649,415.010925 371.419312,415.010010 
z"/>
<path fill="#6D87BB" opacity="1.000000" stroke="none" 
	d="
M365.755493,524.271118 
	C365.788849,524.460693 365.550018,524.527039 365.163635,524.449524 
	C365.042725,524.406616 365.509949,524.248840 365.755493,524.271118 
z"/>
<path fill="#6D87BB" opacity="1.000000" stroke="none" 
	d="
M331.719971,455.913239 
	C331.752319,456.132874 331.476318,456.380310 330.966553,456.781494 
	C330.959045,456.603851 331.185303,456.272430 331.719971,455.913239 
z"/>
<path fill="#6D87BB" opacity="1.000000" stroke="none" 
	d="
M330.651733,456.825378 
	C330.693268,457.015259 330.438904,457.300629 329.968201,457.774414 
	C329.953186,457.615540 330.154510,457.268188 330.651733,456.825378 
z"/>
<path fill="#6D87BB" opacity="1.000000" stroke="none" 
	d="
M337.309021,462.091919 
	C337.315125,461.912354 337.629974,461.657074 338.208954,461.246796 
	C338.188019,461.399963 337.902893,461.708099 337.309021,462.091919 
z"/>
<path fill="#6D87BB" opacity="1.000000" stroke="none" 
	d="
M336.319427,463.122620 
	C336.285797,462.944580 336.535248,462.667297 336.998169,462.208313 
	C337.008606,462.358856 336.805573,462.691132 336.319427,463.122620 
z"/>
<path fill="#6D87BB" opacity="1.000000" stroke="none" 
	d="
M335.321747,464.125122 
	C335.287170,463.946838 335.535950,463.668976 335.996704,463.207581 
	C336.007477,463.357910 335.806305,463.691742 335.321747,464.125122 
z"/>
<path fill="#1E2326" opacity="1.000000" stroke="none" 
	d="
M781.393188,516.921021 
	C781.465210,527.249634 780.350159,528.382202 770.622009,528.353638 
	C766.799866,528.342407 762.975525,528.418396 759.156128,528.311768 
	C753.147644,528.143921 751.047180,526.048218 750.936951,520.173523 
	C750.868347,516.518921 750.874878,512.860474 750.954041,509.206085 
	C751.065918,504.044495 752.974609,502.082947 758.278809,501.940460 
	C763.426697,501.802094 768.583130,501.814880 773.732056,501.931274 
	C779.317322,502.057526 781.174194,503.965546 781.343018,509.463898 
	C781.414307,511.788635 781.378113,514.116638 781.393188,516.921021 
z"/>
</svg>